STARTFONT 2.1
FONT -Adobe-Utopia-Regular-R-Normal--25-240-75-75-P-135-ISO10646-1
SIZE 24 75 75
FONTBOUNDINGBOX 32 37 -4 -9
COMMENT $Xorg: $
COMMENT ISO10646-1 extension by Markus Kuhn <mkuhn@acm.org>, 2001-03-20
STARTPROPERTIES 28
FOUNDRY "Adobe"
FAMILY_NAME "Utopia"
WEIGHT_NAME "Regular"
SLANT "R"
SETWIDTH_NAME "Normal"
ADD_STYLE_NAME ""
PIXEL_SIZE 25
POINT_SIZE 240
RESOLUTION_X 75
RESOLUTION_Y 75
SPACING "P"
AVERAGE_WIDTH 135
CHARSET_REGISTRY "ISO10646"
CHARSET_ENCODING "1"
CAP_HEIGHT 17
X_HEIGHT 12
RELATIVE_SETWIDTH 50
RELATIVE_WEIGHT 50
WEIGHT 136
FACE_NAME "Utopia Regular"
COPYRIGHT "Copyright (c) 1989, 1991 Adobe Systems Incorporated.  All rights reserved."
NOTICE "Utopia is a registered trademark of Adobe Systems Incorporated."
DESTINATION 0
FONT_ASCENT 21
FONT_DESCENT 5
DEFAULT_CHAR 0
_ADOBE_PSFONT "Utopia-Regular"
_DEC_DEVICE_FONTNAMES "PS=Utopia-Regular"
ENDPROPERTIES
CHARS 756
STARTCHAR char0
ENCODING 0
SWIDTH 798 0
DWIDTH 20 0
BBX 17 17 1 0
BITMAP
AAAA80
000000
800080
000000
800080
000000
800080
000000
800080
000000
800080
000000
800080
000000
800080
000000
AAAA80
ENDCHAR
STARTCHAR space
ENCODING 32
SWIDTH 225 0
DWIDTH 5 0
BBX 0 0 0 0
BITMAP
ENDCHAR
STARTCHAR exclam
ENCODING 33
SWIDTH 242 0
DWIDTH 6 0
BBX 4 17 1 0
BITMAP
60
60
60
60
60
60
60
60
60
60
60
00
00
00
60
F0
60
ENDCHAR
STARTCHAR quotedbl
ENCODING 34
SWIDTH 458 0
DWIDTH 11 0
BBX 6 7 3 10
BITMAP
CC
CC
CC
CC
CC
88
88
ENDCHAR
STARTCHAR numbersign
ENCODING 35
SWIDTH 530 0
DWIDTH 13 0
BBX 12 14 0 2
BITMAP
0C60
0C60
0C60
18C0
7FF0
18C0
18C0
3180
3180
FFE0
3180
6300
6300
6300
ENDCHAR
STARTCHAR dollar
ENCODING 36
SWIDTH 530 0
DWIDTH 13 0
BBX 11 22 1 -3
BITMAP
0400
0400
1F00
75C0
64C0
E400
E400
7400
7C00
3E00
0F80
07C0
05C0
04E0
04E0
04E0
C4C0
E5C0
3F00
0400
0400
0400
ENDCHAR
STARTCHAR percent
ENCODING 37
SWIDTH 838 0
DWIDTH 20 0
BBX 18 17 1 0
BITMAP
3C0600
67FC00
C30800
C31800
C31000
C32000
C36000
664000
3C8F00
019980
0130C0
0230C0
0630C0
0430C0
0830C0
181980
100F00
ENDCHAR
STARTCHAR ampersand
ENCODING 38
SWIDTH 706 0
DWIDTH 18 0
BBX 17 17 1 0
BITMAP
078000
1CC000
386000
386000
386000
1CC000
0F8000
1F0300
3B0380
718380
E1C300
E0E300
E07200
E03C00
701C00
383E00
0FC700
ENDCHAR
STARTCHAR quotesingle
ENCODING 39
SWIDTH 278 0
DWIDTH 7 0
BBX 2 7 2 10
BITMAP
C0
C0
C0
C0
C0
80
80
ENDCHAR
STARTCHAR parenleft
ENCODING 40
SWIDTH 350 0
DWIDTH 8 0
BBX 5 20 2 -3
BITMAP
18
30
60
60
C0
C0
C0
C0
C0
C0
C0
C0
C0
C0
C0
C0
60
60
30
18
ENDCHAR
STARTCHAR parenright
ENCODING 41
SWIDTH 350 0
DWIDTH 8 0
BBX 5 20 1 -3
BITMAP
C0
60
30
30
18
18
18
18
18
18
18
18
18
18
18
18
30
30
60
C0
ENDCHAR
STARTCHAR asterisk
ENCODING 42
SWIDTH 412 0
DWIDTH 10 0
BBX 9 9 0 8
BITMAP
0C00
0C00
C980
EB80
1C00
EB80
C980
1800
1800
ENDCHAR
STARTCHAR plus
ENCODING 43
SWIDTH 570 0
DWIDTH 14 0
BBX 12 12 1 0
BITMAP
0600
0600
0600
0600
0600
FFF0
FFF0
0600
0600
0600
0600
0600
ENDCHAR
STARTCHAR comma
ENCODING 44
SWIDTH 265 0
DWIDTH 7 0
BBX 4 6 1 -3
BITMAP
60
F0
70
20
40
80
ENDCHAR
STARTCHAR hyphen
ENCODING 45
SWIDTH 392 0
DWIDTH 10 0
BBX 6 2 2 5
BITMAP
FC
FC
ENDCHAR
STARTCHAR period
ENCODING 46
SWIDTH 265 0
DWIDTH 6 0
BBX 4 3 1 0
BITMAP
60
F0
60
ENDCHAR
STARTCHAR slash
ENCODING 47
SWIDTH 460 0
DWIDTH 11 0
BBX 7 17 2 0
BITMAP
06
06
06
0C
0C
0C
18
18
30
30
30
60
60
60
C0
C0
C0
ENDCHAR
STARTCHAR zero
ENCODING 48
SWIDTH 530 0
DWIDTH 13 0
BBX 11 17 1 0
BITMAP
0E00
3180
60C0
60C0
E0E0
E0E0
E0E0
E0E0
E0E0
E0E0
E0E0
E0E0
E0E0
60C0
60C0
3180
0E00
ENDCHAR
STARTCHAR one
ENCODING 49
SWIDTH 530 0
DWIDTH 13 0
BBX 9 17 2 0
BITMAP
0C00
3C00
FC00
1C00
1C00
1C00
1C00
1C00
1C00
1C00
1C00
1C00
1C00
1C00
1C00
1C00
FF80
ENDCHAR
STARTCHAR two
ENCODING 50
SWIDTH 530 0
DWIDTH 13 0
BBX 11 17 1 0
BITMAP
1F00
71C0
E0E0
E0E0
40E0
00E0
00E0
01C0
0180
0300
0600
1800
3000
6000
C020
FFE0
FFE0
ENDCHAR
STARTCHAR three
ENCODING 51
SWIDTH 530 0
DWIDTH 13 0
BBX 11 17 1 0
BITMAP
1F00
71C0
E0E0
E0E0
40E0
00E0
01C0
1F00
01C0
00E0
00E0
00E0
40E0
E0E0
E0E0
71C0
1F00
ENDCHAR
STARTCHAR four
ENCODING 52
SWIDTH 530 0
DWIDTH 13 0
BBX 11 17 1 0
BITMAP
0700
0700
0E00
0C80
1980
1B80
3380
2380
6380
4380
8380
FFE0
0380
0380
0380
0380
0FE0
ENDCHAR
STARTCHAR five
ENCODING 53
SWIDTH 530 0
DWIDTH 13 0
BBX 11 17 1 0
BITMAP
7FE0
7FC0
4000
4000
4000
4000
5F00
61C0
40E0
00E0
00E0
00E0
40E0
E0E0
E0E0
71C0
1F00
ENDCHAR
STARTCHAR six
ENCODING 54
SWIDTH 530 0
DWIDTH 13 0
BBX 11 17 1 0
BITMAP
0F00
31C0
60E0
60E0
E040
E000
E000
EF00
F1C0
E0C0
E0E0
E0E0
E0E0
60C0
60C0
3180
0E00
ENDCHAR
STARTCHAR seven
ENCODING 55
SWIDTH 530 0
DWIDTH 13 0
BBX 11 17 1 0
BITMAP
FFE0
FFE0
8040
0080
0180
0100
0200
0600
0400
0C00
0C00
1800
1800
3800
3800
3800
1000
ENDCHAR
STARTCHAR eight
ENCODING 56
SWIDTH 530 0
DWIDTH 13 0
BBX 11 17 1 0
BITMAP
1F00
71C0
60C0
E0E0
E0E0
60C0
71C0
1F00
71C0
60C0
E0E0
E0E0
E0E0
E0E0
60C0
71C0
1F00
ENDCHAR
STARTCHAR nine
ENCODING 57
SWIDTH 530 0
DWIDTH 13 0
BBX 11 17 1 0
BITMAP
0E00
3180
60C0
60C0
E0E0
E0E0
E0E0
60E0
71E0
1EE0
00E0
00E0
40E0
E0C0
E0C0
7180
1E00
ENDCHAR
STARTCHAR colon
ENCODING 58
SWIDTH 265 0
DWIDTH 6 0
BBX 4 13 1 0
BITMAP
60
F0
60
00
00
00
00
00
00
00
60
F0
60
ENDCHAR
STARTCHAR semicolon
ENCODING 59
SWIDTH 265 0
DWIDTH 6 0
BBX 4 16 1 -3
BITMAP
60
F0
60
00
00
00
00
00
00
00
60
F0
70
20
40
80
ENDCHAR
STARTCHAR less
ENCODING 60
SWIDTH 570 0
DWIDTH 14 0
BBX 12 12 1 0
BITMAP
0030
00F0
03C0
0F00
3C00
F000
F000
3C00
0F00
03C0
00F0
0030
ENDCHAR
STARTCHAR equal
ENCODING 61
SWIDTH 570 0
DWIDTH 14 0
BBX 12 8 1 2
BITMAP
FFF0
FFF0
0000
0000
0000
0000
FFF0
FFF0
ENDCHAR
STARTCHAR greater
ENCODING 62
SWIDTH 570 0
DWIDTH 14 0
BBX 12 12 1 0
BITMAP
C000
F000
3C00
0F00
03C0
00F0
00F0
03C0
0F00
3C00
F000
C000
ENDCHAR
STARTCHAR question
ENCODING 63
SWIDTH 389 0
DWIDTH 10 0
BBX 8 17 1 0
BITMAP
3C
EE
C7
07
07
06
0C
18
30
60
70
38
00
00
30
78
30
ENDCHAR
STARTCHAR at
ENCODING 64
SWIDTH 793 0
DWIDTH 22 0
BBX 18 18 2 0
BITMAP
00F800
030600
0C0100
180080
307C80
618C40
630C40
C61840
C61840
CC1840
CC3080
CC7080
CCB100
671E00
600000
300000
1C0400
07F800
ENDCHAR
STARTCHAR A
ENCODING 65
SWIDTH 635 0
DWIDTH 16 0
BBX 16 17 0 0
BITMAP
0180
0180
03C0
03C0
03C0
04E0
04E0
04E0
0870
0870
0FF0
1038
1038
3038
201C
201C
F87F
ENDCHAR
STARTCHAR B
ENCODING 66
SWIDTH 646 0
DWIDTH 16 0
BBX 14 17 1 0
BITMAP
FFC0
3870
3838
3838
3838
3838
3830
3860
3FE0
3838
381C
381C
381C
381C
381C
3838
FFE0
ENDCHAR
STARTCHAR C
ENCODING 67
SWIDTH 684 0
DWIDTH 17 0
BBX 15 17 1 0
BITMAP
07F8
1C0E
3806
7002
7000
E000
E000
E000
E000
E000
E000
E000
7000
7002
3806
1C0E
07F8
ENDCHAR
STARTCHAR D
ENCODING 68
SWIDTH 779 0
DWIDTH 19 0
BBX 17 17 1 0
BITMAP
FFF000
381C00
380E00
380700
380700
380380
380380
380380
380380
380380
380380
380380
380700
380700
380E00
381C00
FFF000
ENDCHAR
STARTCHAR E
ENCODING 69
SWIDTH 606 0
DWIDTH 15 0
BBX 13 17 1 0
BITMAP
FFF0
3830
3810
3810
3800
3800
3820
3820
3FE0
3820
3820
3800
3800
3808
3808
3818
FFF8
ENDCHAR
STARTCHAR F
ENCODING 70
SWIDTH 580 0
DWIDTH 14 0
BBX 12 17 1 0
BITMAP
FFF0
3830
3810
3810
3800
3800
3820
3820
3FE0
3820
3820
3800
3800
3800
3800
3800
FE00
ENDCHAR
STARTCHAR G
ENCODING 71
SWIDTH 734 0
DWIDTH 18 0
BBX 17 17 1 0
BITMAP
07F800
1C0E00
380600
700200
700000
E00000
E00000
E00000
E00000
E00000
E01F80
E00700
700700
700700
380700
1C0F00
07F800
ENDCHAR
STARTCHAR H
ENCODING 72
SWIDTH 798 0
DWIDTH 20 0
BBX 18 17 1 0
BITMAP
FE1FC0
380700
380700
380700
380700
380700
380700
380700
3FFF00
380700
380700
380700
380700
380700
380700
380700
FE1FC0
ENDCHAR
STARTCHAR I
ENCODING 73
SWIDTH 349 0
DWIDTH 9 0
BBX 7 17 1 0
BITMAP
FE
38
38
38
38
38
38
38
38
38
38
38
38
38
38
38
FE
ENDCHAR
STARTCHAR J
ENCODING 74
SWIDTH 350 0
DWIDTH 9 0
BBX 8 20 0 -3
BITMAP
7F
1C
1C
1C
1C
1C
1C
1C
1C
1C
1C
1C
1C
1C
1C
1C
1C
18
30
C0
ENDCHAR
STARTCHAR K
ENCODING 75
SWIDTH 658 0
DWIDTH 17 0
BBX 16 17 1 0
BITMAP
FE3F
381C
3830
3860
38C0
3980
3B00
3F00
3B80
39C0
39E0
38E0
3870
3878
383C
381E
FE0F
ENDCHAR
STARTCHAR L
ENCODING 76
SWIDTH 568 0
DWIDTH 15 0
BBX 13 17 1 0
BITMAP
FE00
3800
3800
3800
3800
3800
3800
3800
3800
3800
3800
3800
3800
3808
3808
3818
FFF8
ENDCHAR
STARTCHAR M
ENCODING 77
SWIDTH 944 0
DWIDTH 23 0
BBX 21 17 1 0
BITMAP
F800F8
3800E0
3C01E0
3C01E0
2E02E0
2E02E0
2704E0
2704E0
2388E0
2388E0
21D0E0
21D0E0
20E0E0
20E0E0
2040E0
3040E0
FC03F8
ENDCHAR
STARTCHAR N
ENCODING 78
SWIDTH 780 0
DWIDTH 19 0
BBX 17 17 1 0
BITMAP
F01F80
380600
3C0200
3C0200
2E0200
270200
278200
238200
21C200
21E200
20E200
207200
203A00
203E00
201E00
300E00
FC0600
ENDCHAR
STARTCHAR O
ENCODING 79
SWIDTH 762 0
DWIDTH 19 0
BBX 17 17 1 0
BITMAP
07F000
1C1C00
380E00
700700
700700
E00380
E00380
E00380
E00380
E00380
E00380
E00380
700700
700700
380E00
1C1C00
07F000
ENDCHAR
STARTCHAR P
ENCODING 80
SWIDTH 600 0
DWIDTH 15 0
BBX 13 17 1 0
BITMAP
FFC0
3870
3838
3838
3838
3838
3838
3838
3870
3FC0
3800
3800
3800
3800
3800
3800
FE00
ENDCHAR
STARTCHAR Q
ENCODING 81
SWIDTH 762 0
DWIDTH 19 0
BBX 17 21 1 -4
BITMAP
07F000
1C1C00
380E00
700700
700700
E00380
E00380
E00380
E00380
E00380
E00380
E00380
700700
700700
380E00
1C1C00
07F000
00E000
00E000
007800
001F00
ENDCHAR
STARTCHAR R
ENCODING 82
SWIDTH 644 0
DWIDTH 16 0
BBX 15 17 1 0
BITMAP
FFC0
3870
3838
3838
3838
3838
3830
3860
3FC0
38E0
3870
3870
3870
3838
3838
3838
FE1E
ENDCHAR
STARTCHAR S
ENCODING 83
SWIDTH 541 0
DWIDTH 14 0
BBX 12 17 1 0
BITMAP
1F80
70E0
C060
C020
C000
E000
F800
7F00
1FC0
07E0
00F0
0070
0030
8030
C030
E0E0
3F80
ENDCHAR
STARTCHAR T
ENCODING 84
SWIDTH 621 0
DWIDTH 15 0
BBX 15 17 0 0
BITMAP
FFFE
C386
8382
8382
0380
0380
0380
0380
0380
0380
0380
0380
0380
0380
0380
0380
0FE0
ENDCHAR
STARTCHAR U
ENCODING 85
SWIDTH 791 0
DWIDTH 20 0
BBX 18 17 1 0
BITMAP
FE1FC0
380700
380700
380700
380700
380700
380700
380700
380700
380700
380700
380700
380700
380700
180600
0C0C00
03F000
ENDCHAR
STARTCHAR V
ENCODING 86
SWIDTH 634 0
DWIDTH 16 0
BBX 16 17 0 0
BITMAP
FE1F
3804
3804
1C08
1C08
1C08
0E10
0E10
0E10
0720
0720
0720
03C0
03C0
03C0
0180
0180
ENDCHAR
STARTCHAR W
ENCODING 87
SWIDTH 940 0
DWIDTH 24 0
BBX 24 17 0 0
BITMAP
FE0C1F
380C04
381E04
381E04
1C1608
1C1608
1C2708
1C2708
0E2710
0E4390
0E4390
0E4390
0781E0
0781E0
0781E0
0300C0
0300C0
ENDCHAR
STARTCHAR X
ENCODING 88
SWIDTH 624 0
DWIDTH 16 0
BBX 16 17 0 0
BITMAP
FE1F
3804
1C08
1C10
0E10
0720
0740
03C0
0180
03C0
02E0
04E0
0870
0838
1038
201C
F87F
ENDCHAR
STARTCHAR Y
ENCODING 89
SWIDTH 588 0
DWIDTH 16 0
BBX 16 17 0 0
BITMAP
FE1F
3804
1C08
1C08
0E10
0E10
0720
0720
03C0
03C0
01C0
01C0
01C0
01C0
01C0
01C0
07F0
ENDCHAR
STARTCHAR Z
ENCODING 90
SWIDTH 610 0
DWIDTH 15 0
BBX 13 17 1 0
BITMAP
FFF8
C038
8070
8070
00E0
01C0
01C0
0380
0700
0700
0E00
1C00
1C00
3800
7008
7018
FFF8
ENDCHAR
STARTCHAR bracketleft
ENCODING 91
SWIDTH 330 0
DWIDTH 8 0
BBX 4 20 3 -3
BITMAP
F0
C0
C0
C0
C0
C0
C0
C0
C0
C0
C0
C0
C0
C0
C0
C0
C0
C0
C0
F0
ENDCHAR
STARTCHAR backslash
ENCODING 92
SWIDTH 460 0
DWIDTH 11 0
BBX 7 17 2 0
BITMAP
C0
C0
C0
60
60
60
30
30
18
18
18
0C
0C
0C
06
06
06
ENDCHAR
STARTCHAR bracketright
ENCODING 93
SWIDTH 330 0
DWIDTH 8 0
BBX 4 20 1 -3
BITMAP
F0
30
30
30
30
30
30
30
30
30
30
30
30
30
30
30
30
30
30
F0
ENDCHAR
STARTCHAR asciicircum
ENCODING 94
SWIDTH 570 0
DWIDTH 14 0
BBX 12 12 1 5
BITMAP
0600
0600
0F00
0F00
1980
1980
30C0
30C0
6060
6060
C030
C030
ENDCHAR
STARTCHAR underscore
ENCODING 95
SWIDTH 500 0
DWIDTH 12 0
BBX 12 1 0 -3
BITMAP
FFF0
ENDCHAR
STARTCHAR grave
ENCODING 96
SWIDTH 400 0
DWIDTH 10 0
BBX 6 5 2 14
BITMAP
C0
E0
70
18
04
ENDCHAR
STARTCHAR a
ENCODING 97
SWIDTH 523 0
DWIDTH 14 0
BBX 13 13 1 0
BITMAP
3F80
71C0
60E0
00E0
00E0
03E0
1EE0
70E0
E0E0
E0E0
E0E0
F1F8
3E60
ENDCHAR
STARTCHAR b
ENCODING 98
SWIDTH 598 0
DWIDTH 15 0
BBX 13 19 1 0
BITMAP
3000
F000
7000
7000
7000
7000
77C0
7870
7070
7038
7038
7038
7038
7038
7038
7038
7070
7870
47C0
ENDCHAR
STARTCHAR c
ENCODING 99
SWIDTH 496 0
DWIDTH 12 0
BBX 11 13 1 0
BITMAP
1F80
71C0
70C0
E000
E000
E000
E000
E000
E000
E000
7060
70C0
1F00
ENDCHAR
STARTCHAR d
ENCODING 100
SWIDTH 598 0
DWIDTH 15 0
BBX 13 19 1 0
BITMAP
0030
00F0
0070
0070
0070
0070
1F70
70F0
7070
E070
E070
E070
E070
E070
E070
E070
7070
70F0
1F38
ENDCHAR
STARTCHAR e
ENCODING 101
SWIDTH 514 0
DWIDTH 13 0
BBX 11 13 1 0
BITMAP
1F00
71C0
71C0
E0E0
E0E0
FFE0
E000
E000
E000
E000
7060
70C0
1F00
ENDCHAR
STARTCHAR f
ENCODING 102
SWIDTH 319 0
DWIDTH 8 0
BBX 9 19 0 0
BITMAP
0F00
1B80
3900
3800
3800
3800
FF00
3800
3800
3800
3800
3800
3800
3800
3800
3800
3800
3800
FE00
ENDCHAR
STARTCHAR g
ENCODING 103
SWIDTH 520 0
DWIDTH 13 0
BBX 13 18 0 -5
BITMAP
0F98
38F8
7060
7070
7070
7070
38E0
0F80
1800
3800
3F00
1FE0
33F0
6078
E038
E038
7070
1FC0
ENDCHAR
STARTCHAR h
ENCODING 104
SWIDTH 607 0
DWIDTH 16 0
BBX 16 19 0 0
BITMAP
1800
7800
3800
3800
3800
3800
38F8
3B3C
3C1C
381C
381C
381C
381C
381C
381C
381C
381C
381C
FE7F
ENDCHAR
STARTCHAR i
ENCODING 105
SWIDTH 291 0
DWIDTH 7 0
BBX 7 17 0 0
BITMAP
30
78
30
00
18
78
38
38
38
38
38
38
38
38
38
38
FE
ENDCHAR
STARTCHAR j
ENCODING 106
SWIDTH 280 0
DWIDTH 7 0
BBX 6 22 -1 -5
BITMAP
18
3C
18
00
0C
3C
1C
1C
1C
1C
1C
1C
1C
1C
1C
1C
1C
1C
1C
18
38
E0
ENDCHAR
STARTCHAR k
ENCODING 107
SWIDTH 524 0
DWIDTH 13 0
BBX 14 19 0 0
BITMAP
1800
7800
3800
3800
3800
3800
3878
38F0
39C0
3980
3B00
3E00
3F00
3B80
39C0
39E0
38F0
3878
FE3C
ENDCHAR
STARTCHAR l
ENCODING 108
SWIDTH 279 0
DWIDTH 7 0
BBX 7 19 0 0
BITMAP
18
78
38
38
38
38
38
38
38
38
38
38
38
38
38
38
38
38
FE
ENDCHAR
STARTCHAR m
ENCODING 109
SWIDTH 923 0
DWIDTH 23 0
BBX 23 13 0 0
BITMAP
19E1E0
7A7A70
3C3C38
383838
383838
383838
383838
383838
383838
383838
383838
383838
FEFEFE
ENDCHAR
STARTCHAR n
ENCODING 110
SWIDTH 619 0
DWIDTH 15 0
BBX 16 13 0 0
BITMAP
18F0
7B38
3C1C
381C
381C
381C
381C
381C
381C
381C
381C
381C
FE7F
ENDCHAR
STARTCHAR o
ENCODING 111
SWIDTH 577 0
DWIDTH 14 0
BBX 12 13 1 0
BITMAP
1F80
70E0
70E0
E070
E070
E070
E070
E070
E070
E070
70E0
70E0
1F80
ENDCHAR
STARTCHAR p
ENCODING 112
SWIDTH 608 0
DWIDTH 15 0
BBX 14 18 0 -5
BITMAP
33E0
7C38
3838
381C
381C
381C
381C
381C
381C
381C
3838
3C38
3BE0
3800
3800
3800
3800
FE00
ENDCHAR
STARTCHAR q
ENCODING 113
SWIDTH 591 0
DWIDTH 15 0
BBX 14 19 1 -5
BITMAP
0010
1F30
70F0
7070
E070
E070
E070
E070
E070
E070
E070
7070
70F0
1F70
0070
0070
0070
0070
01FC
ENDCHAR
STARTCHAR r
ENCODING 114
SWIDTH 389 0
DWIDTH 10 0
BBX 10 13 0 0
BITMAP
1980
7BC0
3D80
3800
3800
3800
3800
3800
3800
3800
3800
3800
FE00
ENDCHAR
STARTCHAR s
ENCODING 115
SWIDTH 436 0
DWIDTH 11 0
BBX 9 13 1 0
BITMAP
3F00
6300
C100
C000
E000
F800
7F00
0F80
0380
8180
C180
E300
7E00
ENDCHAR
STARTCHAR t
ENCODING 116
SWIDTH 344 0
DWIDTH 9 0
BBX 8 16 0 0
BITMAP
08
18
38
FF
38
38
38
38
38
38
38
38
38
38
39
1E
ENDCHAR
STARTCHAR u
ENCODING 117
SWIDTH 606 0
DWIDTH 15 0
BBX 14 13 0 0
BITMAP
3018
F078
7038
7038
7038
7038
7038
7038
7038
7038
7078
39B8
1E3C
ENDCHAR
STARTCHAR v
ENCODING 118
SWIDTH 504 0
DWIDTH 13 0
BBX 13 13 0 0
BITMAP
F838
7010
7010
3820
3820
3820
1C40
1C40
0E80
0E80
0F80
0700
0700
ENDCHAR
STARTCHAR w
ENCODING 119
SWIDTH 768 0
DWIDTH 19 0
BBX 19 13 0 0
BITMAP
F870E0
707040
707040
707040
38B880
38B880
38B880
1D1D00
1D1D00
1D1D00
0E0E00
0E0E00
0E0E00
ENDCHAR
STARTCHAR x
ENCODING 120
SWIDTH 486 0
DWIDTH 12 0
BBX 12 13 0 0
BITMAP
FCF0
3860
1C40
1C80
0E80
0F00
0700
0780
0B80
09C0
11C0
30E0
F9F0
ENDCHAR
STARTCHAR y
ENCODING 121
SWIDTH 506 0
DWIDTH 13 0
BBX 13 18 0 -5
BITMAP
F838
7010
7010
3820
3820
1C40
1C40
1C40
0E80
0E80
0700
0700
0600
0600
0400
CC00
F800
7000
ENDCHAR
STARTCHAR z
ENCODING 122
SWIDTH 480 0
DWIDTH 12 0
BBX 10 13 1 0
BITMAP
FFC0
C1C0
8380
0380
0700
0E00
0E00
1C00
3800
3800
7040
E0C0
FFC0
ENDCHAR
STARTCHAR braceleft
ENCODING 123
SWIDTH 340 0
DWIDTH 8 0
BBX 6 20 1 -3
BITMAP
0C
10
30
30
30
30
30
30
20
C0
20
30
30
30
30
30
30
30
10
0C
ENDCHAR
STARTCHAR bar
ENCODING 124
SWIDTH 228 0
DWIDTH 6 0
BBX 2 17 2 0
BITMAP
C0
C0
C0
C0
C0
C0
C0
C0
C0
C0
C0
C0
C0
C0
C0
C0
C0
ENDCHAR
STARTCHAR braceright
ENCODING 125
SWIDTH 340 0
DWIDTH 8 0
BBX 6 20 1 -3
BITMAP
C0
20
30
30
30
30
30
30
10
0C
10
30
30
30
30
30
30
30
20
C0
ENDCHAR
STARTCHAR asciitilde
ENCODING 126
SWIDTH 570 0
DWIDTH 14 0
BBX 12 3 1 5
BITMAP
3C10
7FE0
83C0
ENDCHAR
STARTCHAR space
ENCODING 160
SWIDTH 225 0
DWIDTH 5 0
BBX 0 0 0 0
BITMAP
ENDCHAR
STARTCHAR exclamdown
ENCODING 161
SWIDTH 242 0
DWIDTH 6 0
BBX 4 18 1 -5
BITMAP
60
F0
60
00
00
00
60
60
60
60
60
60
60
60
60
60
60
60
ENDCHAR
STARTCHAR cent
ENCODING 162
SWIDTH 530 0
DWIDTH 13 0
BBX 11 17 1 0
BITMAP
0200
0200
0FC0
3AE0
7260
7200
E200
E200
E200
E200
E200
7200
7220
3A60
0F80
0200
0200
ENDCHAR
STARTCHAR sterling
ENCODING 163
SWIDTH 530 0
DWIDTH 13 0
BBX 11 17 1 0
BITMAP
0FC0
38E0
7060
7000
7000
7000
3800
3800
1C00
7FC0
0E00
0E00
0E00
0C00
1820
7FE0
FFE0
ENDCHAR
STARTCHAR currency
ENCODING 164
SWIDTH 530 0
DWIDTH 13 0
BBX 11 12 1 3
BITMAP
C060
DF60
71C0
60C0
C060
C060
C060
C060
60C0
71C0
DF60
C060
ENDCHAR
STARTCHAR yen
ENCODING 165
SWIDTH 530 0
DWIDTH 13 0
BBX 13 17 0 0
BITMAP
F838
7010
7010
3820
3820
1C40
1C40
0E80
3EE0
0700
0700
3FE0
0700
0700
0700
0700
1FC0
ENDCHAR
STARTCHAR brokenbar
ENCODING 166
SWIDTH 228 0
DWIDTH 6 0
BBX 2 17 2 0
BITMAP
C0
C0
C0
C0
C0
C0
C0
00
00
C0
C0
C0
C0
C0
C0
C0
C0
ENDCHAR
STARTCHAR section
ENCODING 167
SWIDTH 554 0
DWIDTH 13 0
BBX 11 21 1 -3
BITMAP
0F80
19C0
30C0
3000
3800
7E00
CF80
83C0
80E0
C060
E020
7820
3E20
0F60
03C0
01C0
00C0
00C0
30C0
3980
1F00
ENDCHAR
STARTCHAR dieresis
ENCODING 168
SWIDTH 400 0
DWIDTH 10 0
BBX 9 3 0 14
BITMAP
6300
F780
6300
ENDCHAR
STARTCHAR copyright
ENCODING 169
SWIDTH 818 0
DWIDTH 20 0
BBX 18 17 1 0
BITMAP
07F800
1C0E00
300300
61F180
471880
C608C0
8C0040
8C0040
8C0040
8C0040
860840
C718C0
41F080
600180
300300
1C0E00
07F800
ENDCHAR
STARTCHAR ordfeminine
ENCODING 170
SWIDTH 390 0
DWIDTH 10 0
BBX 8 8 1 8
BITMAP
3C
46
46
1E
66
C6
CE
77
ENDCHAR
STARTCHAR guillemotleft
ENCODING 171
SWIDTH 442 0
DWIDTH 11 0
BBX 10 9 0 2
BITMAP
0840
18C0
3180
6300
E700
6300
3180
18C0
0840
ENDCHAR
STARTCHAR logicalnot
ENCODING 172
SWIDTH 570 0
DWIDTH 14 0
BBX 12 7 1 3
BITMAP
FFF0
FFF0
0030
0030
0030
0030
0030
ENDCHAR
STARTCHAR hyphen
ENCODING 173
SWIDTH 392 0
DWIDTH 10 0
BBX 6 2 2 5
BITMAP
FC
FC
ENDCHAR
STARTCHAR registered
ENCODING 174
SWIDTH 818 0
DWIDTH 20 0
BBX 18 17 1 0
BITMAP
07F800
1C0E00
300300
67F180
431880
C318C0
831840
833040
836040
833040
833040
C318C0
479C80
600180
300300
1C0E00
07F800
ENDCHAR
STARTCHAR macron
ENCODING 175
SWIDTH 400 0
DWIDTH 10 0
BBX 8 1 1 14
BITMAP
FF
ENDCHAR
STARTCHAR degree
ENCODING 176
SWIDTH 350 0
DWIDTH 10 0
BBX 6 6 2 11
BITMAP
78
CC
84
84
CC
78
ENDCHAR
STARTCHAR plusminus
ENCODING 177
SWIDTH 570 0
DWIDTH 14 0
BBX 12 13 1 0
BITMAP
0600
0600
0600
0600
FFF0
FFF0
0600
0600
0600
0600
0000
FFF0
FFF0
ENDCHAR
STARTCHAR twosuperior
ENCODING 178
SWIDTH 380 0
DWIDTH 10 0
BBX 7 10 1 7
BITMAP
7C
C6
86
06
0C
18
30
60
C2
FE
ENDCHAR
STARTCHAR threesuperior
ENCODING 179
SWIDTH 380 0
DWIDTH 10 0
BBX 7 10 1 7
BITMAP
78
CC
84
0C
38
0C
06
86
CC
78
ENDCHAR
STARTCHAR acute
ENCODING 180
SWIDTH 400 0
DWIDTH 10 0
BBX 6 5 2 14
BITMAP
0C
1C
38
60
80
ENDCHAR
STARTCHAR mu
ENCODING 181
SWIDTH 606 0
DWIDTH 15 0
BBX 14 18 0 -5
BITMAP
3018
F078
7038
7038
7038
7038
7038
7038
7038
7038
7078
79B8
7E3C
6000
6000
7000
7000
3000
ENDCHAR
STARTCHAR paragraph
ENCODING 182
SWIDTH 555 0
DWIDTH 14 0
BBX 12 21 1 -3
BITMAP
0CF0
3CC0
7CC0
7CC0
FCC0
FCC0
FCC0
FCC0
7CC0
7CC0
3CC0
0CC0
00C0
00C0
00C0
00C0
00C0
00C0
00C0
00C0
03C0
ENDCHAR
STARTCHAR periodcentered
ENCODING 183
SWIDTH 265 0
DWIDTH 7 0
BBX 4 3 1 5
BITMAP
60
F0
60
ENDCHAR
STARTCHAR cedilla
ENCODING 184
SWIDTH 400 0
DWIDTH 10 0
BBX 4 5 3 -5
BITMAP
20
60
30
30
E0
ENDCHAR
STARTCHAR onesuperior
ENCODING 185
SWIDTH 380 0
DWIDTH 9 0
BBX 6 10 1 7
BITMAP
30
F0
30
30
30
30
30
30
30
FC
ENDCHAR
STARTCHAR ordmasculine
ENCODING 186
SWIDTH 398 0
DWIDTH 10 0
BBX 8 8 1 8
BITMAP
3C
66
C3
C3
C3
C3
66
3C
ENDCHAR
STARTCHAR guillemotright
ENCODING 187
SWIDTH 442 0
DWIDTH 11 0
BBX 10 9 0 2
BITMAP
8400
C600
6300
3180
39C0
3180
6300
C600
8400
ENDCHAR
STARTCHAR onequarter
ENCODING 188
SWIDTH 860 0
DWIDTH 19 0
BBX 17 17 1 0
BITMAP
300600
F00400
300800
301800
301000
302000
306000
304C00
308C00
FD9A00
011600
023600
062600
044600
087F80
180600
100F00
ENDCHAR
STARTCHAR onehalf
ENCODING 189
SWIDTH 860 0
DWIDTH 20 0
BBX 18 17 1 0
BITMAP
300600
F00400
300800
301800
301000
302000
306000
304F80
3098C0
FD90C0
0100C0
020180
060300
040600
080C00
181840
101FC0
ENDCHAR
STARTCHAR threequarters
ENCODING 190
SWIDTH 860 0
DWIDTH 20 0
BBX 17 17 1 0
BITMAP
780600
CC0400
840800
0C1800
381000
0C2000
066000
864C00
CC8C00
799A00
011600
023600
062600
044600
087F80
180600
100F00
ENDCHAR
STARTCHAR questiondown
ENCODING 191
SWIDTH 389 0
DWIDTH 10 0
BBX 8 18 1 -5
BITMAP
0C
1E
0C
00
00
1C
0E
06
06
0C
18
30
60
E0
E0
E3
77
3C
ENDCHAR
STARTCHAR Agrave
ENCODING 192
SWIDTH 635 0
DWIDTH 16 0
BBX 16 21 0 0
BITMAP
0C00
0E00
0700
0180
0040
0000
0180
0380
03C0
03C0
04E0
04E0
04E0
0870
0870
1FF8
1038
1038
201C
201C
F87F
ENDCHAR
STARTCHAR Aacute
ENCODING 193
SWIDTH 635 0
DWIDTH 16 0
BBX 16 21 0 0
BITMAP
0030
0070
00E0
0180
0200
0000
0180
0380
03C0
03C0
04E0
04E0
04E0
0870
0870
1FF8
1038
1038
201C
201C
F87F
ENDCHAR
STARTCHAR Acircumflex
ENCODING 194
SWIDTH 635 0
DWIDTH 16 0
BBX 16 20 0 0
BITMAP
0180
03C0
0660
0C30
0000
0180
0380
03C0
03C0
04E0
04E0
04E0
0870
0870
1FF8
1038
1038
201C
201C
F87F
ENDCHAR
STARTCHAR Atilde
ENCODING 195
SWIDTH 635 0
DWIDTH 16 0
BBX 16 19 0 0
BITMAP
0610
0FE0
10C0
0000
0180
0380
03C0
03C0
04E0
04E0
04E0
0870
0870
1FF8
1038
1038
201C
201C
F87F
ENDCHAR
STARTCHAR Adieresis
ENCODING 196
SWIDTH 635 0
DWIDTH 16 0
BBX 16 19 0 0
BITMAP
0C60
1EF0
0C60
0000
0180
0380
03C0
03C0
04E0
04E0
04E0
0870
0870
1FF8
1038
1038
201C
201C
F87F
ENDCHAR
STARTCHAR Aring
ENCODING 197
SWIDTH 627 0
DWIDTH 16 0
BBX 16 21 0 0
BITMAP
0380
06C0
0440
06C0
0380
0000
0180
0380
03C0
03C0
04E0
04E0
04E0
0870
0870
1FF8
1038
1038
201C
201C
F87F
ENDCHAR
STARTCHAR AE
ENCODING 198
SWIDTH 876 0
DWIDTH 22 0
BBX 21 17 0 0
BITMAP
01FFF0
007830
00B810
00B810
013800
013800
023820
023820
043FE0
07F820
083820
083800
103800
103808
203808
203818
F8FFF8
ENDCHAR
STARTCHAR Ccedilla
ENCODING 199
SWIDTH 680 0
DWIDTH 17 0
BBX 15 22 1 -5
BITMAP
07F8
1C0E
3806
7002
7000
E000
E000
E000
E000
E000
E000
E000
7000
7002
3806
1C0E
07F8
0080
0180
00C0
00C0
0380
ENDCHAR
STARTCHAR Egrave
ENCODING 200
SWIDTH 606 0
DWIDTH 15 0
BBX 13 21 1 0
BITMAP
1800
1C00
0E00
0300
0080
0000
FFF0
3830
3810
3810
3800
3820
3820
3FE0
3820
3820
3800
3808
3808
3818
FFF8
ENDCHAR
STARTCHAR Eacute
ENCODING 201
SWIDTH 606 0
DWIDTH 15 0
BBX 13 21 1 0
BITMAP
00C0
01C0
0380
0600
0800
0000
FFF0
3830
3810
3810
3800
3820
3820
3FE0
3820
3820
3800
3808
3808
3818
FFF8
ENDCHAR
STARTCHAR Ecircumflex
ENCODING 202
SWIDTH 606 0
DWIDTH 15 0
BBX 13 20 1 0
BITMAP
0600
0F00
1980
30C0
0000
FFF0
3830
3810
3810
3800
3820
3820
3FE0
3820
3820
3800
3808
3808
3818
FFF8
ENDCHAR
STARTCHAR Edieresis
ENCODING 203
SWIDTH 606 0
DWIDTH 15 0
BBX 13 19 1 0
BITMAP
18C0
3DE0
18C0
0000
FFF0
3830
3810
3810
3800
3820
3820
3FE0
3820
3820
3800
3808
3808
3818
FFF8
ENDCHAR
STARTCHAR Igrave
ENCODING 204
SWIDTH 349 0
DWIDTH 9 0
BBX 7 21 1 0
BITMAP
C0
E0
70
18
04
00
FE
38
38
38
38
38
38
38
38
38
38
38
38
38
FE
ENDCHAR
STARTCHAR Iacute
ENCODING 205
SWIDTH 349 0
DWIDTH 9 0
BBX 7 21 1 0
BITMAP
06
0E
1C
30
40
00
FE
38
38
38
38
38
38
38
38
38
38
38
38
38
FE
ENDCHAR
STARTCHAR Icircumflex
ENCODING 206
SWIDTH 349 0
DWIDTH 9 0
BBX 8 20 1 0
BITMAP
18
3C
66
C3
00
FE
38
38
38
38
38
38
38
38
38
38
38
38
38
FE
ENDCHAR
STARTCHAR Idieresis
ENCODING 207
SWIDTH 349 0
DWIDTH 9 0
BBX 9 19 0 0
BITMAP
6300
F780
6300
0000
7F00
1C00
1C00
1C00
1C00
1C00
1C00
1C00
1C00
1C00
1C00
1C00
1C00
1C00
7F00
ENDCHAR
STARTCHAR Eth
ENCODING 208
SWIDTH 785 0
DWIDTH 19 0
BBX 17 17 1 0
BITMAP
FFF000
381C00
380E00
380700
380700
380380
380380
380380
FF0380
380380
380380
380380
380700
380700
380E00
381C00
FFF000
ENDCHAR
STARTCHAR Ntilde
ENCODING 209
SWIDTH 780 0
DWIDTH 19 0
BBX 17 19 1 0
BITMAP
030800
07F000
086000
000000
F01F80
380200
3C0200
3E0200
2F0200
278200
238200
21C200
20E200
20F200
207A00
203E00
201E00
200E00
FC0600
ENDCHAR
STARTCHAR Ograve
ENCODING 210
SWIDTH 762 0
DWIDTH 19 0
BBX 17 21 1 0
BITMAP
060000
070000
038000
00C000
002000
000000
07F000
1C1C00
380E00
700700
700700
E00380
E00380
E00380
E00380
E00380
700700
700700
380E00
1C1C00
07F000
ENDCHAR
STARTCHAR Oacute
ENCODING 211
SWIDTH 762 0
DWIDTH 19 0
BBX 17 21 1 0
BITMAP
001800
003800
007000
00C000
010000
000000
07F000
1C1C00
380E00
700700
700700
E00380
E00380
E00380
E00380
E00380
700700
700700
380E00
1C1C00
07F000
ENDCHAR
STARTCHAR Ocircumflex
ENCODING 212
SWIDTH 762 0
DWIDTH 19 0
BBX 17 20 1 0
BITMAP
018000
03C000
066000
0C3000
000000
07F000
1C1C00
380E00
700700
700700
E00380
E00380
E00380
E00380
E00380
700700
700700
380E00
1C1C00
07F000
ENDCHAR
STARTCHAR Otilde
ENCODING 213
SWIDTH 762 0
DWIDTH 19 0
BBX 17 19 1 0
BITMAP
030800
07F000
086000
000000
07F000
1C1C00
380E00
700700
700700
E00380
E00380
E00380
E00380
E00380
700700
700700
380E00
1C1C00
07F000
ENDCHAR
STARTCHAR Odieresis
ENCODING 214
SWIDTH 762 0
DWIDTH 19 0
BBX 17 19 1 0
BITMAP
063000
0F7800
063000
000000
07F000
1C1C00
380E00
700700
700700
E00380
E00380
E00380
E00380
E00380
700700
700700
380E00
1C1C00
07F000
ENDCHAR
STARTCHAR multiply
ENCODING 215
SWIDTH 570 0
DWIDTH 14 0
BBX 12 12 1 1
BITMAP
4020
E070
70E0
39C0
1F80
0F00
0F00
1F80
39C0
70E0
E070
4020
ENDCHAR
STARTCHAR Oslash
ENCODING 216
SWIDTH 762 0
DWIDTH 19 0
BBX 17 17 1 0
BITMAP
07F200
1C1C00
380E00
701700
702700
E04380
E08380
E08380
E10380
E20380
E40380
E80380
700700
700700
380E00
5C1C00
87F000
ENDCHAR
STARTCHAR Ugrave
ENCODING 217
SWIDTH 791 0
DWIDTH 20 0
BBX 18 21 1 0
BITMAP
060000
070000
038000
00C000
002000
000000
FE1FC0
380700
380700
380700
380700
380700
380700
380700
380700
380700
380700
380700
180600
0C0C00
03F000
ENDCHAR
STARTCHAR Uacute
ENCODING 218
SWIDTH 791 0
DWIDTH 20 0
BBX 18 21 1 0
BITMAP
003000
007000
00E000
018000
020000
000000
FE1FC0
380700
380700
380700
380700
380700
380700
380700
380700
380700
380700
380700
180600
0C0C00
03F000
ENDCHAR
STARTCHAR Ucircumflex
ENCODING 219
SWIDTH 791 0
DWIDTH 20 0
BBX 18 20 1 0
BITMAP
00C000
01E000
033000
061800
000000
FE1FC0
380700
380700
380700
380700
380700
380700
380700
380700
380700
380700
380700
180600
0C0C00
03F000
ENDCHAR
STARTCHAR Udieresis
ENCODING 220
SWIDTH 791 0
DWIDTH 20 0
BBX 18 19 1 0
BITMAP
063000
0F7800
063000
000000
FE1FC0
380700
380700
380700
380700
380700
380700
380700
380700
380700
380700
380700
180600
0C0C00
03F000
ENDCHAR
STARTCHAR Yacute
ENCODING 221
SWIDTH 588 0
DWIDTH 16 0
BBX 16 21 0 0
BITMAP
0018
0038
0070
00C0
0100
0000
FE1F
3804
1C08
1C08
0E10
0720
0720
03C0
01C0
01C0
01C0
01C0
01C0
01C0
07F0
ENDCHAR
STARTCHAR Thorn
ENCODING 222
SWIDTH 593 0
DWIDTH 15 0
BBX 13 17 1 0
BITMAP
FE00
3800
3800
3800
3FC0
3870
3838
3838
3838
3838
3838
3870
3FC0
3800
3800
3800
FE00
ENDCHAR
STARTCHAR germandbls
ENCODING 223
SWIDTH 601 0
DWIDTH 17 0
BBX 15 19 1 0
BITMAP
07C0
0C60
1830
3830
3830
3870
38E0
39C0
39C0
39E0
38F0
3878
383C
381E
380E
380E
398E
399C
FEF0
ENDCHAR
STARTCHAR agrave
ENCODING 224
SWIDTH 523 0
DWIDTH 14 0
BBX 13 19 1 0
BITMAP
1800
1C00
0E00
0300
0080
0000
3F80
71C0
60E0
00E0
00E0
03E0
1EE0
70E0
E0E0
E0E0
E0E0
F1F8
3E60
ENDCHAR
STARTCHAR aacute
ENCODING 225
SWIDTH 523 0
DWIDTH 14 0
BBX 13 19 1 0
BITMAP
0180
0380
0700
0C00
1000
0000
3F80
71C0
60E0
00E0
00E0
03E0
1EE0
70E0
E0E0
E0E0
E0E0
F1F8
3E60
ENDCHAR
STARTCHAR acircumflex
ENCODING 226
SWIDTH 523 0
DWIDTH 14 0
BBX 13 18 1 0
BITMAP
0600
0F00
1980
30C0
0000
3F80
71C0
60E0
00E0
00E0
03E0
1EE0
70E0
E0E0
E0E0
E0E0
F1F8
3E60
ENDCHAR
STARTCHAR atilde
ENCODING 227
SWIDTH 523 0
DWIDTH 14 0
BBX 13 17 1 0
BITMAP
0C20
1FC0
2180
0000
3F80
71C0
60E0
00E0
00E0
03E0
1EE0
70E0
E0E0
E0E0
E0E0
F1F8
3E60
ENDCHAR
STARTCHAR adieresis
ENCODING 228
SWIDTH 523 0
DWIDTH 14 0
BBX 13 17 1 0
BITMAP
18C0
3DE0
18C0
0000
3F80
71C0
60E0
00E0
00E0
03E0
1EE0
70E0
E0E0
E0E0
E0E0
F1F8
3E60
ENDCHAR
STARTCHAR aring
ENCODING 229
SWIDTH 523 0
DWIDTH 14 0
BBX 13 19 1 0
BITMAP
0700
0D80
0880
0D80
0700
0000
3F80
71C0
60E0
00E0
00E0
03E0
1EE0
70E0
E0E0
E0E0
E0E0
F1F8
3E60
ENDCHAR
STARTCHAR ae
ENCODING 230
SWIDTH 797 0
DWIDTH 20 0
BBX 19 13 1 0
BITMAP
0F9F00
39F1C0
60F1C0
60E0E0
00E0E0
03FFE0
1EE000
70E000
E0E000
E0E000
E0F060
F1F0C0
7E1F00
ENDCHAR
STARTCHAR ccedilla
ENCODING 231
SWIDTH 496 0
DWIDTH 12 0
BBX 11 18 1 -5
BITMAP
1F80
71C0
70C0
E000
E000
E000
E000
E000
E000
E000
7060
70C0
1F00
0200
0600
0300
0300
0E00
ENDCHAR
STARTCHAR egrave
ENCODING 232
SWIDTH 514 0
DWIDTH 13 0
BBX 11 19 1 0
BITMAP
3000
3800
1C00
0600
0100
0000
1F00
71C0
71C0
E0E0
E0E0
FFE0
E000
E000
E000
E000
7060
70C0
1F00
ENDCHAR
STARTCHAR eacute
ENCODING 233
SWIDTH 514 0
DWIDTH 13 0
BBX 11 19 1 0
BITMAP
0180
0380
0700
0C00
1000
0000
1F00
71C0
71C0
E0E0
E0E0
FFE0
E000
E000
E000
E000
7060
70C0
1F00
ENDCHAR
STARTCHAR ecircumflex
ENCODING 234
SWIDTH 514 0
DWIDTH 13 0
BBX 11 18 1 0
BITMAP
0C00
1E00
3300
6180
0000
1F00
71C0
71C0
E0E0
E0E0
FFE0
E000
E000
E000
E000
7060
70C0
1F00
ENDCHAR
STARTCHAR edieresis
ENCODING 235
SWIDTH 514 0
DWIDTH 13 0
BBX 11 17 1 0
BITMAP
3180
7BC0
3180
0000
1F00
71C0
71C0
E0E0
E0E0
FFE0
E000
E000
E000
E000
7060
70C0
1F00
ENDCHAR
STARTCHAR igrave
ENCODING 236
SWIDTH 291 0
DWIDTH 7 0
BBX 7 19 0 0
BITMAP
C0
E0
70
18
04
00
18
78
38
38
38
38
38
38
38
38
38
38
FE
ENDCHAR
STARTCHAR iacute
ENCODING 237
SWIDTH 291 0
DWIDTH 7 0
BBX 7 19 0 0
BITMAP
0C
1C
38
60
80
00
18
78
38
38
38
38
38
38
38
38
38
38
FE
ENDCHAR
STARTCHAR icircumflex
ENCODING 238
SWIDTH 291 0
DWIDTH 7 0
BBX 8 18 0 0
BITMAP
18
3C
66
C3
00
18
78
38
38
38
38
38
38
38
38
38
38
FE
ENDCHAR
STARTCHAR idieresis
ENCODING 239
SWIDTH 291 0
DWIDTH 7 0
BBX 9 17 -1 0
BITMAP
6300
F780
6300
0000
0C00
3C00
1C00
1C00
1C00
1C00
1C00
1C00
1C00
1C00
1C00
1C00
7F00
ENDCHAR
STARTCHAR eth
ENCODING 240
SWIDTH 577 0
DWIDTH 14 0
BBX 12 19 1 0
BITMAP
1180
3B00
1E00
0E00
1B00
3180
1FC0
70E0
70E0
E070
E070
E070
E070
E070
E070
E070
70E0
70E0
1F80
ENDCHAR
STARTCHAR ntilde
ENCODING 241
SWIDTH 619 0
DWIDTH 15 0
BBX 16 17 0 0
BITMAP
0610
0FE0
10C0
0000
18F0
7B38
3C1C
381C
381C
381C
381C
381C
381C
381C
381C
381C
FE7F
ENDCHAR
STARTCHAR ograve
ENCODING 242
SWIDTH 577 0
DWIDTH 14 0
BBX 12 19 1 0
BITMAP
3000
3800
1C00
0600
0100
0000
1F80
70E0
70E0
E070
E070
E070
E070
E070
E070
E070
70E0
70E0
1F80
ENDCHAR
STARTCHAR oacute
ENCODING 243
SWIDTH 577 0
DWIDTH 14 0
BBX 12 19 1 0
BITMAP
0180
0380
0700
0C00
1000
0000
1F80
70E0
70E0
E070
E070
E070
E070
E070
E070
E070
70E0
70E0
1F80
ENDCHAR
STARTCHAR ocircumflex
ENCODING 244
SWIDTH 577 0
DWIDTH 14 0
BBX 12 18 1 0
BITMAP
0600
0F00
1980
30C0
0000
1F80
70E0
70E0
E070
E070
E070
E070
E070
E070
E070
70E0
70E0
1F80
ENDCHAR
STARTCHAR otilde
ENCODING 245
SWIDTH 577 0
DWIDTH 14 0
BBX 12 17 1 0
BITMAP
1840
3F80
4300
0000
1F80
70E0
70E0
E070
E070
E070
E070
E070
E070
E070
70E0
70E0
1F80
ENDCHAR
STARTCHAR odieresis
ENCODING 246
SWIDTH 577 0
DWIDTH 14 0
BBX 12 17 1 0
BITMAP
3180
7BC0
3180
0000
1F80
70E0
70E0
E070
E070
E070
E070
E070
E070
E070
70E0
70E0
1F80
ENDCHAR
STARTCHAR divide
ENCODING 247
SWIDTH 570 0
DWIDTH 14 0
BBX 12 12 1 0
BITMAP
0600
0F00
0600
0000
0000
FFF0
FFF0
0000
0000
0600
0F00
0600
ENDCHAR
STARTCHAR oslash
ENCODING 248
SWIDTH 577 0
DWIDTH 14 0
BBX 12 13 1 0
BITMAP
1FB0
70E0
70E0
E1F0
E370
E270
E470
EC70
F870
F070
70E0
70E0
DF80
ENDCHAR
STARTCHAR ugrave
ENCODING 249
SWIDTH 606 0
DWIDTH 15 0
BBX 14 19 1 0
BITMAP
1800
1C00
0E00
0300
0080
0000
3018
F078
7038
7038
7038
7038
7038
7038
7038
7038
7078
39B8
1E3C
ENDCHAR
STARTCHAR uacute
ENCODING 250
SWIDTH 606 0
DWIDTH 15 0
BBX 14 19 1 0
BITMAP
0060
00E0
01C0
0300
0400
0000
3018
F078
7038
7038
7038
7038
7038
7038
7038
7038
7078
39B8
1E3C
ENDCHAR
STARTCHAR ucircumflex
ENCODING 251
SWIDTH 606 0
DWIDTH 15 0
BBX 14 18 1 0
BITMAP
0300
0780
0CC0
1860
0000
3018
F078
7038
7038
7038
7038
7038
7038
7038
7038
7078
39B8
1E3C
ENDCHAR
STARTCHAR udieresis
ENCODING 252
SWIDTH 606 0
DWIDTH 15 0
BBX 14 17 1 0
BITMAP
18C0
3DE0
18C0
0000
3018
F078
7038
7038
7038
7038
7038
7038
7038
7038
7078
39B8
1E3C
ENDCHAR
STARTCHAR yacute
ENCODING 253
SWIDTH 506 0
DWIDTH 13 0
BBX 13 24 0 -5
BITMAP
0060
00E0
01C0
0300
0400
0000
F838
7010
7010
3820
3820
1C40
1C40
1C40
0E80
0E80
0700
0700
0600
0600
0400
CC00
F800
7000
ENDCHAR
STARTCHAR thorn
ENCODING 254
SWIDTH 606 0
DWIDTH 15 0
BBX 14 22 0 -5
BITMAP
1800
7800
3800
3800
3BE0
3C38
3838
381C
381C
381C
381C
381C
381C
381C
3838
3C38
3BE0
3800
3800
3800
3800
FE00
ENDCHAR
STARTCHAR ydieresis
ENCODING 255
SWIDTH 506 0
DWIDTH 13 0
BBX 13 22 0 -5
BITMAP
18C0
3DE0
18C0
0000
F838
7010
7010
3820
3820
1C40
1C40
1C40
0E80
0E80
0700
0700
0600
0600
0400
CC00
F800
7000
ENDCHAR
STARTCHAR Amacron
ENCODING 256
SWIDTH 635 0
DWIDTH 16 0
BBX 16 19 0 0
BITMAP
0FF0
0000
0180
0180
03C0
03C0
03C0
04E0
04E0
04E0
0870
0870
0FF0
1038
1038
3038
201C
201C
F87F
ENDCHAR
STARTCHAR amacron
ENCODING 257
SWIDTH 523 0
DWIDTH 14 0
BBX 13 15 1 0
BITMAP
3FC0
0000
3F80
71C0
60E0
00E0
00E0
03E0
1EE0
70E0
E0E0
E0E0
E0E0
F1F8
3E60
ENDCHAR
STARTCHAR Abreve
ENCODING 258
SWIDTH 635 0
DWIDTH 16 0
BBX 16 22 0 0
BITMAP
0810
0C30
07E0
03C0
0000
0180
0180
03C0
03C0
03C0
04E0
04E0
04E0
0870
0870
0FF0
1038
1038
3038
201C
201C
F87F
ENDCHAR
STARTCHAR abreve
ENCODING 259
SWIDTH 523 0
DWIDTH 14 0
BBX 13 18 1 0
BITMAP
2040
30C0
1F80
0F00
0000
3F80
71C0
60E0
00E0
00E0
03E0
1EE0
70E0
E0E0
E0E0
E0E0
F1F8
3E60
ENDCHAR
STARTCHAR Aogonek
ENCODING 260
SWIDTH 635 0
DWIDTH 16 0
BBX 16 22 0 -5
BITMAP
0180
0180
03C0
03C0
03C0
04E0
04E0
04E0
0870
0870
0FF0
1038
1038
3038
201C
201C
F87F
0040
0080
0180
0180
00E0
ENDCHAR
STARTCHAR aogonek
ENCODING 261
SWIDTH 523 0
DWIDTH 14 0
BBX 13 18 1 -5
BITMAP
3F80
71C0
60E0
00E0
00E0
03E0
1EE0
70E0
E0E0
E0E0
E0E0
F1F8
3E60
0200
0400
0C00
0C00
0700
ENDCHAR
STARTCHAR Cacute
ENCODING 262
SWIDTH 684 0
DWIDTH 17 0
BBX 15 23 1 0
BITMAP
0060
00E0
01C0
0300
0400
0000
07F8
1C0E
3806
7002
7000
E000
E000
E000
E000
E000
E000
E000
7000
7002
3806
1C0E
07F8
ENDCHAR
STARTCHAR cacute
ENCODING 263
SWIDTH 496 0
DWIDTH 12 0
BBX 11 19 1 0
BITMAP
0180
0380
0700
0C00
1000
0000
1F80
71C0
70C0
E000
E000
E000
E000
E000
E000
E000
7060
70C0
1F00
ENDCHAR
STARTCHAR Ccircumflex
ENCODING 264
SWIDTH 684 0
DWIDTH 17 0
BBX 15 22 1 0
BITMAP
0300
0780
0CC0
1860
0000
07F8
1C0E
3806
7002
7000
E000
E000
E000
E000
E000
E000
E000
7000
7002
3806
1C0E
07F8
ENDCHAR
STARTCHAR ccircumflex
ENCODING 265
SWIDTH 496 0
DWIDTH 12 0
BBX 11 18 1 0
BITMAP
0C00
1E00
3300
6180
0000
1F80
71C0
70C0
E000
E000
E000
E000
E000
E000
E000
7060
70C0
1F00
ENDCHAR
STARTCHAR Cdotaccent
ENCODING 266
SWIDTH 684 0
DWIDTH 17 0
BBX 15 21 1 0
BITMAP
0300
0780
0300
0000
07F8
1C0E
3806
7002
7000
E000
E000
E000
E000
E000
E000
E000
7000
7002
3806
1C0E
07F8
ENDCHAR
STARTCHAR cdotaccent
ENCODING 267
SWIDTH 496 0
DWIDTH 12 0
BBX 11 17 1 0
BITMAP
0C00
1E00
0C00
0000
1F80
71C0
70C0
E000
E000
E000
E000
E000
E000
E000
7060
70C0
1F00
ENDCHAR
STARTCHAR Ccaron
ENCODING 268
SWIDTH 684 0
DWIDTH 17 0
BBX 15 22 1 0
BITMAP
1860
0CC0
0780
0300
0000
07F8
1C0E
3806
7002
7000
E000
E000
E000
E000
E000
E000
E000
7000
7002
3806
1C0E
07F8
ENDCHAR
STARTCHAR ccaron
ENCODING 269
SWIDTH 496 0
DWIDTH 12 0
BBX 11 18 1 0
BITMAP
6180
3300
1E00
0C00
0000
1F80
71C0
70C0
E000
E000
E000
E000
E000
E000
E000
7060
70C0
1F00
ENDCHAR
STARTCHAR Dcaron
ENCODING 270
SWIDTH 779 0
DWIDTH 19 0
BBX 17 22 1 0
BITMAP
0C3000
066000
03C000
018000
000000
FFF000
381C00
380E00
380700
380700
380380
380380
380380
380380
380380
380380
380380
380700
380700
380E00
381C00
FFF000
ENDCHAR
STARTCHAR dcaron
ENCODING 271
SWIDTH 846 0
DWIDTH 21 0
BBX 18 19 1 0
BITMAP
003000
00F000
007180
0073C0
0071C0
007180
1F7100
70F200
707000
E07000
E07000
E07000
E07000
E07000
E07000
E07000
707000
70F000
1F3800
ENDCHAR
STARTCHAR Dcroat
ENCODING 272
SWIDTH 785 0
DWIDTH 19 0
BBX 17 17 1 0
BITMAP
FFF000
381C00
380E00
380700
380700
380380
380380
380380
FF0380
380380
380380
380380
380700
380700
380E00
381C00
FFF000
ENDCHAR
STARTCHAR dcroat
ENCODING 273
SWIDTH 598 0
DWIDTH 15 0
BBX 13 19 1 0
BITMAP
0030
00F0
0070
0070
0070
03F8
1F70
70F0
7070
E070
E070
E070
E070
E070
E070
E070
7070
70F0
1F38
ENDCHAR
STARTCHAR Emacron
ENCODING 274
SWIDTH 606 0
DWIDTH 15 0
BBX 13 19 1 0
BITMAP
3FC0
0000
FFF0
3830
3810
3810
3800
3800
3820
3820
3FE0
3820
3820
3800
3800
3808
3808
3818
FFF8
ENDCHAR
STARTCHAR emacron
ENCODING 275
SWIDTH 514 0
DWIDTH 13 0
BBX 11 15 1 0
BITMAP
3FC0
0000
1F00
71C0
71C0
E0E0
E0E0
FFE0
E000
E000
E000
E000
7060
70C0
1F00
ENDCHAR
STARTCHAR Ebreve
ENCODING 276
SWIDTH 606 0
DWIDTH 15 0
BBX 13 22 1 0
BITMAP
2040
30C0
1F80
0F00
0000
FFF0
3830
3810
3810
3800
3800
3820
3820
3FE0
3820
3820
3800
3800
3808
3808
3818
FFF8
ENDCHAR
STARTCHAR ebreve
ENCODING 277
SWIDTH 514 0
DWIDTH 13 0
BBX 11 18 1 0
BITMAP
2040
30C0
1F80
0F00
0000
1F00
71C0
71C0
E0E0
E0E0
FFE0
E000
E000
E000
E000
7060
70C0
1F00
ENDCHAR
STARTCHAR Edotaccent
ENCODING 278
SWIDTH 606 0
DWIDTH 15 0
BBX 13 21 1 0
BITMAP
0600
0F00
0600
0000
FFF0
3830
3810
3810
3800
3800
3820
3820
3FE0
3820
3820
3800
3800
3808
3808
3818
FFF8
ENDCHAR
STARTCHAR edotaccent
ENCODING 279
SWIDTH 514 0
DWIDTH 13 0
BBX 11 17 1 0
BITMAP
0600
0F00
0600
0000
1F00
71C0
71C0
E0E0
E0E0
FFE0
E000
E000
E000
E000
7060
70C0
1F00
ENDCHAR
STARTCHAR Eogonek
ENCODING 280
SWIDTH 606 0
DWIDTH 15 0
BBX 13 22 1 -5
BITMAP
FFF0
3830
3810
3810
3800
3800
3820
3820
3FE0
3820
3820
3800
3800
3808
3808
3818
FFF8
0200
0400
0C00
0C00
0700
ENDCHAR
STARTCHAR eogonek
ENCODING 281
SWIDTH 514 0
DWIDTH 13 0
BBX 11 18 1 -5
BITMAP
1F00
71C0
71C0
E0E0
E0E0
FFE0
E000
E000
E000
E000
7060
70C0
1F00
0400
0800
1800
1800
0E00
ENDCHAR
STARTCHAR Ecaron
ENCODING 282
SWIDTH 606 0
DWIDTH 15 0
BBX 13 22 1 0
BITMAP
30C0
1980
0F00
0600
0000
FFF0
3830
3810
3810
3800
3800
3820
3820
3FE0
3820
3820
3800
3800
3808
3808
3818
FFF8
ENDCHAR
STARTCHAR ecaron
ENCODING 283
SWIDTH 514 0
DWIDTH 13 0
BBX 11 18 1 0
BITMAP
30C0
1980
0F00
0600
0000
1F00
71C0
71C0
E0E0
E0E0
FFE0
E000
E000
E000
E000
7060
70C0
1F00
ENDCHAR
STARTCHAR Gcircumflex
ENCODING 284
SWIDTH 734 0
DWIDTH 18 0
BBX 17 22 1 0
BITMAP
018000
03C000
066000
0C3000
000000
07F800
1C0E00
380600
700200
700000
E00000
E00000
E00000
E00000
E00000
E01F80
E00700
700700
700700
380700
1C0F00
07F800
ENDCHAR
STARTCHAR gcircumflex
ENCODING 285
SWIDTH 520 0
DWIDTH 13 0
BBX 13 23 0 -5
BITMAP
0300
0780
0CC0
1860
0000
0F98
38F8
7060
7070
7070
7070
38E0
0F80
1800
3800
3F00
1FE0
33F0
6078
E038
E038
7070
1FC0
ENDCHAR
STARTCHAR Gbreve
ENCODING 286
SWIDTH 734 0
DWIDTH 18 0
BBX 17 22 1 0
BITMAP
081000
0C3000
07E000
03C000
000000
07F800
1C0E00
380600
700200
700000
E00000
E00000
E00000
E00000
E00000
E01F80
E00700
700700
700700
380700
1C0F00
07F800
ENDCHAR
STARTCHAR gbreve
ENCODING 287
SWIDTH 520 0
DWIDTH 13 0
BBX 13 23 0 -5
BITMAP
1020
1860
0FC0
0780
0000
0F98
38F8
7060
7070
7070
7070
38E0
0F80
1800
3800
3F00
1FE0
33F0
6078
E038
E038
7070
1FC0
ENDCHAR
STARTCHAR Gdotaccent
ENCODING 288
SWIDTH 734 0
DWIDTH 18 0
BBX 17 21 1 0
BITMAP
018000
03C000
018000
000000
07F800
1C0E00
380600
700200
700000
E00000
E00000
E00000
E00000
E00000
E01F80
E00700
700700
700700
380700
1C0F00
07F800
ENDCHAR
STARTCHAR gdotaccent
ENCODING 289
SWIDTH 520 0
DWIDTH 13 0
BBX 13 22 0 -5
BITMAP
0300
0780
0300
0000
0F98
38F8
7060
7070
7070
7070
38E0
0F80
1800
3800
3F00
1FE0
33F0
6078
E038
E038
7070
1FC0
ENDCHAR
STARTCHAR Gcommaaccent
ENCODING 290
SWIDTH 734 0
DWIDTH 18 0
BBX 17 24 1 -7
BITMAP
07F800
1C0E00
380600
700200
700000
E00000
E00000
E00000
E00000
E00000
E01F80
E00700
700700
700700
380700
1C0F00
07F800
000000
00C000
01E000
00E000
004000
008000
010000
ENDCHAR
STARTCHAR gcommaaccent
ENCODING 291
SWIDTH 520 0
DWIDTH 13 0
BBX 13 25 0 -5
BITMAP
0080
0100
0300
0700
0780
0300
0000
0F98
38F8
7060
7070
7070
7070
38E0
0F80
1800
3800
3F00
1FE0
33F0
6078
E038
E038
7070
1FC0
ENDCHAR
STARTCHAR Hcircumflex
ENCODING 292
SWIDTH 798 0
DWIDTH 20 0
BBX 18 22 1 0
BITMAP
00C000
01E000
033000
061800
000000
FE1FC0
380700
380700
380700
380700
380700
380700
380700
3FFF00
380700
380700
380700
380700
380700
380700
380700
FE1FC0
ENDCHAR
STARTCHAR hcircumflex
ENCODING 293
SWIDTH 607 0
DWIDTH 16 0
BBX 16 24 0 0
BITMAP
0C00
1E00
3300
6180
0000
1800
7800
3800
3800
3800
3800
38F8
3B3C
3C1C
381C
381C
381C
381C
381C
381C
381C
381C
381C
FE7F
ENDCHAR
STARTCHAR Hbar
ENCODING 294
SWIDTH 798 0
DWIDTH 20 0
BBX 18 17 1 0
BITMAP
FE1FC0
380700
380700
380700
FFFFC0
380700
380700
380700
3FFF00
380700
380700
380700
380700
380700
380700
380700
FE1FC0
ENDCHAR
STARTCHAR hbar
ENCODING 295
SWIDTH 607 0
DWIDTH 16 0
BBX 16 19 0 0
BITMAP
1800
7800
3800
3800
3800
7F00
38F8
3B3C
3C1C
381C
381C
381C
381C
381C
381C
381C
381C
381C
FE7F
ENDCHAR
STARTCHAR Itilde
ENCODING 296
SWIDTH 349 0
DWIDTH 9 0
BBX 9 21 0 0
BITMAP
3080
7F00
8600
0000
7F00
1C00
1C00
1C00
1C00
1C00
1C00
1C00
1C00
1C00
1C00
1C00
1C00
1C00
1C00
1C00
7F00
ENDCHAR
STARTCHAR itilde
ENCODING 297
SWIDTH 291 0
DWIDTH 7 0
BBX 9 17 -1 0
BITMAP
3080
7F00
8600
0000
0C00
3C00
1C00
1C00
1C00
1C00
1C00
1C00
1C00
1C00
1C00
1C00
7F00
ENDCHAR
STARTCHAR Imacron
ENCODING 298
SWIDTH 349 0
DWIDTH 9 0
BBX 8 19 1 0
BITMAP
FF
00
FE
38
38
38
38
38
38
38
38
38
38
38
38
38
38
38
FE
ENDCHAR
STARTCHAR imacron
ENCODING 299
SWIDTH 291 0
DWIDTH 7 0
BBX 8 15 -1 0
BITMAP
FF
00
0C
3C
1C
1C
1C
1C
1C
1C
1C
1C
1C
1C
7F
ENDCHAR
STARTCHAR Ibreve
ENCODING 300
SWIDTH 349 0
DWIDTH 9 0
BBX 8 22 1 0
BITMAP
81
C3
7E
3C
00
FE
38
38
38
38
38
38
38
38
38
38
38
38
38
38
38
FE
ENDCHAR
STARTCHAR ibreve
ENCODING 301
SWIDTH 291 0
DWIDTH 7 0
BBX 8 18 -1 0
BITMAP
81
C3
7E
3C
00
0C
3C
1C
1C
1C
1C
1C
1C
1C
1C
1C
1C
7F
ENDCHAR
STARTCHAR Iogonek
ENCODING 302
SWIDTH 349 0
DWIDTH 9 0
BBX 7 22 1 -5
BITMAP
FE
38
38
38
38
38
38
38
38
38
38
38
38
38
38
38
FE
08
10
30
30
1C
ENDCHAR
STARTCHAR iogonek
ENCODING 303
SWIDTH 291 0
DWIDTH 7 0
BBX 7 22 0 -5
BITMAP
30
78
30
00
18
78
38
38
38
38
38
38
38
38
38
38
FE
08
10
30
30
1C
ENDCHAR
STARTCHAR Idotaccent
ENCODING 304
SWIDTH 349 0
DWIDTH 9 0
BBX 7 21 1 0
BITMAP
18
3C
18
00
FE
38
38
38
38
38
38
38
38
38
38
38
38
38
38
38
FE
ENDCHAR
STARTCHAR dotlessi
ENCODING 305
SWIDTH 291 0
DWIDTH 7 0
BBX 7 13 0 0
BITMAP
18
78
38
38
38
38
38
38
38
38
38
38
FE
ENDCHAR
STARTCHAR IJ
ENCODING 306
SWIDTH 682 0
DWIDTH 18 0
BBX 16 20 1 -3
BITMAP
FE7F
381C
381C
381C
381C
381C
381C
381C
381C
381C
381C
381C
381C
381C
381C
381C
FE1C
0018
0030
00C0
ENDCHAR
STARTCHAR ij
ENCODING 307
SWIDTH 556 0
DWIDTH 14 0
BBX 12 22 0 -5
BITMAP
3060
78F0
3060
0000
1830
78F0
3870
3870
3870
3870
3870
3870
3870
3870
3870
3870
FE70
0070
0070
0060
00E0
0380
ENDCHAR
STARTCHAR Jcircumflex
ENCODING 308
SWIDTH 350 0
DWIDTH 9 0
BBX 8 25 0 -3
BITMAP
18
3C
66
C3
00
7F
1C
1C
1C
1C
1C
1C
1C
1C
1C
1C
1C
1C
1C
1C
1C
1C
18
30
C0
ENDCHAR
STARTCHAR jcircumflex
ENCODING 309
SWIDTH 280 0
DWIDTH 7 0
BBX 8 23 -1 -5
BITMAP
18
3C
66
C3
00
0C
3C
1C
1C
1C
1C
1C
1C
1C
1C
1C
1C
1C
1C
1C
18
38
E0
ENDCHAR
STARTCHAR Kcommaaccent
ENCODING 310
SWIDTH 658 0
DWIDTH 17 0
BBX 16 24 1 -7
BITMAP
FE3F
381C
3830
3860
38C0
3980
3B00
3F00
3B80
39C0
39E0
38E0
3870
3878
383C
381E
FE0F
0000
0180
03C0
01C0
0080
0100
0200
ENDCHAR
STARTCHAR kcommaaccent
ENCODING 311
SWIDTH 524 0
DWIDTH 13 0
BBX 14 26 0 -7
BITMAP
1800
7800
3800
3800
3800
3800
3878
38F0
39C0
3980
3B00
3E00
3F00
3B80
39C0
39E0
38F0
3878
FE3C
0000
0300
0780
0380
0100
0200
0400
ENDCHAR
STARTCHAR kgreenlandic
ENCODING 312
SWIDTH 524 0
DWIDTH 13 0
BBX 14 12 0 0
BITMAP
38F0
39C0
3980
3B00
3E00
3F00
3B80
39C0
39E0
38F0
3878
FE3C
ENDCHAR
STARTCHAR Lacute
ENCODING 313
SWIDTH 568 0
DWIDTH 15 0
BBX 13 23 1 0
BITMAP
0180
0380
0700
0C00
1000
0000
FE00
3800
3800
3800
3800
3800
3800
3800
3800
3800
3800
3800
3800
3808
3808
3818
FFF8
ENDCHAR
STARTCHAR lacute
ENCODING 314
SWIDTH 279 0
DWIDTH 7 0
BBX 7 25 0 0
BITMAP
06
0E
1C
30
40
00
18
78
38
38
38
38
38
38
38
38
38
38
38
38
38
38
38
38
FE
ENDCHAR
STARTCHAR Lcommaaccent
ENCODING 315
SWIDTH 568 0
DWIDTH 15 0
BBX 13 24 1 -7
BITMAP
FE00
3800
3800
3800
3800
3800
3800
3800
3800
3800
3800
3800
3800
3808
3808
3818
FFF8
0000
0600
0F00
0700
0200
0400
0800
ENDCHAR
STARTCHAR lcommaaccent
ENCODING 316
SWIDTH 279 0
DWIDTH 7 0
BBX 7 26 0 -7
BITMAP
18
78
38
38
38
38
38
38
38
38
38
38
38
38
38
38
38
38
FE
00
18
3C
1C
08
10
20
ENDCHAR
STARTCHAR Lcaron
ENCODING 317
SWIDTH 818 0
DWIDTH 21 0
BBX 18 17 1 0
BITMAP
FE0180
3803C0
3801C0
380180
380100
380200
380000
380000
380000
380000
380000
380000
380000
380800
380800
381800
FFF800
ENDCHAR
STARTCHAR lcaron
ENCODING 318
SWIDTH 543 0
DWIDTH 14 0
BBX 12 19 0 0
BITMAP
1800
7800
3860
38F0
3870
3860
3840
3880
3800
3800
3800
3800
3800
3800
3800
3800
3800
3800
FE00
ENDCHAR
STARTCHAR Ldot
ENCODING 319
SWIDTH 805 0
DWIDTH 21 0
BBX 18 17 1 0
BITMAP
FE0000
380000
380000
380000
380000
380000
380000
380000
380000
380180
3803C0
380180
380000
380800
380800
381800
FFF800
ENDCHAR
STARTCHAR ldot
ENCODING 320
SWIDTH 530 0
DWIDTH 14 0
BBX 12 19 0 0
BITMAP
1800
7800
3800
3800
3800
3800
3800
3800
3800
3800
3800
3860
38F0
3860
3800
3800
3800
3800
FE00
ENDCHAR
STARTCHAR Lslash
ENCODING 321
SWIDTH 574 0
DWIDTH 15 0
BBX 13 17 1 0
BITMAP
FE00
3800
3800
3800
3800
3900
3A00
3C00
3800
3800
7800
B800
3800
3808
3808
3818
FFF8
ENDCHAR
STARTCHAR lslash
ENCODING 322
SWIDTH 294 0
DWIDTH 7 0
BBX 7 19 0 0
BITMAP
18
78
38
38
38
38
3A
3C
38
38
78
B8
38
38
38
38
38
38
FE
ENDCHAR
STARTCHAR Nacute
ENCODING 323
SWIDTH 780 0
DWIDTH 19 0
BBX 17 23 1 0
BITMAP
003000
007000
00E000
018000
020000
000000
F01F80
380600
3C0200
3C0200
2E0200
270200
278200
238200
21C200
21E200
20E200
207200
203A00
203E00
201E00
300E00
FC0600
ENDCHAR
STARTCHAR nacute
ENCODING 324
SWIDTH 619 0
DWIDTH 15 0
BBX 16 19 0 0
BITMAP
0030
0070
00E0
0180
0200
0000
18F0
7B38
3C1C
381C
381C
381C
381C
381C
381C
381C
381C
381C
FE7F
ENDCHAR
STARTCHAR Ncommaaccent
ENCODING 325
SWIDTH 780 0
DWIDTH 19 0
BBX 17 24 1 -7
BITMAP
F01F80
380600
3C0200
3C0200
2E0200
270200
278200
238200
21C200
21E200
20E200
207200
203A00
203E00
201E00
300E00
FC0600
000000
00C000
01E000
00E000
004000
008000
010000
ENDCHAR
STARTCHAR ncommaaccent
ENCODING 326
SWIDTH 619 0
DWIDTH 15 0
BBX 16 20 0 -7
BITMAP
18F0
7B38
3C1C
381C
381C
381C
381C
381C
381C
381C
381C
381C
FE7F
0000
0180
03C0
01C0
0080
0100
0200
ENDCHAR
STARTCHAR Ncaron
ENCODING 327
SWIDTH 780 0
DWIDTH 19 0
BBX 17 22 1 0
BITMAP
0C3000
066000
03C000
018000
000000
F01F80
380600
3C0200
3C0200
2E0200
270200
278200
238200
21C200
21E200
20E200
207200
203A00
203E00
201E00
300E00
FC0600
ENDCHAR
STARTCHAR ncaron
ENCODING 328
SWIDTH 619 0
DWIDTH 15 0
BBX 16 18 0 0
BITMAP
0C30
0660
03C0
0180
0000
18F0
7B38
3C1C
381C
381C
381C
381C
381C
381C
381C
381C
381C
FE7F
ENDCHAR
STARTCHAR napostrophe
ENCODING 329
SWIDTH 883 0
DWIDTH 22 0
BBX 22 17 1 0
BITMAP
600000
F00000
700000
600000
4063C0
81ECE0
00F070
00E070
00E070
00E070
00E070
00E070
00E070
00E070
00E070
00E070
03F9FC
ENDCHAR
STARTCHAR Eng
ENCODING 330
SWIDTH 780 0
DWIDTH 19 0
BBX 17 22 1 -5
BITMAP
F01F80
380600
3C0200
3C0200
2E0200
270200
278200
238200
21C200
21E200
20E200
207200
203E00
203E00
201E00
300E00
FC0E00
000E00
000E00
000C00
001C00
007000
ENDCHAR
STARTCHAR eng
ENCODING 331
SWIDTH 619 0
DWIDTH 15 0
BBX 14 18 0 -5
BITMAP
18F0
7B38
3C1C
381C
381C
381C
381C
381C
381C
381C
381C
381C
FE1C
001C
001C
0018
0038
00E0
ENDCHAR
STARTCHAR Omacron
ENCODING 332
SWIDTH 762 0
DWIDTH 19 0
BBX 17 19 1 0
BITMAP
07F800
000000
07F000
1C1C00
380E00
700700
700700
E00380
E00380
E00380
E00380
E00380
E00380
E00380
700700
700700
380E00
1C1C00
07F000
ENDCHAR
STARTCHAR omacron
ENCODING 333
SWIDTH 577 0
DWIDTH 14 0
BBX 12 15 1 0
BITMAP
3FC0
0000
1F80
70E0
70E0
E070
E070
E070
E070
E070
E070
E070
70E0
70E0
1F80
ENDCHAR
STARTCHAR Obreve
ENCODING 334
SWIDTH 762 0
DWIDTH 19 0
BBX 17 22 1 0
BITMAP
040800
061800
03F000
01E000
000000
07F000
1C1C00
380E00
700700
700700
E00380
E00380
E00380
E00380
E00380
E00380
E00380
700700
700700
380E00
1C1C00
07F000
ENDCHAR
STARTCHAR obreve
ENCODING 335
SWIDTH 577 0
DWIDTH 14 0
BBX 12 18 1 0
BITMAP
2040
30C0
1F80
0F00
0000
1F80
70E0
70E0
E070
E070
E070
E070
E070
E070
E070
70E0
70E0
1F80
ENDCHAR
STARTCHAR Ohungarumlaut
ENCODING 336
SWIDTH 762 0
DWIDTH 19 0
BBX 17 23 1 0
BITMAP
033000
033000
066000
066000
044000
000000
07F000
1C1C00
380E00
700700
700700
E00380
E00380
E00380
E00380
E00380
E00380
E00380
700700
700700
380E00
1C1C00
07F000
ENDCHAR
STARTCHAR ohungarumlaut
ENCODING 337
SWIDTH 577 0
DWIDTH 14 0
BBX 12 19 1 0
BITMAP
0CC0
0CC0
1980
1980
1100
0000
1F80
70E0
70E0
E070
E070
E070
E070
E070
E070
E070
70E0
70E0
1F80
ENDCHAR
STARTCHAR OE
ENCODING 338
SWIDTH 1025 0
DWIDTH 26 0
BBX 24 17 1 0
BITMAP
07FFFF
1C0F03
380701
700701
700700
E00700
E00704
E00704
E007FC
E00704
E00704
E00700
700700
700701
380701
1C0F03
07FFFF
ENDCHAR
STARTCHAR oe
ENCODING 339
SWIDTH 882 0
DWIDTH 22 0
BBX 20 13 1 0
BITMAP
1F8F80
70F8E0
70F8E0
E07070
E07070
E07FF0
E07000
E07000
E07000
E07000
70F830
70F860
1F8F80
ENDCHAR
STARTCHAR Racute
ENCODING 340
SWIDTH 644 0
DWIDTH 16 0
BBX 15 23 1 0
BITMAP
0060
00E0
01C0
0300
0400
0000
FFC0
3870
3838
3838
3838
3838
3830
3860
3FC0
38E0
3870
3870
3870
3838
3838
3838
FE1E
ENDCHAR
STARTCHAR racute
ENCODING 341
SWIDTH 389 0
DWIDTH 10 0
BBX 10 19 0 0
BITMAP
0180
0380
0700
0C00
1000
0000
1980
7BC0
3D80
3800
3800
3800
3800
3800
3800
3800
3800
3800
FE00
ENDCHAR
STARTCHAR Rcommaaccent
ENCODING 342
SWIDTH 644 0
DWIDTH 16 0
BBX 15 24 1 -7
BITMAP
FFC0
3870
3838
3838
3838
3838
3830
3860
3FC0
38E0
3870
3870
3870
3838
3838
3838
FE1E
0000
0300
0780
0380
0100
0200
0400
ENDCHAR
STARTCHAR rcommaaccent
ENCODING 343
SWIDTH 389 0
DWIDTH 10 0
BBX 10 20 0 -7
BITMAP
1980
7BC0
3D80
3800
3800
3800
3800
3800
3800
3800
3800
3800
FE00
0000
1800
3C00
1C00
0800
1000
2000
ENDCHAR
STARTCHAR Rcaron
ENCODING 344
SWIDTH 644 0
DWIDTH 16 0
BBX 15 22 1 0
BITMAP
1860
0CC0
0780
0300
0000
FFC0
3870
3838
3838
3838
3838
3830
3860
3FC0
38E0
3870
3870
3870
3838
3838
3838
FE1E
ENDCHAR
STARTCHAR rcaron
ENCODING 345
SWIDTH 389 0
DWIDTH 10 0
BBX 10 18 0 0
BITMAP
6180
3300
1E00
0C00
0000
1980
7BC0
3D80
3800
3800
3800
3800
3800
3800
3800
3800
3800
FE00
ENDCHAR
STARTCHAR Sacute
ENCODING 346
SWIDTH 541 0
DWIDTH 14 0
BBX 12 23 1 0
BITMAP
0180
0380
0700
0C00
1000
0000
1F80
70E0
C060
C020
C000
E000
F800
7F00
1FC0
07E0
00F0
0070
0030
8030
C030
E0E0
3F80
ENDCHAR
STARTCHAR sacute
ENCODING 347
SWIDTH 436 0
DWIDTH 11 0
BBX 9 19 1 0
BITMAP
0300
0700
0E00
1800
2000
0000
3F00
6300
C100
C000
E000
F800
7F00
0F80
0380
8180
C180
E300
7E00
ENDCHAR
STARTCHAR Scircumflex
ENCODING 348
SWIDTH 541 0
DWIDTH 14 0
BBX 12 22 1 0
BITMAP
0C00
1E00
3300
6180
0000
1F80
70E0
C060
C020
C000
E000
F800
7F00
1FC0
07E0
00F0
0070
0030
8030
C030
E0E0
3F80
ENDCHAR
STARTCHAR scircumflex
ENCODING 349
SWIDTH 436 0
DWIDTH 11 0
BBX 9 18 1 0
BITMAP
1800
3C00
6600
C300
0000
3F00
6300
C100
C000
E000
F800
7F00
0F80
0380
8180
C180
E300
7E00
ENDCHAR
STARTCHAR Scedilla
ENCODING 350
SWIDTH 541 0
DWIDTH 14 0
BBX 12 22 1 -5
BITMAP
1F80
70E0
C060
C020
C000
E000
F800
7F00
1FC0
07E0
00F0
0070
0030
8030
C030
E0E0
3F80
0200
0600
0300
0300
0E00
ENDCHAR
STARTCHAR scedilla
ENCODING 351
SWIDTH 436 0
DWIDTH 11 0
BBX 9 18 1 -5
BITMAP
3F00
6300
C100
C000
E000
F800
7F00
0F80
0380
8180
C180
E300
7E00
0800
1800
0C00
0C00
3800
ENDCHAR
STARTCHAR Scaron
ENCODING 352
SWIDTH 541 0
DWIDTH 14 0
BBX 12 20 1 0
BITMAP
30C0
1980
0F00
0600
0000
1F80
60E0
C060
C020
E000
F800
7F00
1FC0
07E0
00F0
0070
8030
C030
E060
3F80
ENDCHAR
STARTCHAR scaron
ENCODING 353
SWIDTH 436 0
DWIDTH 11 0
BBX 9 18 1 0
BITMAP
C300
6600
3C00
1800
0000
3F00
6300
C100
C000
E000
F800
7F00
0F80
0380
8180
C180
E300
7E00
ENDCHAR
STARTCHAR Tcommaaccent
ENCODING 354
SWIDTH 621 0
DWIDTH 15 0
BBX 15 22 0 -5
BITMAP
FFFE
C386
8382
8382
0380
0380
0380
0380
0380
0380
0380
0380
0380
0380
0380
0380
0FE0
0100
0300
0180
0180
0700
ENDCHAR
STARTCHAR tcommaaccent
ENCODING 355
SWIDTH 344 0
DWIDTH 9 0
BBX 8 21 0 -5
BITMAP
08
18
38
FF
38
38
38
38
38
38
38
38
38
38
39
1E
08
18
0C
0C
38
ENDCHAR
STARTCHAR Tcaron
ENCODING 356
SWIDTH 621 0
DWIDTH 15 0
BBX 15 22 0 0
BITMAP
0C30
0660
03C0
0180
0000
FFFE
C386
8382
8382
0380
0380
0380
0380
0380
0380
0380
0380
0380
0380
0380
0380
0FE0
ENDCHAR
STARTCHAR tcaron
ENCODING 357
SWIDTH 605 0
DWIDTH 16 0
BBX 14 17 0 0
BITMAP
0018
083C
181C
3818
FF10
3820
3800
3800
3800
3800
3800
3800
3800
3800
3800
3900
1E00
ENDCHAR
STARTCHAR Tbar
ENCODING 358
SWIDTH 621 0
DWIDTH 15 0
BBX 15 17 0 0
BITMAP
FFFE
C386
8382
8382
0380
0380
0380
0380
0FE0
0380
0380
0380
0380
0380
0380
0380
0FE0
ENDCHAR
STARTCHAR tbar
ENCODING 359
SWIDTH 344 0
DWIDTH 9 0
BBX 8 16 0 0
BITMAP
08
18
38
FF
38
38
38
38
38
7F
38
38
38
38
39
1E
ENDCHAR
STARTCHAR Utilde
ENCODING 360
SWIDTH 791 0
DWIDTH 20 0
BBX 18 21 1 0
BITMAP
018400
03F800
043000
000000
FE1FC0
380700
380700
380700
380700
380700
380700
380700
380700
380700
380700
380700
380700
380700
180600
0C0C00
03F000
ENDCHAR
STARTCHAR utilde
ENCODING 361
SWIDTH 606 0
DWIDTH 15 0
BBX 14 17 0 0
BITMAP
0610
0FE0
10C0
0000
3018
F078
7038
7038
7038
7038
7038
7038
7038
7038
7078
39B8
1E3C
ENDCHAR
STARTCHAR Umacron
ENCODING 362
SWIDTH 791 0
DWIDTH 20 0
BBX 18 19 1 0
BITMAP
07F800
000000
FE1FC0
380700
380700
380700
380700
380700
380700
380700
380700
380700
380700
380700
380700
380700
180600
0C0C00
03F000
ENDCHAR
STARTCHAR umacron
ENCODING 363
SWIDTH 606 0
DWIDTH 15 0
BBX 14 15 0 0
BITMAP
1FE0
0000
3018
F078
7038
7038
7038
7038
7038
7038
7038
7038
7078
39B8
1E3C
ENDCHAR
STARTCHAR Ubreve
ENCODING 364
SWIDTH 791 0
DWIDTH 20 0
BBX 18 22 1 0
BITMAP
040800
061800
03F000
01E000
000000
FE1FC0
380700
380700
380700
380700
380700
380700
380700
380700
380700
380700
380700
380700
380700
180600
0C0C00
03F000
ENDCHAR
STARTCHAR ubreve
ENCODING 365
SWIDTH 606 0
DWIDTH 15 0
BBX 14 18 0 0
BITMAP
1020
1860
0FC0
0780
0000
3018
F078
7038
7038
7038
7038
7038
7038
7038
7038
7078
39B8
1E3C
ENDCHAR
STARTCHAR Uring
ENCODING 366
SWIDTH 791 0
DWIDTH 20 0
BBX 18 23 1 0
BITMAP
00E000
01B000
011000
01B000
00E000
000000
FE1FC0
380700
380700
380700
380700
380700
380700
380700
380700
380700
380700
380700
380700
380700
180600
0C0C00
03F000
ENDCHAR
STARTCHAR uring
ENCODING 367
SWIDTH 606 0
DWIDTH 15 0
BBX 14 19 0 0
BITMAP
0700
0D80
0880
0D80
0700
0000
3018
F078
7038
7038
7038
7038
7038
7038
7038
7038
7078
39B8
1E3C
ENDCHAR
STARTCHAR Uhungarumlaut
ENCODING 368
SWIDTH 791 0
DWIDTH 20 0
BBX 18 23 1 0
BITMAP
019800
019800
033000
033000
022000
000000
FE1FC0
380700
380700
380700
380700
380700
380700
380700
380700
380700
380700
380700
380700
380700
180600
0C0C00
03F000
ENDCHAR
STARTCHAR uhungarumlaut
ENCODING 369
SWIDTH 606 0
DWIDTH 15 0
BBX 14 19 0 0
BITMAP
0660
0660
0CC0
0CC0
0880
0000
3018
F078
7038
7038
7038
7038
7038
7038
7038
7038
7078
39B8
1E3C
ENDCHAR
STARTCHAR Uogonek
ENCODING 370
SWIDTH 791 0
DWIDTH 20 0
BBX 18 22 1 -5
BITMAP
FE1FC0
380700
380700
380700
380700
380700
380700
380700
380700
380700
380700
380700
380700
380700
180600
0C0C00
03F000
004000
008000
018000
018000
00E000
ENDCHAR
STARTCHAR uogonek
ENCODING 371
SWIDTH 606 0
DWIDTH 15 0
BBX 14 18 0 -5
BITMAP
3018
F078
7038
7038
7038
7038
7038
7038
7038
7038
7078
39B8
1E3C
0100
0200
0600
0600
0380
ENDCHAR
STARTCHAR Wcircumflex
ENCODING 372
SWIDTH 940 0
DWIDTH 24 0
BBX 24 22 0 0
BITMAP
003000
007800
00CC00
018600
000000
FE0C1F
380C04
381E04
381E04
1C1608
1C1608
1C2708
1C2708
0E2710
0E4390
0E4390
0E4390
0781E0
0781E0
0781E0
0300C0
0300C0
ENDCHAR
STARTCHAR wcircumflex
ENCODING 373
SWIDTH 768 0
DWIDTH 19 0
BBX 19 18 0 0
BITMAP
00C000
01E000
033000
061800
000000
F870E0
707040
707040
707040
38B880
38B880
38B880
1D1D00
1D1D00
1D1D00
0E0E00
0E0E00
0E0E00
ENDCHAR
STARTCHAR Ycircumflex
ENCODING 374
SWIDTH 588 0
DWIDTH 16 0
BBX 16 22 0 0
BITMAP
0300
0780
0CC0
1860
0000
FE1F
3804
1C08
1C08
0E10
0E10
0720
0720
03C0
03C0
01C0
01C0
01C0
01C0
01C0
01C0
07F0
ENDCHAR
STARTCHAR ycircumflex
ENCODING 375
SWIDTH 506 0
DWIDTH 13 0
BBX 13 23 0 -5
BITMAP
0600
0F00
1980
30C0
0000
F838
7010
7010
3820
3820
1C40
1C40
1C40
0E80
0E80
0700
0700
0600
0600
0400
CC00
F800
7000
ENDCHAR
STARTCHAR Ydieresis
ENCODING 376
SWIDTH 588 0
DWIDTH 16 0
BBX 16 19 0 0
BITMAP
0630
0F78
0630
0000
FE1F
3804
1C08
1C08
0E10
0720
0720
03C0
01C0
01C0
01C0
01C0
01C0
01C0
07F0
ENDCHAR
STARTCHAR Zacute
ENCODING 377
SWIDTH 610 0
DWIDTH 15 0
BBX 13 23 1 0
BITMAP
0060
00E0
01C0
0300
0400
0000
FFF8
C038
8070
8070
00E0
01C0
01C0
0380
0700
0700
0E00
1C00
1C00
3800
7008
7018
FFF8
ENDCHAR
STARTCHAR zacute
ENCODING 378
SWIDTH 480 0
DWIDTH 12 0
BBX 10 19 1 0
BITMAP
0180
0380
0700
0C00
1000
0000
FFC0
C1C0
8380
0380
0700
0E00
0E00
1C00
3800
3800
7040
E0C0
FFC0
ENDCHAR
STARTCHAR Zdotaccent
ENCODING 379
SWIDTH 610 0
DWIDTH 15 0
BBX 13 21 1 0
BITMAP
0300
0780
0300
0000
FFF8
C038
8070
8070
00E0
01C0
01C0
0380
0700
0700
0E00
1C00
1C00
3800
7008
7018
FFF8
ENDCHAR
STARTCHAR zdotaccent
ENCODING 380
SWIDTH 480 0
DWIDTH 12 0
BBX 10 17 1 0
BITMAP
0C00
1E00
0C00
0000
FFC0
C1C0
8380
0380
0700
0E00
0E00
1C00
3800
3800
7040
E0C0
FFC0
ENDCHAR
STARTCHAR Zcaron
ENCODING 381
SWIDTH 610 0
DWIDTH 15 0
BBX 13 20 1 0
BITMAP
30C0
1980
0F00
0600
0000
FFF8
C070
80E0
81C0
01C0
0380
0700
0700
0E00
1C00
1C00
3800
7008
7018
FFF8
ENDCHAR
STARTCHAR zcaron
ENCODING 382
SWIDTH 480 0
DWIDTH 12 0
BBX 10 18 1 0
BITMAP
6180
3300
1E00
0C00
0000
FFC0
C1C0
8380
0380
0700
0E00
0E00
1C00
3800
3800
7040
E0C0
FFC0
ENDCHAR
STARTCHAR uni0186
ENCODING 390
SWIDTH 684 0
DWIDTH 17 0
BBX 15 17 1 0
BITMAP
3FC0
E070
C038
801C
001C
000E
000E
000E
000E
000E
000E
000E
001C
801C
C038
E070
3FC0
ENDCHAR
STARTCHAR uni0189
ENCODING 393
SWIDTH 785 0
DWIDTH 19 0
BBX 17 17 1 0
BITMAP
FFF000
381C00
380E00
380700
380700
380380
380380
380380
FF0380
380380
380380
380380
380700
380700
380E00
381C00
FFF000
ENDCHAR
STARTCHAR uni018E
ENCODING 398
SWIDTH 606 0
DWIDTH 15 0
BBX 13 17 1 0
BITMAP
FFF8
C0E0
80E0
80E0
00E0
00E0
20E0
20E0
3FE0
20E0
20E0
00E0
00E0
40E0
40E0
60E0
7FF8
ENDCHAR
STARTCHAR florin
ENCODING 402
SWIDTH 530 0
DWIDTH 13 0
BBX 14 21 -1 -3
BITMAP
0078
00DC
018C
0380
0380
0380
0380
1FE0
0700
0700
0700
0700
0700
0E00
0E00
0E00
0E00
0E00
CC00
EC00
7800
ENDCHAR
STARTCHAR uni0197
ENCODING 407
SWIDTH 349 0
DWIDTH 9 0
BBX 7 17 1 0
BITMAP
FE
38
38
38
38
38
38
38
FE
38
38
38
38
38
38
38
FE
ENDCHAR
STARTCHAR uni019A
ENCODING 410
SWIDTH 279 0
DWIDTH 7 0
BBX 7 19 0 0
BITMAP
18
78
38
38
38
38
38
38
38
FE
38
38
38
38
38
38
38
38
FE
ENDCHAR
STARTCHAR uni019D
ENCODING 413
SWIDTH 780 0
DWIDTH 19 0
BBX 18 22 0 -5
BITMAP
780FC0
1C0300
1E0100
1E0100
170100
138100
13C100
11C100
10E100
10F100
107100
103900
1C1D00
1C1F00
1C0F00
1C0700
1C0300
1C0000
1C0000
180000
380000
E00000
ENDCHAR
STARTCHAR uni019F
ENCODING 415
SWIDTH 762 0
DWIDTH 19 0
BBX 17 17 1 0
BITMAP
07F000
1C1C00
380E00
700700
700700
E00380
E00380
E00380
FFFF80
E00380
E00380
E00380
700700
700700
380E00
1C1C00
07F000
ENDCHAR
STARTCHAR Ohorn
ENCODING 416
SWIDTH 762 0
DWIDTH 19 0
BBX 19 17 1 0
BITMAP
07F0C0
1C1DE0
380EE0
7007C0
700780
E00380
E00380
E00380
E00380
E00380
E00380
E00380
700700
700700
380E00
1C1C00
07F000
ENDCHAR
STARTCHAR ohorn
ENCODING 417
SWIDTH 577 0
DWIDTH 14 0
BBX 15 13 1 0
BITMAP
1F8C
70FE
70EE
E07C
E078
E070
E070
E070
E070
E070
70E0
70E0
1F80
ENDCHAR
STARTCHAR uni01A7
ENCODING 423
SWIDTH 541 0
DWIDTH 14 0
BBX 12 17 1 0
BITMAP
1F80
70E0
6030
4030
0030
0070
01F0
0FE0
3F80
7E00
F000
E000
C000
C010
C030
7070
1FC0
ENDCHAR
STARTCHAR uni01A8
ENCODING 424
SWIDTH 436 0
DWIDTH 11 0
BBX 9 13 1 0
BITMAP
7E00
6300
4180
0180
0380
0F80
7F00
F800
E000
C080
C180
6380
3F00
ENDCHAR
STARTCHAR uni01AE
ENCODING 430
SWIDTH 621 0
DWIDTH 15 0
BBX 15 22 0 -5
BITMAP
FFFE
C386
8382
8382
0380
0380
0380
0380
0380
0380
0380
0380
0380
0380
0380
0380
0380
0380
0380
0180
01C0
0070
ENDCHAR
STARTCHAR Uhorn
ENCODING 431
SWIDTH 791 0
DWIDTH 20 0
BBX 20 17 1 0
BITMAP
FE1FE0
3807F0
380770
380760
380740
380780
380700
380700
380700
380700
380700
380700
380700
380700
180600
0C0C00
03F000
ENDCHAR
STARTCHAR uhorn
ENCODING 432
SWIDTH 606 0
DWIDTH 15 0
BBX 17 13 0 0
BITMAP
301B00
F07F80
703B80
703B00
703A00
703C00
703800
703800
703800
703800
707800
39B800
1E3C00
ENDCHAR
STARTCHAR uni01B5
ENCODING 437
SWIDTH 610 0
DWIDTH 15 0
BBX 13 17 1 0
BITMAP
FFF8
C038
8070
8070
00E0
01C0
01C0
0380
1FC0
0700
0E00
1C00
1C00
3800
7008
7018
FFF8
ENDCHAR
STARTCHAR uni01B6
ENCODING 438
SWIDTH 480 0
DWIDTH 12 0
BBX 10 13 1 0
BITMAP
FFC0
C1C0
8380
0380
0700
0E00
3F80
1C00
3800
3800
7040
E0C0
FFC0
ENDCHAR
STARTCHAR uni01BB
ENCODING 443
SWIDTH 530 0
DWIDTH 13 0
BBX 11 17 1 0
BITMAP
1F00
71C0
E0E0
E0E0
40E0
00E0
00E0
01C0
FFE0
0300
0600
1800
3000
6000
C020
FFE0
FFE0
ENDCHAR
STARTCHAR uni01BC
ENCODING 444
SWIDTH 530 0
DWIDTH 13 0
BBX 11 17 1 0
BITMAP
7FE0
7FC0
4000
4000
4000
4000
5F00
61C0
40E0
00E0
00E0
00E0
40E0
E0E0
E0E0
71C0
1F00
ENDCHAR
STARTCHAR uni01C0
ENCODING 448
SWIDTH 228 0
DWIDTH 6 0
BBX 2 17 2 0
BITMAP
C0
C0
C0
C0
C0
C0
C0
C0
C0
C0
C0
C0
C0
C0
C0
C0
C0
ENDCHAR
STARTCHAR uni01C2
ENCODING 450
SWIDTH 570 0
DWIDTH 14 0
BBX 12 17 1 -2
BITMAP
0600
0600
0600
0600
0600
FFF0
FFF0
0600
0600
0600
0600
FFF0
FFF0
0600
0600
0600
0600
ENDCHAR
STARTCHAR uni01C3
ENCODING 451
SWIDTH 242 0
DWIDTH 6 0
BBX 4 17 1 0
BITMAP
60
60
60
60
60
60
60
60
60
60
60
00
00
00
60
F0
60
ENDCHAR
STARTCHAR uni01CD
ENCODING 461
SWIDTH 635 0
DWIDTH 16 0
BBX 16 22 0 0
BITMAP
0C30
0660
03C0
0180
0000
0180
0180
03C0
03C0
03C0
04E0
04E0
04E0
0870
0870
0FF0
1038
1038
3038
201C
201C
F87F
ENDCHAR
STARTCHAR uni01CE
ENCODING 462
SWIDTH 523 0
DWIDTH 14 0
BBX 13 18 1 0
BITMAP
30C0
1980
0F00
0600
0000
3F80
71C0
60E0
00E0
00E0
03E0
1EE0
70E0
E0E0
E0E0
E0E0
F1F8
3E60
ENDCHAR
STARTCHAR uni01CF
ENCODING 463
SWIDTH 349 0
DWIDTH 9 0
BBX 8 22 1 0
BITMAP
C3
66
3C
18
00
FE
38
38
38
38
38
38
38
38
38
38
38
38
38
38
38
FE
ENDCHAR
STARTCHAR uni01D0
ENCODING 464
SWIDTH 291 0
DWIDTH 7 0
BBX 8 18 -1 0
BITMAP
C3
66
3C
18
00
0C
3C
1C
1C
1C
1C
1C
1C
1C
1C
1C
1C
7F
ENDCHAR
STARTCHAR uni01D1
ENCODING 465
SWIDTH 762 0
DWIDTH 19 0
BBX 17 22 1 0
BITMAP
061800
033000
01E000
00C000
000000
07F000
1C1C00
380E00
700700
700700
E00380
E00380
E00380
E00380
E00380
E00380
E00380
700700
700700
380E00
1C1C00
07F000
ENDCHAR
STARTCHAR uni01D2
ENCODING 466
SWIDTH 577 0
DWIDTH 14 0
BBX 12 18 1 0
BITMAP
30C0
1980
0F00
0600
0000
1F80
70E0
70E0
E070
E070
E070
E070
E070
E070
E070
70E0
70E0
1F80
ENDCHAR
STARTCHAR uni01D3
ENCODING 467
SWIDTH 791 0
DWIDTH 20 0
BBX 18 22 1 0
BITMAP
061800
033000
01E000
00C000
000000
FE1FC0
380700
380700
380700
380700
380700
380700
380700
380700
380700
380700
380700
380700
380700
180600
0C0C00
03F000
ENDCHAR
STARTCHAR uni01D4
ENCODING 468
SWIDTH 606 0
DWIDTH 15 0
BBX 14 18 0 0
BITMAP
1860
0CC0
0780
0300
0000
3018
F078
7038
7038
7038
7038
7038
7038
7038
7038
7078
39B8
1E3C
ENDCHAR
STARTCHAR uni01D5
ENCODING 469
SWIDTH 791 0
DWIDTH 20 0
BBX 18 21 1 0
BITMAP
07F800
000000
063000
0F7800
063000
000000
FE1FC0
380700
380700
380700
380700
380700
380700
380700
380700
380700
380700
380700
180600
0C0C00
03F000
ENDCHAR
STARTCHAR uni01D6
ENCODING 470
SWIDTH 606 0
DWIDTH 15 0
BBX 14 19 1 0
BITMAP
1FE0
0000
18C0
3DE0
18C0
0000
3018
F078
7038
7038
7038
7038
7038
7038
7038
7038
7078
39B8
1E3C
ENDCHAR
STARTCHAR uni01D7
ENCODING 471
SWIDTH 791 0
DWIDTH 20 0
BBX 18 25 1 0
BITMAP
001800
003800
007000
00C000
010000
000000
063000
0F7800
063000
000000
FE1FC0
380700
380700
380700
380700
380700
380700
380700
380700
380700
380700
380700
180600
0C0C00
03F000
ENDCHAR
STARTCHAR uni01D8
ENCODING 472
SWIDTH 606 0
DWIDTH 15 0
BBX 14 23 1 0
BITMAP
0060
00E0
01C0
0300
0400
0000
18C0
3DE0
18C0
0000
3018
F078
7038
7038
7038
7038
7038
7038
7038
7038
7078
39B8
1E3C
ENDCHAR
STARTCHAR uni01D9
ENCODING 473
SWIDTH 791 0
DWIDTH 20 0
BBX 18 24 1 0
BITMAP
061800
033000
01E000
00C000
000000
063000
0F7800
063000
000000
FE1FC0
380700
380700
380700
380700
380700
380700
380700
380700
380700
380700
380700
180600
0C0C00
03F000
ENDCHAR
STARTCHAR uni01DA
ENCODING 474
SWIDTH 606 0
DWIDTH 15 0
BBX 14 22 1 0
BITMAP
1860
0CC0
0780
0300
0000
18C0
3DE0
18C0
0000
3018
F078
7038
7038
7038
7038
7038
7038
7038
7038
7078
39B8
1E3C
ENDCHAR
STARTCHAR uni01DB
ENCODING 475
SWIDTH 791 0
DWIDTH 20 0
BBX 18 25 1 0
BITMAP
060000
070000
038000
00C000
002000
000000
063000
0F7800
063000
000000
FE1FC0
380700
380700
380700
380700
380700
380700
380700
380700
380700
380700
380700
180600
0C0C00
03F000
ENDCHAR
STARTCHAR uni01DC
ENCODING 476
SWIDTH 606 0
DWIDTH 15 0
BBX 14 23 1 0
BITMAP
1800
1C00
0E00
0300
0080
0000
18C0
3DE0
18C0
0000
3018
F078
7038
7038
7038
7038
7038
7038
7038
7038
7078
39B8
1E3C
ENDCHAR
STARTCHAR uni01DD
ENCODING 477
SWIDTH 514 0
DWIDTH 13 0
BBX 11 13 1 0
BITMAP
1F00
61C0
C1C0
00E0
00E0
00E0
00E0
FFE0
E0E0
E0E0
71C0
71C0
1F00
ENDCHAR
STARTCHAR uni01DE
ENCODING 478
SWIDTH 635 0
DWIDTH 16 0
BBX 16 21 0 0
BITMAP
0FF0
0000
0C60
1EF0
0C60
0000
0180
0380
03C0
03C0
04E0
04E0
04E0
0870
0870
1FF8
1038
1038
201C
201C
F87F
ENDCHAR
STARTCHAR uni01DF
ENCODING 479
SWIDTH 523 0
DWIDTH 14 0
BBX 13 19 1 0
BITMAP
3FC0
0000
18C0
3DE0
18C0
0000
3F80
71C0
60E0
00E0
00E0
03E0
1EE0
70E0
E0E0
E0E0
E0E0
F1F8
3E60
ENDCHAR
STARTCHAR uni01E0
ENCODING 480
SWIDTH 635 0
DWIDTH 16 0
BBX 16 23 0 0
BITMAP
0FF0
0000
0180
03C0
0180
0000
0180
0180
03C0
03C0
03C0
04E0
04E0
04E0
0870
0870
0FF0
1038
1038
3038
201C
201C
F87F
ENDCHAR
STARTCHAR uni01E1
ENCODING 481
SWIDTH 523 0
DWIDTH 14 0
BBX 13 19 1 0
BITMAP
3FC0
0000
0600
0F00
0600
0000
3F80
71C0
60E0
00E0
00E0
03E0
1EE0
70E0
E0E0
E0E0
E0E0
F1F8
3E60
ENDCHAR
STARTCHAR uni01E2
ENCODING 482
SWIDTH 876 0
DWIDTH 22 0
BBX 21 19 0 0
BITMAP
00FF00
000000
01FFF0
007830
00B810
00B810
013800
013800
023820
023820
043FE0
07F820
083820
083800
103800
103808
203808
203818
F8FFF8
ENDCHAR
STARTCHAR uni01E3
ENCODING 483
SWIDTH 797 0
DWIDTH 20 0
BBX 19 15 1 0
BITMAP
03FC00
000000
0F9F00
39F1C0
60F1C0
60E0E0
00E0E0
03FFE0
1EE000
70E000
E0E000
E0E000
E0F060
F1F0C0
7E1F00
ENDCHAR
STARTCHAR uni01E4
ENCODING 484
SWIDTH 734 0
DWIDTH 18 0
BBX 18 17 1 0
BITMAP
07F800
1C0E00
380600
700200
700000
E00000
E00000
E00000
E00000
E00000
E01F80
E00700
701FC0
700700
380700
1C0F00
07F800
ENDCHAR
STARTCHAR uni01E5
ENCODING 485
SWIDTH 520 0
DWIDTH 13 0
BBX 13 18 0 -5
BITMAP
0F98
38F8
7060
7070
7070
7070
38E0
0F80
1800
3800
3F00
1FE0
33F0
FFF8
E038
E038
7070
1FC0
ENDCHAR
STARTCHAR Gcaron
ENCODING 486
SWIDTH 734 0
DWIDTH 18 0
BBX 17 22 1 0
BITMAP
0C3000
066000
03C000
018000
000000
07F800
1C0E00
380600
700200
700000
E00000
E00000
E00000
E00000
E00000
E01F80
E00700
700700
700700
380700
1C0F00
07F800
ENDCHAR
STARTCHAR gcaron
ENCODING 487
SWIDTH 520 0
DWIDTH 13 0
BBX 13 23 0 -5
BITMAP
1860
0CC0
0780
0300
0000
0F98
38F8
7060
7070
7070
7070
38E0
0F80
1800
3800
3F00
1FE0
33F0
6078
E038
E038
7070
1FC0
ENDCHAR
STARTCHAR uni01E8
ENCODING 488
SWIDTH 658 0
DWIDTH 17 0
BBX 16 22 1 0
BITMAP
1860
0CC0
0780
0300
0000
FE3F
381C
3830
3860
38C0
3980
3B00
3F00
3B80
39C0
39E0
38E0
3870
3878
383C
381E
FE0F
ENDCHAR
STARTCHAR uni01E9
ENCODING 489
SWIDTH 524 0
DWIDTH 13 0
BBX 14 24 0 0
BITMAP
6180
3300
1E00
0C00
0000
1800
7800
3800
3800
3800
3800
3878
38F0
39C0
3980
3B00
3E00
3F00
3B80
39C0
39E0
38F0
3878
FE3C
ENDCHAR
STARTCHAR uni01EA
ENCODING 490
SWIDTH 762 0
DWIDTH 19 0
BBX 17 22 1 -5
BITMAP
07F000
1C1C00
380E00
700700
700700
E00380
E00380
E00380
E00380
E00380
E00380
E00380
700700
700700
380E00
1C1C00
07F000
004000
008000
018000
018000
00E000
ENDCHAR
STARTCHAR uni01EB
ENCODING 491
SWIDTH 577 0
DWIDTH 14 0
BBX 12 18 1 -5
BITMAP
1F80
70E0
70E0
E070
E070
E070
E070
E070
E070
E070
70E0
70E0
1F80
0200
0400
0C00
0C00
0700
ENDCHAR
STARTCHAR uni01EC
ENCODING 492
SWIDTH 762 0
DWIDTH 19 0
BBX 17 24 1 -5
BITMAP
07F800
000000
07F000
1C1C00
380E00
700700
700700
E00380
E00380
E00380
E00380
E00380
E00380
E00380
700700
700700
380E00
1C1C00
07F000
004000
008000
018000
018000
00E000
ENDCHAR
STARTCHAR uni01ED
ENCODING 493
SWIDTH 577 0
DWIDTH 14 0
BBX 12 20 1 -5
BITMAP
3FC0
0000
1F80
70E0
70E0
E070
E070
E070
E070
E070
E070
E070
70E0
70E0
1F80
0200
0400
0C00
0C00
0700
ENDCHAR
STARTCHAR uni01F0
ENCODING 496
SWIDTH 280 0
DWIDTH 7 0
BBX 8 23 -1 -5
BITMAP
C3
66
3C
18
00
0C
3C
1C
1C
1C
1C
1C
1C
1C
1C
1C
1C
1C
1C
1C
18
38
E0
ENDCHAR
STARTCHAR uni01F4
ENCODING 500
SWIDTH 734 0
DWIDTH 18 0
BBX 17 23 1 0
BITMAP
003000
007000
00E000
018000
020000
000000
07F800
1C0E00
380600
700200
700000
E00000
E00000
E00000
E00000
E00000
E01F80
E00700
700700
700700
380700
1C0F00
07F800
ENDCHAR
STARTCHAR uni01F5
ENCODING 501
SWIDTH 520 0
DWIDTH 13 0
BBX 13 24 0 -5
BITMAP
0060
00E0
01C0
0300
0400
0000
0F98
38F8
7060
7070
7070
7070
38E0
0F80
1800
3800
3F00
1FE0
33F0
6078
E038
E038
7070
1FC0
ENDCHAR
STARTCHAR uni01F8
ENCODING 504
SWIDTH 780 0
DWIDTH 19 0
BBX 17 23 1 0
BITMAP
0C0000
0E0000
070000
018000
004000
000000
F01F80
380600
3C0200
3C0200
2E0200
270200
278200
238200
21C200
21E200
20E200
207200
203A00
203E00
201E00
300E00
FC0600
ENDCHAR
STARTCHAR uni01F9
ENCODING 505
SWIDTH 619 0
DWIDTH 15 0
BBX 16 19 0 0
BITMAP
0C00
0E00
0700
0180
0040
0000
18F0
7B38
3C1C
381C
381C
381C
381C
381C
381C
381C
381C
381C
FE7F
ENDCHAR
STARTCHAR Aringacute
ENCODING 506
SWIDTH 627 0
DWIDTH 16 0
BBX 16 27 0 0
BITMAP
0030
0070
00E0
0180
0200
0000
0380
06C0
0440
06C0
0380
0000
0180
0380
03C0
03C0
04E0
04E0
04E0
0870
0870
1FF8
1038
1038
201C
201C
F87F
ENDCHAR
STARTCHAR aringacute
ENCODING 507
SWIDTH 523 0
DWIDTH 14 0
BBX 13 25 1 0
BITMAP
0060
00E0
01C0
0300
0400
0000
0700
0D80
0880
0D80
0700
0000
3F80
71C0
60E0
00E0
00E0
03E0
1EE0
70E0
E0E0
E0E0
E0E0
F1F8
3E60
ENDCHAR
STARTCHAR AEacute
ENCODING 508
SWIDTH 876 0
DWIDTH 22 0
BBX 21 23 0 0
BITMAP
000300
000700
000E00
001800
002000
000000
01FFF0
007830
00B810
00B810
013800
013800
023820
023820
043FE0
07F820
083820
083800
103800
103808
203808
203818
F8FFF8
ENDCHAR
STARTCHAR aeacute
ENCODING 509
SWIDTH 797 0
DWIDTH 20 0
BBX 19 19 1 0
BITMAP
000C00
001C00
003800
006000
008000
000000
0F9F00
39F1C0
60F1C0
60E0E0
00E0E0
03FFE0
1EE000
70E000
E0E000
E0E000
E0F060
F1F0C0
7E1F00
ENDCHAR
STARTCHAR Oslashacute
ENCODING 510
SWIDTH 762 0
DWIDTH 19 0
BBX 17 23 1 0
BITMAP
001800
003800
007000
00C000
010000
000000
07F200
1C1C00
380E00
701700
702700
E04380
E08380
E08380
E10380
E20380
E40380
E80380
700700
700700
380E00
5C1C00
87F000
ENDCHAR
STARTCHAR oslashacute
ENCODING 511
SWIDTH 577 0
DWIDTH 14 0
BBX 12 19 1 0
BITMAP
00C0
01C0
0380
0600
0800
0000
1FB0
70E0
70E0
E1F0
E370
E270
E470
EC70
F870
F070
70E0
70E0
DF80
ENDCHAR
STARTCHAR uni0200
ENCODING 512
SWIDTH 635 0
DWIDTH 16 0
BBX 16 23 0 0
BITMAP
0CC0
0CC0
0660
0660
0220
0000
0180
0180
03C0
03C0
03C0
04E0
04E0
04E0
0870
0870
0FF0
1038
1038
3038
201C
201C
F87F
ENDCHAR
STARTCHAR uni0201
ENCODING 513
SWIDTH 523 0
DWIDTH 14 0
BBX 13 19 1 0
BITMAP
3300
3300
1980
1980
0880
0000
3F80
71C0
60E0
00E0
00E0
03E0
1EE0
70E0
E0E0
E0E0
E0E0
F1F8
3E60
ENDCHAR
STARTCHAR uni0202
ENCODING 514
SWIDTH 635 0
DWIDTH 16 0
BBX 16 22 0 0
BITMAP
03C0
07E0
0C30
0810
0000
0180
0180
03C0
03C0
03C0
04E0
04E0
04E0
0870
0870
0FF0
1038
1038
3038
201C
201C
F87F
ENDCHAR
STARTCHAR uni0203
ENCODING 515
SWIDTH 523 0
DWIDTH 14 0
BBX 13 18 1 0
BITMAP
0F00
1F80
30C0
2040
0000
3F80
71C0
60E0
00E0
00E0
03E0
1EE0
70E0
E0E0
E0E0
E0E0
F1F8
3E60
ENDCHAR
STARTCHAR uni0204
ENCODING 516
SWIDTH 606 0
DWIDTH 15 0
BBX 13 23 1 0
BITMAP
3300
3300
1980
1980
0880
0000
FFF0
3830
3810
3810
3800
3800
3820
3820
3FE0
3820
3820
3800
3800
3808
3808
3818
FFF8
ENDCHAR
STARTCHAR uni0205
ENCODING 517
SWIDTH 514 0
DWIDTH 13 0
BBX 11 19 1 0
BITMAP
3300
3300
1980
1980
0880
0000
1F00
71C0
71C0
E0E0
E0E0
FFE0
E000
E000
E000
E000
7060
70C0
1F00
ENDCHAR
STARTCHAR uni0206
ENCODING 518
SWIDTH 606 0
DWIDTH 15 0
BBX 13 22 1 0
BITMAP
0F00
1F80
30C0
2040
0000
FFF0
3830
3810
3810
3800
3800
3820
3820
3FE0
3820
3820
3800
3800
3808
3808
3818
FFF8
ENDCHAR
STARTCHAR uni0207
ENCODING 519
SWIDTH 514 0
DWIDTH 13 0
BBX 11 18 1 0
BITMAP
0F00
1F80
30C0
2040
0000
1F00
71C0
71C0
E0E0
E0E0
FFE0
E000
E000
E000
E000
7060
70C0
1F00
ENDCHAR
STARTCHAR uni0208
ENCODING 520
SWIDTH 349 0
DWIDTH 9 0
BBX 7 23 1 0
BITMAP
CC
CC
66
66
22
00
FE
38
38
38
38
38
38
38
38
38
38
38
38
38
38
38
FE
ENDCHAR
STARTCHAR uni0209
ENCODING 521
SWIDTH 291 0
DWIDTH 7 0
BBX 7 19 0 0
BITMAP
CC
CC
66
66
22
00
18
78
38
38
38
38
38
38
38
38
38
38
FE
ENDCHAR
STARTCHAR uni020A
ENCODING 522
SWIDTH 349 0
DWIDTH 9 0
BBX 8 22 1 0
BITMAP
3C
7E
C3
81
00
FE
38
38
38
38
38
38
38
38
38
38
38
38
38
38
38
FE
ENDCHAR
STARTCHAR uni020B
ENCODING 523
SWIDTH 291 0
DWIDTH 7 0
BBX 8 18 -1 0
BITMAP
3C
7E
C3
81
00
0C
3C
1C
1C
1C
1C
1C
1C
1C
1C
1C
1C
7F
ENDCHAR
STARTCHAR uni020C
ENCODING 524
SWIDTH 762 0
DWIDTH 19 0
BBX 17 23 1 0
BITMAP
066000
066000
033000
033000
011000
000000
07F000
1C1C00
380E00
700700
700700
E00380
E00380
E00380
E00380
E00380
E00380
E00380
700700
700700
380E00
1C1C00
07F000
ENDCHAR
STARTCHAR uni020D
ENCODING 525
SWIDTH 577 0
DWIDTH 14 0
BBX 12 19 1 0
BITMAP
3300
3300
1980
1980
0880
0000
1F80
70E0
70E0
E070
E070
E070
E070
E070
E070
E070
70E0
70E0
1F80
ENDCHAR
STARTCHAR uni020E
ENCODING 526
SWIDTH 762 0
DWIDTH 19 0
BBX 17 22 1 0
BITMAP
01E000
03F000
061800
040800
000000
07F000
1C1C00
380E00
700700
700700
E00380
E00380
E00380
E00380
E00380
E00380
E00380
700700
700700
380E00
1C1C00
07F000
ENDCHAR
STARTCHAR uni020F
ENCODING 527
SWIDTH 577 0
DWIDTH 14 0
BBX 12 18 1 0
BITMAP
0F00
1F80
30C0
2040
0000
1F80
70E0
70E0
E070
E070
E070
E070
E070
E070
E070
70E0
70E0
1F80
ENDCHAR
STARTCHAR uni0210
ENCODING 528
SWIDTH 644 0
DWIDTH 16 0
BBX 15 23 1 0
BITMAP
1980
1980
0CC0
0CC0
0440
0000
FFC0
3870
3838
3838
3838
3838
3830
3860
3FC0
38E0
3870
3870
3870
3838
3838
3838
FE1E
ENDCHAR
STARTCHAR uni0211
ENCODING 529
SWIDTH 389 0
DWIDTH 10 0
BBX 10 19 0 0
BITMAP
6600
6600
3300
3300
1100
0000
1980
7BC0
3D80
3800
3800
3800
3800
3800
3800
3800
3800
3800
FE00
ENDCHAR
STARTCHAR uni0212
ENCODING 530
SWIDTH 644 0
DWIDTH 16 0
BBX 15 22 1 0
BITMAP
0780
0FC0
1860
1020
0000
FFC0
3870
3838
3838
3838
3838
3830
3860
3FC0
38E0
3870
3870
3870
3838
3838
3838
FE1E
ENDCHAR
STARTCHAR uni0213
ENCODING 531
SWIDTH 389 0
DWIDTH 10 0
BBX 10 18 0 0
BITMAP
1E00
3F00
6180
4080
0000
1980
7BC0
3D80
3800
3800
3800
3800
3800
3800
3800
3800
3800
FE00
ENDCHAR
STARTCHAR uni0214
ENCODING 532
SWIDTH 791 0
DWIDTH 20 0
BBX 18 23 1 0
BITMAP
066000
066000
033000
033000
011000
000000
FE1FC0
380700
380700
380700
380700
380700
380700
380700
380700
380700
380700
380700
380700
380700
180600
0C0C00
03F000
ENDCHAR
STARTCHAR uni0215
ENCODING 533
SWIDTH 606 0
DWIDTH 15 0
BBX 14 19 0 0
BITMAP
1980
1980
0CC0
0CC0
0440
0000
3018
F078
7038
7038
7038
7038
7038
7038
7038
7038
7078
39B8
1E3C
ENDCHAR
STARTCHAR uni0216
ENCODING 534
SWIDTH 791 0
DWIDTH 20 0
BBX 18 22 1 0
BITMAP
01E000
03F000
061800
040800
000000
FE1FC0
380700
380700
380700
380700
380700
380700
380700
380700
380700
380700
380700
380700
380700
180600
0C0C00
03F000
ENDCHAR
STARTCHAR uni0217
ENCODING 535
SWIDTH 606 0
DWIDTH 15 0
BBX 14 18 0 0
BITMAP
0780
0FC0
1860
1020
0000
3018
F078
7038
7038
7038
7038
7038
7038
7038
7038
7078
39B8
1E3C
ENDCHAR
STARTCHAR Scommaaccent
ENCODING 536
SWIDTH 541 0
DWIDTH 14 0
BBX 12 24 1 -7
BITMAP
1F80
70E0
C060
C020
C000
E000
F800
7F00
1FC0
07E0
00F0
0070
0030
8030
C030
E0E0
3F80
0000
0600
0F00
0700
0200
0400
0800
ENDCHAR
STARTCHAR scommaaccent
ENCODING 537
SWIDTH 436 0
DWIDTH 11 0
BBX 9 20 1 -7
BITMAP
3F00
6300
C100
C000
E000
F800
7F00
0F80
0380
8180
C180
E300
7E00
0000
1800
3C00
1C00
0800
1000
2000
ENDCHAR
STARTCHAR Tcommaaccent
ENCODING 538
SWIDTH 621 0
DWIDTH 15 0
BBX 15 24 0 -7
BITMAP
FFFE
C386
8382
8382
0380
0380
0380
0380
0380
0380
0380
0380
0380
0380
0380
0380
0FE0
0000
0180
03C0
01C0
0080
0100
0200
ENDCHAR
STARTCHAR tcommaaccent
ENCODING 539
SWIDTH 344 0
DWIDTH 9 0
BBX 8 23 0 -7
BITMAP
08
18
38
FF
38
38
38
38
38
38
38
38
38
38
39
1E
00
18
3C
1C
08
10
20
ENDCHAR
STARTCHAR uni021E
ENCODING 542
SWIDTH 798 0
DWIDTH 20 0
BBX 18 22 1 0
BITMAP
061800
033000
01E000
00C000
000000
FE1FC0
380700
380700
380700
380700
380700
380700
380700
3FFF00
380700
380700
380700
380700
380700
380700
380700
FE1FC0
ENDCHAR
STARTCHAR uni021F
ENCODING 543
SWIDTH 607 0
DWIDTH 16 0
BBX 16 24 0 0
BITMAP
6180
3300
1E00
0C00
0000
1800
7800
3800
3800
3800
3800
38F8
3B3C
3C1C
381C
381C
381C
381C
381C
381C
381C
381C
381C
FE7F
ENDCHAR
STARTCHAR uni0226
ENCODING 550
SWIDTH 635 0
DWIDTH 16 0
BBX 16 21 0 0
BITMAP
0180
03C0
0180
0000
0180
0180
03C0
03C0
03C0
04E0
04E0
04E0
0870
0870
0FF0
1038
1038
3038
201C
201C
F87F
ENDCHAR
STARTCHAR uni0227
ENCODING 551
SWIDTH 523 0
DWIDTH 14 0
BBX 13 17 1 0
BITMAP
0600
0F00
0600
0000
3F80
71C0
60E0
00E0
00E0
03E0
1EE0
70E0
E0E0
E0E0
E0E0
F1F8
3E60
ENDCHAR
STARTCHAR uni0228
ENCODING 552
SWIDTH 606 0
DWIDTH 15 0
BBX 13 22 1 -5
BITMAP
FFF0
3830
3810
3810
3800
3800
3820
3820
3FE0
3820
3820
3800
3800
3808
3808
3818
FFF8
0200
0600
0300
0300
0E00
ENDCHAR
STARTCHAR uni0229
ENCODING 553
SWIDTH 514 0
DWIDTH 13 0
BBX 11 18 1 -5
BITMAP
1F00
71C0
71C0
E0E0
E0E0
FFE0
E000
E000
E000
E000
7060
70C0
1F00
0400
0C00
0600
0600
1C00
ENDCHAR
STARTCHAR uni022A
ENCODING 554
SWIDTH 762 0
DWIDTH 19 0
BBX 17 21 1 0
BITMAP
07F800
000000
063000
0F7800
063000
000000
07F000
1C1C00
380E00
700700
700700
E00380
E00380
E00380
E00380
E00380
700700
700700
380E00
1C1C00
07F000
ENDCHAR
STARTCHAR uni022B
ENCODING 555
SWIDTH 577 0
DWIDTH 14 0
BBX 12 19 1 0
BITMAP
3FC0
0000
3180
7BC0
3180
0000
1F80
70E0
70E0
E070
E070
E070
E070
E070
E070
E070
70E0
70E0
1F80
ENDCHAR
STARTCHAR uni022C
ENCODING 556
SWIDTH 762 0
DWIDTH 19 0
BBX 17 21 1 0
BITMAP
07F800
000000
030800
07F000
086000
000000
07F000
1C1C00
380E00
700700
700700
E00380
E00380
E00380
E00380
E00380
700700
700700
380E00
1C1C00
07F000
ENDCHAR
STARTCHAR uni022D
ENCODING 557
SWIDTH 577 0
DWIDTH 14 0
BBX 12 19 1 0
BITMAP
3FC0
0000
1840
3F80
4300
0000
1F80
70E0
70E0
E070
E070
E070
E070
E070
E070
E070
70E0
70E0
1F80
ENDCHAR
STARTCHAR uni022E
ENCODING 558
SWIDTH 762 0
DWIDTH 19 0
BBX 17 21 1 0
BITMAP
00C000
01E000
00C000
000000
07F000
1C1C00
380E00
700700
700700
E00380
E00380
E00380
E00380
E00380
E00380
E00380
700700
700700
380E00
1C1C00
07F000
ENDCHAR
STARTCHAR uni022F
ENCODING 559
SWIDTH 577 0
DWIDTH 14 0
BBX 12 17 1 0
BITMAP
0600
0F00
0600
0000
1F80
70E0
70E0
E070
E070
E070
E070
E070
E070
E070
70E0
70E0
1F80
ENDCHAR
STARTCHAR uni0230
ENCODING 560
SWIDTH 762 0
DWIDTH 19 0
BBX 17 23 1 0
BITMAP
07F800
000000
00C000
01E000
00C000
000000
07F000
1C1C00
380E00
700700
700700
E00380
E00380
E00380
E00380
E00380
E00380
E00380
700700
700700
380E00
1C1C00
07F000
ENDCHAR
STARTCHAR uni0231
ENCODING 561
SWIDTH 577 0
DWIDTH 14 0
BBX 12 19 1 0
BITMAP
3FC0
0000
0600
0F00
0600
0000
1F80
70E0
70E0
E070
E070
E070
E070
E070
E070
E070
70E0
70E0
1F80
ENDCHAR
STARTCHAR uni0232
ENCODING 562
SWIDTH 588 0
DWIDTH 16 0
BBX 16 19 0 0
BITMAP
1FE0
0000
FE1F
3804
1C08
1C08
0E10
0E10
0720
0720
03C0
03C0
01C0
01C0
01C0
01C0
01C0
01C0
07F0
ENDCHAR
STARTCHAR uni0233
ENCODING 563
SWIDTH 506 0
DWIDTH 13 0
BBX 13 20 0 -5
BITMAP
3FC0
0000
F838
7010
7010
3820
3820
1C40
1C40
1C40
0E80
0E80
0700
0700
0600
0600
0400
CC00
F800
7000
ENDCHAR
STARTCHAR uni0250
ENCODING 592
SWIDTH 523 0
DWIDTH 14 0
BBX 13 13 1 0
BITMAP
33E0
FC78
3838
3838
3838
3870
3BC0
3E00
3800
3800
3830
1C70
0FE0
ENDCHAR
STARTCHAR uni0254
ENCODING 596
SWIDTH 496 0
DWIDTH 12 0
BBX 11 13 1 0
BITMAP
3F00
71C0
61C0
00E0
00E0
00E0
00E0
00E0
00E0
00E0
C1C0
61C0
1F00
ENDCHAR
STARTCHAR uni0258
ENCODING 600
SWIDTH 514 0
DWIDTH 13 0
BBX 11 13 1 0
BITMAP
1F00
71C0
71C0
E0E0
E0E0
FFE0
00E0
00E0
00E0
00E0
C1C0
61C0
1F00
ENDCHAR
STARTCHAR uni0259
ENCODING 601
SWIDTH 514 0
DWIDTH 13 0
BBX 11 13 1 0
BITMAP
1F00
61C0
C1C0
00E0
00E0
00E0
00E0
FFE0
E0E0
E0E0
71C0
71C0
1F00
ENDCHAR
STARTCHAR uni025F
ENCODING 607
SWIDTH 319 0
DWIDTH 8 0
BBX 9 19 0 -7
BITMAP
3F80
0E00
0E00
0E00
0E00
0E00
0E00
0E00
0E00
0E00
0E00
0E00
7F80
0E00
0E00
0E00
4E00
EC00
7800
ENDCHAR
STARTCHAR uni0265
ENCODING 613
SWIDTH 607 0
DWIDTH 16 0
BBX 16 19 0 -7
BITMAP
FE7F
381C
381C
381C
381C
381C
381C
381C
381C
381C
383C
3CDC
1F1C
001C
001C
001C
001C
001E
0018
ENDCHAR
STARTCHAR uni0275
ENCODING 629
SWIDTH 577 0
DWIDTH 14 0
BBX 12 13 1 0
BITMAP
1F80
70E0
70E0
E070
E070
E070
FFF0
E070
E070
E070
70E0
70E0
1F80
ENDCHAR
STARTCHAR uni0279
ENCODING 633
SWIDTH 389 0
DWIDTH 10 0
BBX 10 13 0 0
BITMAP
1FC0
0700
0700
0700
0700
0700
0700
0700
0700
0700
6F00
F780
6600
ENDCHAR
STARTCHAR uni0287
ENCODING 647
SWIDTH 344 0
DWIDTH 9 0
BBX 8 16 0 0
BITMAP
78
9C
1C
1C
1C
1C
1C
1C
1C
1C
1C
1C
FF
1C
18
10
ENDCHAR
STARTCHAR uni0288
ENCODING 648
SWIDTH 344 0
DWIDTH 9 0
BBX 8 21 0 -5
BITMAP
08
18
38
FF
38
38
38
38
38
38
38
38
38
38
38
38
38
38
18
1C
07
ENDCHAR
STARTCHAR uni0289
ENCODING 649
SWIDTH 606 0
DWIDTH 15 0
BBX 14 13 0 0
BITMAP
3018
F078
7038
7038
7038
7038
FFFC
7038
7038
7038
7078
39B8
1E3C
ENDCHAR
STARTCHAR uni028C
ENCODING 652
SWIDTH 504 0
DWIDTH 13 0
BBX 13 13 0 0
BITMAP
0700
0700
0F80
0B80
0B80
11C0
11C0
20E0
20E0
20E0
4070
4070
E0F8
ENDCHAR
STARTCHAR uni028D
ENCODING 653
SWIDTH 768 0
DWIDTH 19 0
BBX 19 13 0 0
BITMAP
0E0E00
0E0E00
0E0E00
171700
171700
171700
23A380
23A380
23A380
41C1C0
41C1C0
41C1C0
E1C3E0
ENDCHAR
STARTCHAR uni028E
ENCODING 654
SWIDTH 506 0
DWIDTH 13 0
BBX 13 18 0 0
BITMAP
0070
00F8
0198
0100
0300
0300
0700
0700
0B80
0B80
11C0
11C0
11C0
20E0
20E0
4070
4070
E0F8
ENDCHAR
STARTCHAR uni029E
ENCODING 670
SWIDTH 524 0
DWIDTH 13 0
BBX 14 19 0 -7
BITMAP
F1FC
7870
3C70
1E70
0E70
0770
03F0
01F0
0370
0670
0E70
3C70
7870
0070
0070
0070
0070
0078
0060
ENDCHAR
STARTCHAR uni02BB
ENCODING 699
SWIDTH 278 0
DWIDTH 7 0
BBX 4 6 2 11
BITMAP
10
20
60
E0
F0
60
ENDCHAR
STARTCHAR afii57929
ENCODING 700
SWIDTH 278 0
DWIDTH 7 0
BBX 4 6 1 11
BITMAP
60
F0
70
60
40
80
ENDCHAR
STARTCHAR afii64937
ENCODING 701
SWIDTH 278 0
DWIDTH 7 0
BBX 4 6 1 11
BITMAP
60
F0
E0
60
20
10
ENDCHAR
STARTCHAR circumflex
ENCODING 710
SWIDTH 400 0
DWIDTH 10 0
BBX 8 4 1 14
BITMAP
18
3C
66
C3
ENDCHAR
STARTCHAR caron
ENCODING 711
SWIDTH 400 0
DWIDTH 10 0
BBX 8 4 1 14
BITMAP
C3
66
3C
18
ENDCHAR
STARTCHAR uni02C8
ENCODING 712
SWIDTH 278 0
DWIDTH 7 0
BBX 2 7 2 10
BITMAP
C0
C0
C0
C0
C0
80
80
ENDCHAR
STARTCHAR macron
ENCODING 713
SWIDTH 400 0
DWIDTH 10 0
BBX 8 1 1 14
BITMAP
FF
ENDCHAR
STARTCHAR uni02CA
ENCODING 714
SWIDTH 400 0
DWIDTH 10 0
BBX 6 5 2 14
BITMAP
0C
1C
38
60
80
ENDCHAR
STARTCHAR uni02CB
ENCODING 715
SWIDTH 400 0
DWIDTH 10 0
BBX 6 5 2 14
BITMAP
C0
E0
70
18
04
ENDCHAR
STARTCHAR uni02CD
ENCODING 717
SWIDTH 400 0
DWIDTH 10 0
BBX 8 1 1 -2
BITMAP
FF
ENDCHAR
STARTCHAR uni02CE
ENCODING 718
SWIDTH 400 0
DWIDTH 10 0
BBX 6 5 2 -6
BITMAP
C0
E0
70
18
04
ENDCHAR
STARTCHAR uni02CF
ENCODING 719
SWIDTH 400 0
DWIDTH 10 0
BBX 6 5 2 -6
BITMAP
0C
1C
38
60
80
ENDCHAR
STARTCHAR breve
ENCODING 728
SWIDTH 400 0
DWIDTH 10 0
BBX 8 4 1 14
BITMAP
81
C3
7E
3C
ENDCHAR
STARTCHAR dotaccent
ENCODING 729
SWIDTH 400 0
DWIDTH 10 0
BBX 4 3 3 14
BITMAP
60
F0
60
ENDCHAR
STARTCHAR ring
ENCODING 730
SWIDTH 400 0
DWIDTH 10 0
BBX 5 5 2 14
BITMAP
70
D8
88
D8
70
ENDCHAR
STARTCHAR ogonek
ENCODING 731
SWIDTH 400 0
DWIDTH 10 0
BBX 4 5 3 -5
BITMAP
20
40
C0
C0
70
ENDCHAR
STARTCHAR tilde
ENCODING 732
SWIDTH 400 0
DWIDTH 10 0
BBX 9 3 0 14
BITMAP
3080
7F00
8600
ENDCHAR
STARTCHAR hungarumlaut
ENCODING 733
SWIDTH 400 0
DWIDTH 10 0
BBX 7 5 1 14
BITMAP
66
66
CC
CC
88
ENDCHAR
STARTCHAR uni02EE
ENCODING 750
SWIDTH 458 0
DWIDTH 11 0
BBX 9 6 1 11
BITMAP
6300
F780
7380
6300
4200
8400
ENDCHAR
STARTCHAR uni037E
ENCODING 894
SWIDTH 265 0
DWIDTH 6 0
BBX 4 16 1 -3
BITMAP
60
F0
60
00
00
00
00
00
00
00
60
F0
70
20
40
80
ENDCHAR
STARTCHAR tonos
ENCODING 900
SWIDTH 400 0
DWIDTH 10 0
BBX 6 5 2 14
BITMAP
0C
1C
38
60
80
ENDCHAR
STARTCHAR dieresistonos
ENCODING 901
SWIDTH 400 0
DWIDTH 10 0
BBX 9 9 0 14
BITMAP
0180
0380
0700
0C00
1000
0000
6300
F780
6300
ENDCHAR
STARTCHAR anoteleia
ENCODING 903
SWIDTH 265 0
DWIDTH 7 0
BBX 4 3 1 5
BITMAP
60
F0
60
ENDCHAR
STARTCHAR mu
ENCODING 956
SWIDTH 606 0
DWIDTH 15 0
BBX 14 18 0 -5
BITMAP
3018
F078
7038
7038
7038
7038
7038
7038
7038
7038
7078
79B8
7E3C
6000
6000
7000
7000
3000
ENDCHAR
STARTCHAR uni1E00
ENCODING 7680
SWIDTH 635 0
DWIDTH 16 0
BBX 16 23 0 -6
BITMAP
0180
0180
03C0
03C0
03C0
04E0
04E0
04E0
0870
0870
0FF0
1038
1038
3038
201C
201C
F87F
0000
01C0
0360
0220
0360
01C0
ENDCHAR
STARTCHAR uni1E01
ENCODING 7681
SWIDTH 523 0
DWIDTH 14 0
BBX 13 19 1 -6
BITMAP
3F80
71C0
60E0
00E0
00E0
03E0
1EE0
70E0
E0E0
E0E0
E0E0
F1F8
3E60
0000
0700
0D80
0880
0D80
0700
ENDCHAR
STARTCHAR uni1E02
ENCODING 7682
SWIDTH 646 0
DWIDTH 16 0
BBX 14 21 1 0
BITMAP
0300
0780
0300
0000
FFC0
3870
3838
3838
3838
3838
3830
3860
3FE0
3838
381C
381C
381C
381C
381C
3838
FFE0
ENDCHAR
STARTCHAR uni1E03
ENCODING 7683
SWIDTH 598 0
DWIDTH 15 0
BBX 13 23 1 0
BITMAP
1800
3C00
1800
0000
3000
F000
7000
7000
7000
7000
77C0
7870
7070
7038
7038
7038
7038
7038
7038
7038
7070
7870
47C0
ENDCHAR
STARTCHAR uni1E04
ENCODING 7684
SWIDTH 646 0
DWIDTH 16 0
BBX 14 21 1 -4
BITMAP
FFC0
3870
3838
3838
3838
3838
3830
3860
3FE0
3838
381C
381C
381C
381C
381C
3838
FFE0
0000
0300
0780
0300
ENDCHAR
STARTCHAR uni1E05
ENCODING 7685
SWIDTH 598 0
DWIDTH 15 0
BBX 13 23 1 -4
BITMAP
3000
F000
7000
7000
7000
7000
77C0
7870
7070
7038
7038
7038
7038
7038
7038
7038
7070
7870
47C0
0000
0300
0780
0300
ENDCHAR
STARTCHAR uni1E06
ENCODING 7686
SWIDTH 646 0
DWIDTH 16 0
BBX 14 19 1 -2
BITMAP
FFC0
3870
3838
3838
3838
3838
3830
3860
3FE0
3838
381C
381C
381C
381C
381C
3838
FFE0
0000
1FE0
ENDCHAR
STARTCHAR uni1E07
ENCODING 7687
SWIDTH 598 0
DWIDTH 15 0
BBX 13 21 1 -2
BITMAP
3000
F000
7000
7000
7000
7000
77C0
7870
7070
7038
7038
7038
7038
7038
7038
7038
7070
7870
47C0
0000
1FE0
ENDCHAR
STARTCHAR uni1E08
ENCODING 7688
SWIDTH 680 0
DWIDTH 17 0
BBX 15 28 1 -5
BITMAP
0060
00E0
01C0
0300
0400
0000
07F8
1C0E
3806
7002
7000
E000
E000
E000
E000
E000
E000
E000
7000
7002
3806
1C0E
07F8
0080
0180
00C0
00C0
0380
ENDCHAR
STARTCHAR uni1E09
ENCODING 7689
SWIDTH 496 0
DWIDTH 12 0
BBX 11 24 1 -5
BITMAP
0180
0380
0700
0C00
1000
0000
1F80
71C0
70C0
E000
E000
E000
E000
E000
E000
E000
7060
70C0
1F00
0200
0600
0300
0300
0E00
ENDCHAR
STARTCHAR uni1E0A
ENCODING 7690
SWIDTH 779 0
DWIDTH 19 0
BBX 17 21 1 0
BITMAP
018000
03C000
018000
000000
FFF000
381C00
380E00
380700
380700
380380
380380
380380
380380
380380
380380
380380
380700
380700
380E00
381C00
FFF000
ENDCHAR
STARTCHAR uni1E0B
ENCODING 7691
SWIDTH 598 0
DWIDTH 15 0
BBX 13 23 1 0
BITMAP
00C0
01E0
00C0
0000
0030
00F0
0070
0070
0070
0070
1F70
70F0
7070
E070
E070
E070
E070
E070
E070
E070
7070
70F0
1F38
ENDCHAR
STARTCHAR uni1E0C
ENCODING 7692
SWIDTH 779 0
DWIDTH 19 0
BBX 17 21 1 -4
BITMAP
FFF000
381C00
380E00
380700
380700
380380
380380
380380
380380
380380
380380
380380
380700
380700
380E00
381C00
FFF000
000000
018000
03C000
018000
ENDCHAR
STARTCHAR uni1E0D
ENCODING 7693
SWIDTH 598 0
DWIDTH 15 0
BBX 13 23 1 -4
BITMAP
0030
00F0
0070
0070
0070
0070
1F70
70F0
7070
E070
E070
E070
E070
E070
E070
E070
7070
70F0
1F38
0000
0300
0780
0300
ENDCHAR
STARTCHAR uni1E0E
ENCODING 7694
SWIDTH 779 0
DWIDTH 19 0
BBX 17 19 1 -2
BITMAP
FFF000
381C00
380E00
380700
380700
380380
380380
380380
380380
380380
380380
380380
380700
380700
380E00
381C00
FFF000
000000
0FF000
ENDCHAR
STARTCHAR uni1E0F
ENCODING 7695
SWIDTH 598 0
DWIDTH 15 0
BBX 13 21 1 -2
BITMAP
0030
00F0
0070
0070
0070
0070
1F70
70F0
7070
E070
E070
E070
E070
E070
E070
E070
7070
70F0
1F38
0000
1FE0
ENDCHAR
STARTCHAR uni1E10
ENCODING 7696
SWIDTH 779 0
DWIDTH 19 0
BBX 17 22 1 -5
BITMAP
FFF000
381C00
380E00
380700
380700
380380
380380
380380
380380
380380
380380
380380
380700
380700
380E00
381C00
FFF000
008000
018000
00C000
00C000
038000
ENDCHAR
STARTCHAR uni1E11
ENCODING 7697
SWIDTH 598 0
DWIDTH 15 0
BBX 13 24 1 -5
BITMAP
0030
00F0
0070
0070
0070
0070
1F70
70F0
7070
E070
E070
E070
E070
E070
E070
E070
7070
70F0
1F38
0100
0300
0180
0180
0700
ENDCHAR
STARTCHAR uni1E12
ENCODING 7698
SWIDTH 779 0
DWIDTH 19 0
BBX 17 22 1 -5
BITMAP
FFF000
381C00
380E00
380700
380700
380380
380380
380380
380380
380380
380380
380380
380700
380700
380E00
381C00
FFF000
000000
018000
03C000
066000
0C3000
ENDCHAR
STARTCHAR uni1E13
ENCODING 7699
SWIDTH 598 0
DWIDTH 15 0
BBX 13 24 1 -5
BITMAP
0030
00F0
0070
0070
0070
0070
1F70
70F0
7070
E070
E070
E070
E070
E070
E070
E070
7070
70F0
1F38
0000
0300
0780
0CC0
1860
ENDCHAR
STARTCHAR uni1E14
ENCODING 7700
SWIDTH 606 0
DWIDTH 15 0
BBX 13 25 1 0
BITMAP
3000
3800
1C00
0600
0100
0000
3FC0
0000
FFF0
3830
3810
3810
3800
3800
3820
3820
3FE0
3820
3820
3800
3800
3808
3808
3818
FFF8
ENDCHAR
STARTCHAR uni1E15
ENCODING 7701
SWIDTH 514 0
DWIDTH 13 0
BBX 11 21 1 0
BITMAP
3000
3800
1C00
0600
0100
0000
3FC0
0000
1F00
71C0
71C0
E0E0
E0E0
FFE0
E000
E000
E000
E000
7060
70C0
1F00
ENDCHAR
STARTCHAR uni1E16
ENCODING 7702
SWIDTH 606 0
DWIDTH 15 0
BBX 13 25 1 0
BITMAP
00C0
01C0
0380
0600
0800
0000
3FC0
0000
FFF0
3830
3810
3810
3800
3800
3820
3820
3FE0
3820
3820
3800
3800
3808
3808
3818
FFF8
ENDCHAR
STARTCHAR uni1E17
ENCODING 7703
SWIDTH 514 0
DWIDTH 13 0
BBX 11 21 1 0
BITMAP
00C0
01C0
0380
0600
0800
0000
3FC0
0000
1F00
71C0
71C0
E0E0
E0E0
FFE0
E000
E000
E000
E000
7060
70C0
1F00
ENDCHAR
STARTCHAR uni1E18
ENCODING 7704
SWIDTH 606 0
DWIDTH 15 0
BBX 13 22 1 -5
BITMAP
FFF0
3830
3810
3810
3800
3800
3820
3820
3FE0
3820
3820
3800
3800
3808
3808
3818
FFF8
0000
0600
0F00
1980
30C0
ENDCHAR
STARTCHAR uni1E19
ENCODING 7705
SWIDTH 514 0
DWIDTH 13 0
BBX 11 18 1 -5
BITMAP
1F00
71C0
71C0
E0E0
E0E0
FFE0
E000
E000
E000
E000
7060
70C0
1F00
0000
0C00
1E00
3300
6180
ENDCHAR
STARTCHAR uni1E1A
ENCODING 7706
SWIDTH 606 0
DWIDTH 15 0
BBX 13 21 1 -4
BITMAP
FFF0
3830
3810
3810
3800
3800
3820
3820
3FE0
3820
3820
3800
3800
3808
3808
3818
FFF8
0000
1840
3F80
4300
ENDCHAR
STARTCHAR uni1E1B
ENCODING 7707
SWIDTH 514 0
DWIDTH 13 0
BBX 11 17 1 -4
BITMAP
1F00
71C0
71C0
E0E0
E0E0
FFE0
E000
E000
E000
E000
7060
70C0
1F00
0000
3080
7F00
8600
ENDCHAR
STARTCHAR uni1E1C
ENCODING 7708
SWIDTH 606 0
DWIDTH 15 0
BBX 13 27 1 -5
BITMAP
2040
30C0
1F80
0F00
0000
FFF0
3830
3810
3810
3800
3800
3820
3820
3FE0
3820
3820
3800
3800
3808
3808
3818
FFF8
0200
0600
0300
0300
0E00
ENDCHAR
STARTCHAR uni1E1D
ENCODING 7709
SWIDTH 514 0
DWIDTH 13 0
BBX 11 23 1 -5
BITMAP
2040
30C0
1F80
0F00
0000
1F00
71C0
71C0
E0E0
E0E0
FFE0
E000
E000
E000
E000
7060
70C0
1F00
0400
0C00
0600
0600
1C00
ENDCHAR
STARTCHAR uni1E1E
ENCODING 7710
SWIDTH 580 0
DWIDTH 14 0
BBX 12 21 1 0
BITMAP
0600
0F00
0600
0000
FFF0
3830
3810
3810
3800
3800
3820
3820
3FE0
3820
3820
3800
3800
3800
3800
3800
FE00
ENDCHAR
STARTCHAR uni1E1F
ENCODING 7711
SWIDTH 319 0
DWIDTH 8 0
BBX 9 23 0 0
BITMAP
0C00
1E00
0C00
0000
0F00
1B80
3900
3800
3800
3800
FF00
3800
3800
3800
3800
3800
3800
3800
3800
3800
3800
3800
FE00
ENDCHAR
STARTCHAR uni1E20
ENCODING 7712
SWIDTH 734 0
DWIDTH 18 0
BBX 17 19 1 0
BITMAP
0FF000
000000
07F800
1C0E00
380600
700200
700000
E00000
E00000
E00000
E00000
E00000
E01F80
E00700
700700
700700
380700
1C0F00
07F800
ENDCHAR
STARTCHAR uni1E21
ENCODING 7713
SWIDTH 520 0
DWIDTH 13 0
BBX 13 20 0 -5
BITMAP
1FE0
0000
0F98
38F8
7060
7070
7070
7070
38E0
0F80
1800
3800
3F00
1FE0
33F0
6078
E038
E038
7070
1FC0
ENDCHAR
STARTCHAR uni1E22
ENCODING 7714
SWIDTH 798 0
DWIDTH 20 0
BBX 18 21 1 0
BITMAP
00C000
01E000
00C000
000000
FE1FC0
380700
380700
380700
380700
380700
380700
380700
3FFF00
380700
380700
380700
380700
380700
380700
380700
FE1FC0
ENDCHAR
STARTCHAR uni1E23
ENCODING 7715
SWIDTH 607 0
DWIDTH 16 0
BBX 16 23 0 0
BITMAP
0C00
1E00
0C00
0000
1800
7800
3800
3800
3800
3800
38F8
3B3C
3C1C
381C
381C
381C
381C
381C
381C
381C
381C
381C
FE7F
ENDCHAR
STARTCHAR uni1E24
ENCODING 7716
SWIDTH 798 0
DWIDTH 20 0
BBX 18 21 1 -4
BITMAP
FE1FC0
380700
380700
380700
380700
380700
380700
380700
3FFF00
380700
380700
380700
380700
380700
380700
380700
FE1FC0
000000
00C000
01E000
00C000
ENDCHAR
STARTCHAR uni1E25
ENCODING 7717
SWIDTH 607 0
DWIDTH 16 0
BBX 16 23 0 -4
BITMAP
1800
7800
3800
3800
3800
3800
38F8
3B3C
3C1C
381C
381C
381C
381C
381C
381C
381C
381C
381C
FE7F
0000
0180
03C0
0180
ENDCHAR
STARTCHAR uni1E26
ENCODING 7718
SWIDTH 798 0
DWIDTH 20 0
BBX 18 21 1 0
BITMAP
031800
07BC00
031800
000000
FE1FC0
380700
380700
380700
380700
380700
380700
380700
3FFF00
380700
380700
380700
380700
380700
380700
380700
FE1FC0
ENDCHAR
STARTCHAR uni1E27
ENCODING 7719
SWIDTH 607 0
DWIDTH 16 0
BBX 16 23 0 0
BITMAP
6300
F780
6300
0000
1800
7800
3800
3800
3800
3800
38F8
3B3C
3C1C
381C
381C
381C
381C
381C
381C
381C
381C
381C
FE7F
ENDCHAR
STARTCHAR uni1E28
ENCODING 7720
SWIDTH 798 0
DWIDTH 20 0
BBX 18 22 1 -5
BITMAP
FE1FC0
380700
380700
380700
380700
380700
380700
380700
3FFF00
380700
380700
380700
380700
380700
380700
380700
FE1FC0
004000
00C000
006000
006000
01C000
ENDCHAR
STARTCHAR uni1E29
ENCODING 7721
SWIDTH 607 0
DWIDTH 16 0
BBX 16 24 0 -5
BITMAP
1800
7800
3800
3800
3800
3800
38F8
3B3C
3C1C
381C
381C
381C
381C
381C
381C
381C
381C
381C
FE7F
0080
0180
00C0
00C0
0380
ENDCHAR
STARTCHAR uni1E2A
ENCODING 7722
SWIDTH 798 0
DWIDTH 20 0
BBX 18 22 1 -5
BITMAP
FE1FC0
380700
380700
380700
380700
380700
380700
380700
3FFF00
380700
380700
380700
380700
380700
380700
380700
FE1FC0
000000
040800
061800
03F000
01E000
ENDCHAR
STARTCHAR uni1E2B
ENCODING 7723
SWIDTH 607 0
DWIDTH 16 0
BBX 16 24 0 -5
BITMAP
1800
7800
3800
3800
3800
3800
38F8
3B3C
3C1C
381C
381C
381C
381C
381C
381C
381C
381C
381C
FE7F
0000
0810
0C30
07E0
03C0
ENDCHAR
STARTCHAR uni1E2C
ENCODING 7724
SWIDTH 349 0
DWIDTH 9 0
BBX 9 21 0 -4
BITMAP
7F00
1C00
1C00
1C00
1C00
1C00
1C00
1C00
1C00
1C00
1C00
1C00
1C00
1C00
1C00
1C00
7F00
0000
3080
7F00
8600
ENDCHAR
STARTCHAR uni1E2D
ENCODING 7725
SWIDTH 291 0
DWIDTH 7 0
BBX 9 21 -1 -4
BITMAP
1800
3C00
1800
0000
0C00
3C00
1C00
1C00
1C00
1C00
1C00
1C00
1C00
1C00
1C00
1C00
7F00
0000
3080
7F00
8600
ENDCHAR
STARTCHAR uni1E2E
ENCODING 7726
SWIDTH 349 0
DWIDTH 9 0
BBX 9 25 0 0
BITMAP
0180
0380
0700
0C00
1000
0000
6300
F780
6300
0000
7F00
1C00
1C00
1C00
1C00
1C00
1C00
1C00
1C00
1C00
1C00
1C00
1C00
1C00
7F00
ENDCHAR
STARTCHAR uni1E2F
ENCODING 7727
SWIDTH 291 0
DWIDTH 7 0
BBX 9 23 -1 0
BITMAP
0180
0380
0700
0C00
1000
0000
6300
F780
6300
0000
0C00
3C00
1C00
1C00
1C00
1C00
1C00
1C00
1C00
1C00
1C00
1C00
7F00
ENDCHAR
STARTCHAR uni1E30
ENCODING 7728
SWIDTH 658 0
DWIDTH 17 0
BBX 16 23 1 0
BITMAP
0060
00E0
01C0
0300
0400
0000
FE3F
381C
3830
3860
38C0
3980
3B00
3F00
3B80
39C0
39E0
38E0
3870
3878
383C
381E
FE0F
ENDCHAR
STARTCHAR uni1E31
ENCODING 7729
SWIDTH 524 0
DWIDTH 13 0
BBX 14 25 0 0
BITMAP
0180
0380
0700
0C00
1000
0000
1800
7800
3800
3800
3800
3800
3878
38F0
39C0
3980
3B00
3E00
3F00
3B80
39C0
39E0
38F0
3878
FE3C
ENDCHAR
STARTCHAR uni1E32
ENCODING 7730
SWIDTH 658 0
DWIDTH 17 0
BBX 16 21 1 -4
BITMAP
FE3F
381C
3830
3860
38C0
3980
3B00
3F00
3B80
39C0
39E0
38E0
3870
3878
383C
381E
FE0F
0000
0180
03C0
0180
ENDCHAR
STARTCHAR uni1E33
ENCODING 7731
SWIDTH 524 0
DWIDTH 13 0
BBX 14 23 0 -4
BITMAP
1800
7800
3800
3800
3800
3800
3878
38F0
39C0
3980
3B00
3E00
3F00
3B80
39C0
39E0
38F0
3878
FE3C
0000
0300
0780
0300
ENDCHAR
STARTCHAR uni1E34
ENCODING 7732
SWIDTH 658 0
DWIDTH 17 0
BBX 16 19 1 -2
BITMAP
FE3F
381C
3830
3860
38C0
3980
3B00
3F00
3B80
39C0
39E0
38E0
3870
3878
383C
381E
FE0F
0000
0FF0
ENDCHAR
STARTCHAR uni1E35
ENCODING 7733
SWIDTH 524 0
DWIDTH 13 0
BBX 14 21 0 -2
BITMAP
1800
7800
3800
3800
3800
3800
3878
38F0
39C0
3980
3B00
3E00
3F00
3B80
39C0
39E0
38F0
3878
FE3C
0000
1FE0
ENDCHAR
STARTCHAR uni1E36
ENCODING 7734
SWIDTH 568 0
DWIDTH 15 0
BBX 13 21 1 -4
BITMAP
FE00
3800
3800
3800
3800
3800
3800
3800
3800
3800
3800
3800
3800
3808
3808
3818
FFF8
0000
0600
0F00
0600
ENDCHAR
STARTCHAR uni1E37
ENCODING 7735
SWIDTH 279 0
DWIDTH 7 0
BBX 7 23 0 -4
BITMAP
18
78
38
38
38
38
38
38
38
38
38
38
38
38
38
38
38
38
FE
00
18
3C
18
ENDCHAR
STARTCHAR uni1E38
ENCODING 7736
SWIDTH 568 0
DWIDTH 15 0
BBX 13 23 1 -4
BITMAP
7F80
0000
FE00
3800
3800
3800
3800
3800
3800
3800
3800
3800
3800
3800
3800
3808
3808
3818
FFF8
0000
0600
0F00
0600
ENDCHAR
STARTCHAR uni1E39
ENCODING 7737
SWIDTH 279 0
DWIDTH 7 0
BBX 8 25 -1 -4
BITMAP
FF
00
0C
3C
1C
1C
1C
1C
1C
1C
1C
1C
1C
1C
1C
1C
1C
1C
1C
1C
7F
00
0C
1E
0C
ENDCHAR
STARTCHAR uni1E3A
ENCODING 7738
SWIDTH 568 0
DWIDTH 15 0
BBX 13 19 1 -2
BITMAP
FE00
3800
3800
3800
3800
3800
3800
3800
3800
3800
3800
3800
3800
3808
3808
3818
FFF8
0000
3FC0
ENDCHAR
STARTCHAR uni1E3B
ENCODING 7739
SWIDTH 279 0
DWIDTH 7 0
BBX 8 21 0 -2
BITMAP
18
78
38
38
38
38
38
38
38
38
38
38
38
38
38
38
38
38
FE
00
FF
ENDCHAR
STARTCHAR uni1E3C
ENCODING 7740
SWIDTH 568 0
DWIDTH 15 0
BBX 13 22 1 -5
BITMAP
FE00
3800
3800
3800
3800
3800
3800
3800
3800
3800
3800
3800
3800
3808
3808
3818
FFF8
0000
0600
0F00
1980
30C0
ENDCHAR
STARTCHAR uni1E3D
ENCODING 7741
SWIDTH 279 0
DWIDTH 7 0
BBX 8 24 0 -5
BITMAP
18
78
38
38
38
38
38
38
38
38
38
38
38
38
38
38
38
38
FE
00
18
3C
66
C3
ENDCHAR
STARTCHAR uni1E3E
ENCODING 7742
SWIDTH 944 0
DWIDTH 23 0
BBX 21 23 1 0
BITMAP
000600
000E00
001C00
003000
004000
000000
F800F8
3800E0
3C01E0
3C01E0
2E02E0
2E02E0
2704E0
2704E0
2388E0
2388E0
21D0E0
21D0E0
20E0E0
20E0E0
2040E0
3040E0
FC03F8
ENDCHAR
STARTCHAR uni1E3F
ENCODING 7743
SWIDTH 923 0
DWIDTH 23 0
BBX 23 19 0 0
BITMAP
000600
000E00
001C00
003000
004000
000000
19E1E0
7A7A70
3C3C38
383838
383838
383838
383838
383838
383838
383838
383838
383838
FEFEFE
ENDCHAR
STARTCHAR uni1E40
ENCODING 7744
SWIDTH 944 0
DWIDTH 23 0
BBX 21 21 1 0
BITMAP
003000
007800
003000
000000
F800F8
3800E0
3C01E0
3C01E0
2E02E0
2E02E0
2704E0
2704E0
2388E0
2388E0
21D0E0
21D0E0
20E0E0
20E0E0
2040E0
3040E0
FC03F8
ENDCHAR
STARTCHAR uni1E41
ENCODING 7745
SWIDTH 923 0
DWIDTH 23 0
BBX 23 17 0 0
BITMAP
003000
007800
003000
000000
19E1E0
7A7A70
3C3C38
383838
383838
383838
383838
383838
383838
383838
383838
383838
FEFEFE
ENDCHAR
STARTCHAR uni1E42
ENCODING 7746
SWIDTH 944 0
DWIDTH 23 0
BBX 21 21 1 -4
BITMAP
F800F8
3800E0
3C01E0
3C01E0
2E02E0
2E02E0
2704E0
2704E0
2388E0
2388E0
21D0E0
21D0E0
20E0E0
20E0E0
2040E0
3040E0
FC03F8
000000
003000
007800
003000
ENDCHAR
STARTCHAR uni1E43
ENCODING 7747
SWIDTH 923 0
DWIDTH 23 0
BBX 23 17 0 -4
BITMAP
19E1E0
7A7A70
3C3C38
383838
383838
383838
383838
383838
383838
383838
383838
383838
FEFEFE
000000
001800
003C00
001800
ENDCHAR
STARTCHAR uni1E44
ENCODING 7748
SWIDTH 780 0
DWIDTH 19 0
BBX 17 21 1 0
BITMAP
018000
03C000
018000
000000
F01F80
380600
3C0200
3C0200
2E0200
270200
278200
238200
21C200
21E200
20E200
207200
203A00
203E00
201E00
300E00
FC0600
ENDCHAR
STARTCHAR uni1E45
ENCODING 7749
SWIDTH 619 0
DWIDTH 15 0
BBX 16 17 0 0
BITMAP
0180
03C0
0180
0000
18F0
7B38
3C1C
381C
381C
381C
381C
381C
381C
381C
381C
381C
FE7F
ENDCHAR
STARTCHAR uni1E46
ENCODING 7750
SWIDTH 780 0
DWIDTH 19 0
BBX 17 21 1 -4
BITMAP
F01F80
380600
3C0200
3C0200
2E0200
270200
278200
238200
21C200
21E200
20E200
207200
203A00
203E00
201E00
300E00
FC0600
000000
00C000
01E000
00C000
ENDCHAR
STARTCHAR uni1E47
ENCODING 7751
SWIDTH 619 0
DWIDTH 15 0
BBX 16 17 0 -4
BITMAP
18F0
7B38
3C1C
381C
381C
381C
381C
381C
381C
381C
381C
381C
FE7F
0000
0180
03C0
0180
ENDCHAR
STARTCHAR uni1E48
ENCODING 7752
SWIDTH 780 0
DWIDTH 19 0
BBX 17 19 1 -2
BITMAP
F01F80
380600
3C0200
3C0200
2E0200
270200
278200
238200
21C200
21E200
20E200
207200
203A00
203E00
201E00
300E00
FC0600
000000
07F800
ENDCHAR
STARTCHAR uni1E49
ENCODING 7753
SWIDTH 619 0
DWIDTH 15 0
BBX 16 15 0 -2
BITMAP
18F0
7B38
3C1C
381C
381C
381C
381C
381C
381C
381C
381C
381C
FE7F
0000
0FF0
ENDCHAR
STARTCHAR uni1E4A
ENCODING 7754
SWIDTH 780 0
DWIDTH 19 0
BBX 17 22 1 -5
BITMAP
F01F80
380600
3C0200
3C0200
2E0200
270200
278200
238200
21C200
21E200
20E200
207200
203A00
203E00
201E00
300E00
FC0600
000000
00C000
01E000
033000
061800
ENDCHAR
STARTCHAR uni1E4B
ENCODING 7755
SWIDTH 619 0
DWIDTH 15 0
BBX 16 18 0 -5
BITMAP
18F0
7B38
3C1C
381C
381C
381C
381C
381C
381C
381C
381C
381C
FE7F
0000
0180
03C0
0660
0C30
ENDCHAR
STARTCHAR uni1E4C
ENCODING 7756
SWIDTH 762 0
DWIDTH 19 0
BBX 17 25 1 0
BITMAP
001800
003800
007000
00C000
010000
000000
030800
07F000
086000
000000
07F000
1C1C00
380E00
700700
700700
E00380
E00380
E00380
E00380
E00380
700700
700700
380E00
1C1C00
07F000
ENDCHAR
STARTCHAR uni1E4D
ENCODING 7757
SWIDTH 577 0
DWIDTH 14 0
BBX 12 23 1 0
BITMAP
00C0
01C0
0380
0600
0800
0000
1840
3F80
4300
0000
1F80
70E0
70E0
E070
E070
E070
E070
E070
E070
E070
70E0
70E0
1F80
ENDCHAR
STARTCHAR uni1E4E
ENCODING 7758
SWIDTH 762 0
DWIDTH 19 0
BBX 17 23 1 0
BITMAP
063000
0F7800
063000
000000
030800
07F000
086000
000000
07F000
1C1C00
380E00
700700
700700
E00380
E00380
E00380
E00380
E00380
700700
700700
380E00
1C1C00
07F000
ENDCHAR
STARTCHAR uni1E4F
ENCODING 7759
SWIDTH 577 0
DWIDTH 14 0
BBX 12 21 1 0
BITMAP
3180
7BC0
3180
0000
1840
3F80
4300
0000
1F80
70E0
70E0
E070
E070
E070
E070
E070
E070
E070
70E0
70E0
1F80
ENDCHAR
STARTCHAR uni1E50
ENCODING 7760
SWIDTH 762 0
DWIDTH 19 0
BBX 17 25 1 0
BITMAP
060000
070000
038000
00C000
002000
000000
07F800
000000
07F000
1C1C00
380E00
700700
700700
E00380
E00380
E00380
E00380
E00380
E00380
E00380
700700
700700
380E00
1C1C00
07F000
ENDCHAR
STARTCHAR uni1E51
ENCODING 7761
SWIDTH 577 0
DWIDTH 14 0
BBX 12 21 1 0
BITMAP
3000
3800
1C00
0600
0100
0000
3FC0
0000
1F80
70E0
70E0
E070
E070
E070
E070
E070
E070
E070
70E0
70E0
1F80
ENDCHAR
STARTCHAR uni1E52
ENCODING 7762
SWIDTH 762 0
DWIDTH 19 0
BBX 17 25 1 0
BITMAP
001800
003800
007000
00C000
010000
000000
07F800
000000
07F000
1C1C00
380E00
700700
700700
E00380
E00380
E00380
E00380
E00380
E00380
E00380
700700
700700
380E00
1C1C00
07F000
ENDCHAR
STARTCHAR uni1E53
ENCODING 7763
SWIDTH 577 0
DWIDTH 14 0
BBX 12 21 1 0
BITMAP
00C0
01C0
0380
0600
0800
0000
3FC0
0000
1F80
70E0
70E0
E070
E070
E070
E070
E070
E070
E070
70E0
70E0
1F80
ENDCHAR
STARTCHAR uni1E54
ENCODING 7764
SWIDTH 600 0
DWIDTH 15 0
BBX 13 23 1 0
BITMAP
0060
00E0
01C0
0300
0400
0000
FFC0
3870
3838
3838
3838
3838
3838
3838
3870
3FC0
3800
3800
3800
3800
3800
3800
FE00
ENDCHAR
STARTCHAR uni1E55
ENCODING 7765
SWIDTH 608 0
DWIDTH 15 0
BBX 14 24 0 -5
BITMAP
0060
00E0
01C0
0300
0400
0000
33E0
7C38
3838
381C
381C
381C
381C
381C
381C
381C
3838
3C38
3BE0
3800
3800
3800
3800
FE00
ENDCHAR
STARTCHAR uni1E56
ENCODING 7766
SWIDTH 600 0
DWIDTH 15 0
BBX 13 21 1 0
BITMAP
0300
0780
0300
0000
FFC0
3870
3838
3838
3838
3838
3838
3838
3870
3FC0
3800
3800
3800
3800
3800
3800
FE00
ENDCHAR
STARTCHAR uni1E57
ENCODING 7767
SWIDTH 608 0
DWIDTH 15 0
BBX 14 22 0 -5
BITMAP
0300
0780
0300
0000
33E0
7C38
3838
381C
381C
381C
381C
381C
381C
381C
3838
3C38
3BE0
3800
3800
3800
3800
FE00
ENDCHAR
STARTCHAR uni1E58
ENCODING 7768
SWIDTH 644 0
DWIDTH 16 0
BBX 15 21 1 0
BITMAP
0300
0780
0300
0000
FFC0
3870
3838
3838
3838
3838
3830
3860
3FC0
38E0
3870
3870
3870
3838
3838
3838
FE1E
ENDCHAR
STARTCHAR uni1E59
ENCODING 7769
SWIDTH 389 0
DWIDTH 10 0
BBX 10 17 0 0
BITMAP
0C00
1E00
0C00
0000
1980
7BC0
3D80
3800
3800
3800
3800
3800
3800
3800
3800
3800
FE00
ENDCHAR
STARTCHAR uni1E5A
ENCODING 7770
SWIDTH 644 0
DWIDTH 16 0
BBX 15 21 1 -4
BITMAP
FFC0
3870
3838
3838
3838
3838
3830
3860
3FC0
38E0
3870
3870
3870
3838
3838
3838
FE1E
0000
0300
0780
0300
ENDCHAR
STARTCHAR uni1E5B
ENCODING 7771
SWIDTH 389 0
DWIDTH 10 0
BBX 10 17 0 -4
BITMAP
1980
7BC0
3D80
3800
3800
3800
3800
3800
3800
3800
3800
3800
FE00
0000
1800
3C00
1800
ENDCHAR
STARTCHAR uni1E5C
ENCODING 7772
SWIDTH 644 0
DWIDTH 16 0
BBX 15 23 1 -4
BITMAP
1FE0
0000
FFC0
3870
3838
3838
3838
3838
3830
3860
3FC0
38E0
3870
3870
3870
3838
3838
3838
FE1E
0000
0300
0780
0300
ENDCHAR
STARTCHAR uni1E5D
ENCODING 7773
SWIDTH 389 0
DWIDTH 10 0
BBX 10 19 0 -4
BITMAP
7F80
0000
1980
7BC0
3D80
3800
3800
3800
3800
3800
3800
3800
3800
3800
FE00
0000
1800
3C00
1800
ENDCHAR
STARTCHAR uni1E5E
ENCODING 7774
SWIDTH 644 0
DWIDTH 16 0
BBX 15 19 1 -2
BITMAP
FFC0
3870
3838
3838
3838
3838
3830
3860
3FC0
38E0
3870
3870
3870
3838
3838
3838
FE1E
0000
1FE0
ENDCHAR
STARTCHAR uni1E5F
ENCODING 7775
SWIDTH 389 0
DWIDTH 10 0
BBX 10 15 0 -2
BITMAP
1980
7BC0
3D80
3800
3800
3800
3800
3800
3800
3800
3800
3800
FE00
0000
FF00
ENDCHAR
STARTCHAR uni1E60
ENCODING 7776
SWIDTH 541 0
DWIDTH 14 0
BBX 12 21 1 0
BITMAP
0C00
1E00
0C00
0000
1F80
70E0
C060
C020
C000
E000
F800
7F00
1FC0
07E0
00F0
0070
0030
8030
C030
E0E0
3F80
ENDCHAR
STARTCHAR uni1E61
ENCODING 7777
SWIDTH 436 0
DWIDTH 11 0
BBX 9 17 1 0
BITMAP
1800
3C00
1800
0000
3F00
6300
C100
C000
E000
F800
7F00
0F80
0380
8180
C180
E300
7E00
ENDCHAR
STARTCHAR uni1E62
ENCODING 7778
SWIDTH 541 0
DWIDTH 14 0
BBX 12 21 1 -4
BITMAP
1F80
70E0
C060
C020
C000
E000
F800
7F00
1FC0
07E0
00F0
0070
0030
8030
C030
E0E0
3F80
0000
0600
0F00
0600
ENDCHAR
STARTCHAR uni1E63
ENCODING 7779
SWIDTH 436 0
DWIDTH 11 0
BBX 9 17 1 -4
BITMAP
3F00
6300
C100
C000
E000
F800
7F00
0F80
0380
8180
C180
E300
7E00
0000
1800
3C00
1800
ENDCHAR
STARTCHAR uni1E64
ENCODING 7780
SWIDTH 541 0
DWIDTH 14 0
BBX 12 27 1 0
BITMAP
0600
0F00
0600
0000
0180
0380
0700
0C00
1000
0000
1F80
70E0
C060
C020
C000
E000
F800
7F00
1FC0
07E0
00F0
0070
0030
8030
C030
E0E0
3F80
ENDCHAR
STARTCHAR uni1E65
ENCODING 7781
SWIDTH 436 0
DWIDTH 11 0
BBX 9 23 1 0
BITMAP
0C00
1E00
0C00
0000
0300
0700
0E00
1800
2000
0000
3F00
6300
C100
C000
E000
F800
7F00
0F80
0380
8180
C180
E300
7E00
ENDCHAR
STARTCHAR uni1E66
ENCODING 7782
SWIDTH 541 0
DWIDTH 14 0
BBX 12 24 1 0
BITMAP
0600
0F00
0600
0000
30C0
1980
0F00
0600
0000
1F80
60E0
C060
C020
E000
F800
7F00
1FC0
07E0
00F0
0070
8030
C030
E060
3F80
ENDCHAR
STARTCHAR uni1E67
ENCODING 7783
SWIDTH 436 0
DWIDTH 11 0
BBX 9 22 1 0
BITMAP
1800
3C00
1800
0000
C300
6600
3C00
1800
0000
3F00
6300
C100
C000
E000
F800
7F00
0F80
0380
8180
C180
E300
7E00
ENDCHAR
STARTCHAR uni1E68
ENCODING 7784
SWIDTH 541 0
DWIDTH 14 0
BBX 12 25 1 -4
BITMAP
0C00
1E00
0C00
0000
1F80
70E0
C060
C020
C000
E000
F800
7F00
1FC0
07E0
00F0
0070
0030
8030
C030
E0E0
3F80
0000
0600
0F00
0600
ENDCHAR
STARTCHAR uni1E69
ENCODING 7785
SWIDTH 436 0
DWIDTH 11 0
BBX 9 21 1 -4
BITMAP
1800
3C00
1800
0000
3F00
6300
C100
C000
E000
F800
7F00
0F80
0380
8180
C180
E300
7E00
0000
1800
3C00
1800
ENDCHAR
STARTCHAR uni1E6A
ENCODING 7786
SWIDTH 621 0
DWIDTH 15 0
BBX 15 21 0 0
BITMAP
0180
03C0
0180
0000
FFFE
C386
8382
8382
0380
0380
0380
0380
0380
0380
0380
0380
0380
0380
0380
0380
0FE0
ENDCHAR
STARTCHAR uni1E6B
ENCODING 7787
SWIDTH 344 0
DWIDTH 9 0
BBX 8 20 0 0
BITMAP
18
3C
18
00
08
18
38
FF
38
38
38
38
38
38
38
38
38
38
39
1E
ENDCHAR
STARTCHAR uni1E6C
ENCODING 7788
SWIDTH 621 0
DWIDTH 15 0
BBX 15 21 0 -4
BITMAP
FFFE
C386
8382
8382
0380
0380
0380
0380
0380
0380
0380
0380
0380
0380
0380
0380
0FE0
0000
0180
03C0
0180
ENDCHAR
STARTCHAR uni1E6D
ENCODING 7789
SWIDTH 344 0
DWIDTH 9 0
BBX 8 20 0 -4
BITMAP
08
18
38
FF
38
38
38
38
38
38
38
38
38
38
39
1E
00
18
3C
18
ENDCHAR
STARTCHAR uni1E6E
ENCODING 7790
SWIDTH 621 0
DWIDTH 15 0
BBX 15 19 0 -2
BITMAP
FFFE
C386
8382
8382
0380
0380
0380
0380
0380
0380
0380
0380
0380
0380
0380
0380
0FE0
0000
0FF0
ENDCHAR
STARTCHAR uni1E6F
ENCODING 7791
SWIDTH 344 0
DWIDTH 9 0
BBX 8 18 0 -2
BITMAP
08
18
38
FF
38
38
38
38
38
38
38
38
38
38
39
1E
00
FF
ENDCHAR
STARTCHAR uni1E70
ENCODING 7792
SWIDTH 621 0
DWIDTH 15 0
BBX 15 22 0 -5
BITMAP
FFFE
C386
8382
8382
0380
0380
0380
0380
0380
0380
0380
0380
0380
0380
0380
0380
0FE0
0000
0180
03C0
0660
0C30
ENDCHAR
STARTCHAR uni1E71
ENCODING 7793
SWIDTH 344 0
DWIDTH 9 0
BBX 8 21 0 -5
BITMAP
08
18
38
FF
38
38
38
38
38
38
38
38
38
38
39
1E
00
18
3C
66
C3
ENDCHAR
STARTCHAR uni1E72
ENCODING 7794
SWIDTH 791 0
DWIDTH 20 0
BBX 18 21 1 -4
BITMAP
FE1FC0
380700
380700
380700
380700
380700
380700
380700
380700
380700
380700
380700
380700
380700
180600
0C0C00
03F000
000000
031800
07BC00
031800
ENDCHAR
STARTCHAR uni1E73
ENCODING 7795
SWIDTH 606 0
DWIDTH 15 0
BBX 14 17 0 -4
BITMAP
3018
F078
7038
7038
7038
7038
7038
7038
7038
7038
7078
39B8
1E3C
0000
0C60
1EF0
0C60
ENDCHAR
STARTCHAR uni1E74
ENCODING 7796
SWIDTH 791 0
DWIDTH 20 0
BBX 18 21 1 -4
BITMAP
FE1FC0
380700
380700
380700
380700
380700
380700
380700
380700
380700
380700
380700
380700
380700
180600
0C0C00
03F000
000000
030800
07F000
086000
ENDCHAR
STARTCHAR uni1E75
ENCODING 7797
SWIDTH 606 0
DWIDTH 15 0
BBX 14 17 0 -4
BITMAP
3018
F078
7038
7038
7038
7038
7038
7038
7038
7038
7078
39B8
1E3C
0000
0610
0FE0
10C0
ENDCHAR
STARTCHAR uni1E76
ENCODING 7798
SWIDTH 791 0
DWIDTH 20 0
BBX 18 22 1 -5
BITMAP
FE1FC0
380700
380700
380700
380700
380700
380700
380700
380700
380700
380700
380700
380700
380700
180600
0C0C00
03F000
000000
00C000
01E000
033000
061800
ENDCHAR
STARTCHAR uni1E77
ENCODING 7799
SWIDTH 606 0
DWIDTH 15 0
BBX 14 18 0 -5
BITMAP
3018
F078
7038
7038
7038
7038
7038
7038
7038
7038
7078
39B8
1E3C
0000
0300
0780
0CC0
1860
ENDCHAR
STARTCHAR uni1E78
ENCODING 7800
SWIDTH 791 0
DWIDTH 20 0
BBX 18 27 1 0
BITMAP
001800
003800
007000
00C000
010000
000000
018400
03F800
043000
000000
FE1FC0
380700
380700
380700
380700
380700
380700
380700
380700
380700
380700
380700
380700
380700
180600
0C0C00
03F000
ENDCHAR
STARTCHAR uni1E79
ENCODING 7801
SWIDTH 606 0
DWIDTH 15 0
BBX 14 23 0 0
BITMAP
0060
00E0
01C0
0300
0400
0000
0610
0FE0
10C0
0000
3018
F078
7038
7038
7038
7038
7038
7038
7038
7038
7078
39B8
1E3C
ENDCHAR
STARTCHAR uni1E7A
ENCODING 7802
SWIDTH 791 0
DWIDTH 20 0
BBX 18 23 1 0
BITMAP
031800
07BC00
031800
000000
07F800
000000
FE1FC0
380700
380700
380700
380700
380700
380700
380700
380700
380700
380700
380700
380700
380700
180600
0C0C00
03F000
ENDCHAR
STARTCHAR uni1E7B
ENCODING 7803
SWIDTH 606 0
DWIDTH 15 0
BBX 14 19 0 0
BITMAP
18C0
3DE0
18C0
0000
1FE0
0000
3018
F078
7038
7038
7038
7038
7038
7038
7038
7038
7078
39B8
1E3C
ENDCHAR
STARTCHAR uni1E7C
ENCODING 7804
SWIDTH 634 0
DWIDTH 16 0
BBX 16 21 0 0
BITMAP
0610
0FE0
10C0
0000
FE1F
3804
3804
1C08
1C08
1C08
0E10
0E10
0E10
0720
0720
0720
03C0
03C0
03C0
0180
0180
ENDCHAR
STARTCHAR uni1E7D
ENCODING 7805
SWIDTH 504 0
DWIDTH 13 0
BBX 13 17 0 0
BITMAP
1840
3F80
4300
0000
F838
7010
7010
3820
3820
3820
1C40
1C40
0E80
0E80
0F80
0700
0700
ENDCHAR
STARTCHAR uni1E7E
ENCODING 7806
SWIDTH 634 0
DWIDTH 16 0
BBX 16 21 0 -4
BITMAP
FE1F
3804
3804
1C08
1C08
1C08
0E10
0E10
0E10
0720
0720
0720
03C0
03C0
03C0
0180
0180
0000
0180
03C0
0180
ENDCHAR
STARTCHAR uni1E7F
ENCODING 7807
SWIDTH 504 0
DWIDTH 13 0
BBX 13 17 0 -4
BITMAP
F838
7010
7010
3820
3820
3820
1C40
1C40
0E80
0E80
0F80
0700
0700
0000
0600
0F00
0600
ENDCHAR
STARTCHAR Wgrave
ENCODING 7808
SWIDTH 940 0
DWIDTH 24 0
BBX 24 23 0 0
BITMAP
018000
01C000
00E000
003000
000800
000000
FE0C1F
380C04
381E04
381E04
1C1608
1C1608
1C2708
1C2708
0E2710
0E4390
0E4390
0E4390
0781E0
0781E0
0781E0
0300C0
0300C0
ENDCHAR
STARTCHAR wgrave
ENCODING 7809
SWIDTH 768 0
DWIDTH 19 0
BBX 19 19 0 0
BITMAP
060000
070000
038000
00C000
002000
000000
F870E0
707040
707040
707040
38B880
38B880
38B880
1D1D00
1D1D00
1D1D00
0E0E00
0E0E00
0E0E00
ENDCHAR
STARTCHAR Wacute
ENCODING 7810
SWIDTH 940 0
DWIDTH 24 0
BBX 24 23 0 0
BITMAP
000600
000E00
001C00
003000
004000
000000
FE0C1F
380C04
381E04
381E04
1C1608
1C1608
1C2708
1C2708
0E2710
0E4390
0E4390
0E4390
0781E0
0781E0
0781E0
0300C0
0300C0
ENDCHAR
STARTCHAR wacute
ENCODING 7811
SWIDTH 768 0
DWIDTH 19 0
BBX 19 19 0 0
BITMAP
001800
003800
007000
00C000
010000
000000
F870E0
707040
707040
707040
38B880
38B880
38B880
1D1D00
1D1D00
1D1D00
0E0E00
0E0E00
0E0E00
ENDCHAR
STARTCHAR Wdieresis
ENCODING 7812
SWIDTH 940 0
DWIDTH 24 0
BBX 24 21 0 0
BITMAP
00C600
01EF00
00C600
000000
FE0C1F
380C04
381E04
381E04
1C1608
1C1608
1C2708
1C2708
0E2710
0E4390
0E4390
0E4390
0781E0
0781E0
0781E0
0300C0
0300C0
ENDCHAR
STARTCHAR wdieresis
ENCODING 7813
SWIDTH 768 0
DWIDTH 19 0
BBX 19 17 0 0
BITMAP
063000
0F7800
063000
000000
F870E0
707040
707040
707040
38B880
38B880
38B880
1D1D00
1D1D00
1D1D00
0E0E00
0E0E00
0E0E00
ENDCHAR
STARTCHAR uni1E86
ENCODING 7814
SWIDTH 940 0
DWIDTH 24 0
BBX 24 21 0 0
BITMAP
003000
007800
003000
000000
FE0C1F
380C04
381E04
381E04
1C1608
1C1608
1C2708
1C2708
0E2710
0E4390
0E4390
0E4390
0781E0
0781E0
0781E0
0300C0
0300C0
ENDCHAR
STARTCHAR uni1E87
ENCODING 7815
SWIDTH 768 0
DWIDTH 19 0
BBX 19 17 0 0
BITMAP
00C000
01E000
00C000
000000
F870E0
707040
707040
707040
38B880
38B880
38B880
1D1D00
1D1D00
1D1D00
0E0E00
0E0E00
0E0E00
ENDCHAR
STARTCHAR uni1E88
ENCODING 7816
SWIDTH 940 0
DWIDTH 24 0
BBX 24 21 0 -4
BITMAP
FE0C1F
380C04
381E04
381E04
1C1608
1C1608
1C2708
1C2708
0E2710
0E4390
0E4390
0E4390
0781E0
0781E0
0781E0
0300C0
0300C0
000000
001800
003C00
001800
ENDCHAR
STARTCHAR uni1E89
ENCODING 7817
SWIDTH 768 0
DWIDTH 19 0
BBX 19 17 0 -4
BITMAP
F870E0
707040
707040
707040
38B880
38B880
38B880
1D1D00
1D1D00
1D1D00
0E0E00
0E0E00
0E0E00
000000
00C000
01E000
00C000
ENDCHAR
STARTCHAR uni1E8A
ENCODING 7818
SWIDTH 624 0
DWIDTH 16 0
BBX 16 21 0 0
BITMAP
0300
0780
0300
0000
FE1F
3804
1C08
1C10
0E10
0720
0740
03C0
0180
03C0
02E0
04E0
0870
0838
1038
201C
F87F
ENDCHAR
STARTCHAR uni1E8B
ENCODING 7819
SWIDTH 486 0
DWIDTH 12 0
BBX 12 17 0 0
BITMAP
0600
0F00
0600
0000
FCF0
3860
1C40
1C80
0E80
0F00
0700
0780
0B80
09C0
11C0
30E0
F9F0
ENDCHAR
STARTCHAR uni1E8C
ENCODING 7820
SWIDTH 624 0
DWIDTH 16 0
BBX 16 21 0 0
BITMAP
0C60
1EF0
0C60
0000
FE1F
3804
1C08
1C10
0E10
0720
0740
03C0
0180
03C0
02E0
04E0
0870
0838
1038
201C
F87F
ENDCHAR
STARTCHAR uni1E8D
ENCODING 7821
SWIDTH 486 0
DWIDTH 12 0
BBX 12 17 0 0
BITMAP
3180
7BC0
3180
0000
FCF0
3860
1C40
1C80
0E80
0F00
0700
0780
0B80
09C0
11C0
30E0
F9F0
ENDCHAR
STARTCHAR uni1E8E
ENCODING 7822
SWIDTH 588 0
DWIDTH 16 0
BBX 16 21 0 0
BITMAP
0300
0780
0300
0000
FE1F
3804
1C08
1C08
0E10
0E10
0720
0720
03C0
03C0
01C0
01C0
01C0
01C0
01C0
01C0
07F0
ENDCHAR
STARTCHAR uni1E8F
ENCODING 7823
SWIDTH 506 0
DWIDTH 13 0
BBX 13 22 0 -5
BITMAP
0600
0F00
0600
0000
F838
7010
7010
3820
3820
1C40
1C40
1C40
0E80
0E80
0700
0700
0600
0600
0400
CC00
F800
7000
ENDCHAR
STARTCHAR uni1E90
ENCODING 7824
SWIDTH 610 0
DWIDTH 15 0
BBX 13 22 1 0
BITMAP
0300
0780
0CC0
1860
0000
FFF8
C038
8070
8070
00E0
01C0
01C0
0380
0700
0700
0E00
1C00
1C00
3800
7008
7018
FFF8
ENDCHAR
STARTCHAR uni1E91
ENCODING 7825
SWIDTH 480 0
DWIDTH 12 0
BBX 10 18 1 0
BITMAP
0C00
1E00
3300
6180
0000
FFC0
C1C0
8380
0380
0700
0E00
0E00
1C00
3800
3800
7040
E0C0
FFC0
ENDCHAR
STARTCHAR uni1E92
ENCODING 7826
SWIDTH 610 0
DWIDTH 15 0
BBX 13 21 1 -4
BITMAP
FFF8
C038
8070
8070
00E0
01C0
01C0
0380
0700
0700
0E00
1C00
1C00
3800
7008
7018
FFF8
0000
0600
0F00
0600
ENDCHAR
STARTCHAR uni1E93
ENCODING 7827
SWIDTH 480 0
DWIDTH 12 0
BBX 10 17 1 -4
BITMAP
FFC0
C1C0
8380
0380
0700
0E00
0E00
1C00
3800
3800
7040
E0C0
FFC0
0000
0C00
1E00
0C00
ENDCHAR
STARTCHAR uni1E94
ENCODING 7828
SWIDTH 610 0
DWIDTH 15 0
BBX 13 19 1 -2
BITMAP
FFF8
C038
8070
8070
00E0
01C0
01C0
0380
0700
0700
0E00
1C00
1C00
3800
7008
7018
FFF8
0000
3FC0
ENDCHAR
STARTCHAR uni1E95
ENCODING 7829
SWIDTH 480 0
DWIDTH 12 0
BBX 10 15 1 -2
BITMAP
FFC0
C1C0
8380
0380
0700
0E00
0E00
1C00
3800
3800
7040
E0C0
FFC0
0000
7F80
ENDCHAR
STARTCHAR uni1E96
ENCODING 7830
SWIDTH 607 0
DWIDTH 16 0
BBX 16 21 0 -2
BITMAP
1800
7800
3800
3800
3800
3800
38F8
3B3C
3C1C
381C
381C
381C
381C
381C
381C
381C
381C
381C
FE7F
0000
0FF0
ENDCHAR
STARTCHAR uni1E97
ENCODING 7831
SWIDTH 344 0
DWIDTH 9 0
BBX 9 20 -1 0
BITMAP
6300
F780
6300
0000
0400
0C00
1C00
7F80
1C00
1C00
1C00
1C00
1C00
1C00
1C00
1C00
1C00
1C00
1C80
0F00
ENDCHAR
STARTCHAR uni1E98
ENCODING 7832
SWIDTH 768 0
DWIDTH 19 0
BBX 19 19 0 0
BITMAP
01C000
036000
022000
036000
01C000
000000
F870E0
707040
707040
707040
38B880
38B880
38B880
1D1D00
1D1D00
1D1D00
0E0E00
0E0E00
0E0E00
ENDCHAR
STARTCHAR uni1E99
ENCODING 7833
SWIDTH 506 0
DWIDTH 13 0
BBX 13 24 0 -5
BITMAP
0E00
1B00
1100
1B00
0E00
0000
F838
7010
7010
3820
3820
1C40
1C40
1C40
0E80
0E80
0700
0700
0600
0600
0400
CC00
F800
7000
ENDCHAR
STARTCHAR uni1EA0
ENCODING 7840
SWIDTH 635 0
DWIDTH 16 0
BBX 16 21 0 -4
BITMAP
0180
0180
03C0
03C0
03C0
04E0
04E0
04E0
0870
0870
0FF0
1038
1038
3038
201C
201C
F87F
0000
00C0
01E0
00C0
ENDCHAR
STARTCHAR uni1EA1
ENCODING 7841
SWIDTH 523 0
DWIDTH 14 0
BBX 13 17 1 -4
BITMAP
3F80
71C0
60E0
00E0
00E0
03E0
1EE0
70E0
E0E0
E0E0
E0E0
F1F8
3E60
0000
0600
0F00
0600
ENDCHAR
STARTCHAR uni1EA4
ENCODING 7844
SWIDTH 635 0
DWIDTH 16 0
BBX 16 26 0 0
BITMAP
0030
0070
00E0
0180
0200
0000
0180
03C0
0660
0C30
0000
0180
0380
03C0
03C0
04E0
04E0
04E0
0870
0870
1FF8
1038
1038
201C
201C
F87F
ENDCHAR
STARTCHAR uni1EA5
ENCODING 7845
SWIDTH 523 0
DWIDTH 14 0
BBX 13 24 1 0
BITMAP
00C0
01C0
0380
0600
0800
0000
0600
0F00
1980
30C0
0000
3F80
71C0
60E0
00E0
00E0
03E0
1EE0
70E0
E0E0
E0E0
E0E0
F1F8
3E60
ENDCHAR
STARTCHAR uni1EA6
ENCODING 7846
SWIDTH 635 0
DWIDTH 16 0
BBX 16 26 0 0
BITMAP
0C00
0E00
0700
0180
0040
0000
0180
03C0
0660
0C30
0000
0180
0380
03C0
03C0
04E0
04E0
04E0
0870
0870
1FF8
1038
1038
201C
201C
F87F
ENDCHAR
STARTCHAR uni1EA7
ENCODING 7847
SWIDTH 523 0
DWIDTH 14 0
BBX 13 24 1 0
BITMAP
3000
3800
1C00
0600
0100
0000
0600
0F00
1980
30C0
0000
3F80
71C0
60E0
00E0
00E0
03E0
1EE0
70E0
E0E0
E0E0
E0E0
F1F8
3E60
ENDCHAR
STARTCHAR uni1EAA
ENCODING 7850
SWIDTH 635 0
DWIDTH 16 0
BBX 16 24 0 0
BITMAP
0308
07F0
0860
0000
0180
03C0
0660
0C30
0000
0180
0380
03C0
03C0
04E0
04E0
04E0
0870
0870
1FF8
1038
1038
201C
201C
F87F
ENDCHAR
STARTCHAR uni1EAB
ENCODING 7851
SWIDTH 523 0
DWIDTH 14 0
BBX 13 22 1 0
BITMAP
0C20
1FC0
2180
0000
0600
0F00
1980
30C0
0000
3F80
71C0
60E0
00E0
00E0
03E0
1EE0
70E0
E0E0
E0E0
E0E0
F1F8
3E60
ENDCHAR
STARTCHAR uni1EAC
ENCODING 7852
SWIDTH 635 0
DWIDTH 16 0
BBX 16 26 0 -4
BITMAP
0180
03C0
0660
0C30
0000
0180
0180
03C0
03C0
03C0
04E0
04E0
04E0
0870
0870
0FF0
1038
1038
3038
201C
201C
F87F
0000
00C0
01E0
00C0
ENDCHAR
STARTCHAR uni1EAD
ENCODING 7853
SWIDTH 523 0
DWIDTH 14 0
BBX 13 22 1 -4
BITMAP
0300
0780
0CC0
1860
0000
3F80
71C0
60E0
00E0
00E0
03E0
1EE0
70E0
E0E0
E0E0
E0E0
F1F8
3E60
0000
0600
0F00
0600
ENDCHAR
STARTCHAR uni1EAE
ENCODING 7854
SWIDTH 635 0
DWIDTH 16 0
BBX 16 28 0 0
BITMAP
0030
0070
00E0
0180
0200
0000
0810
0C30
07E0
03C0
0000
0180
0180
03C0
03C0
03C0
04E0
04E0
04E0
0870
0870
0FF0
1038
1038
3038
201C
201C
F87F
ENDCHAR
STARTCHAR uni1EAF
ENCODING 7855
SWIDTH 523 0
DWIDTH 14 0
BBX 13 24 1 0
BITMAP
00C0
01C0
0380
0600
0800
0000
2040
30C0
1F80
0F00
0000
3F80
71C0
60E0
00E0
00E0
03E0
1EE0
70E0
E0E0
E0E0
E0E0
F1F8
3E60
ENDCHAR
STARTCHAR uni1EB0
ENCODING 7856
SWIDTH 635 0
DWIDTH 16 0
BBX 16 28 0 0
BITMAP
0C00
0E00
0700
0180
0040
0000
0810
0C30
07E0
03C0
0000
0180
0180
03C0
03C0
03C0
04E0
04E0
04E0
0870
0870
0FF0
1038
1038
3038
201C
201C
F87F
ENDCHAR
STARTCHAR uni1EB1
ENCODING 7857
SWIDTH 523 0
DWIDTH 14 0
BBX 13 24 1 0
BITMAP
3000
3800
1C00
0600
0100
0000
2040
30C0
1F80
0F00
0000
3F80
71C0
60E0
00E0
00E0
03E0
1EE0
70E0
E0E0
E0E0
E0E0
F1F8
3E60
ENDCHAR
STARTCHAR uni1EB4
ENCODING 7860
SWIDTH 635 0
DWIDTH 16 0
BBX 16 26 0 0
BITMAP
0308
07F0
0860
0000
0810
0C30
07E0
03C0
0000
0180
0180
03C0
03C0
03C0
04E0
04E0
04E0
0870
0870
0FF0
1038
1038
3038
201C
201C
F87F
ENDCHAR
STARTCHAR uni1EB5
ENCODING 7861
SWIDTH 523 0
DWIDTH 14 0
BBX 13 22 1 0
BITMAP
0C20
1FC0
2180
0000
2040
30C0
1F80
0F00
0000
3F80
71C0
60E0
00E0
00E0
03E0
1EE0
70E0
E0E0
E0E0
E0E0
F1F8
3E60
ENDCHAR
STARTCHAR uni1EB6
ENCODING 7862
SWIDTH 635 0
DWIDTH 16 0
BBX 16 26 0 -4
BITMAP
0810
0C30
07E0
03C0
0000
0180
0180
03C0
03C0
03C0
04E0
04E0
04E0
0870
0870
0FF0
1038
1038
3038
201C
201C
F87F
0000
00C0
01E0
00C0
ENDCHAR
STARTCHAR uni1EB7
ENCODING 7863
SWIDTH 523 0
DWIDTH 14 0
BBX 13 22 1 -4
BITMAP
1020
1860
0FC0
0780
0000
3F80
71C0
60E0
00E0
00E0
03E0
1EE0
70E0
E0E0
E0E0
E0E0
F1F8
3E60
0000
0600
0F00
0600
ENDCHAR
STARTCHAR uni1EB8
ENCODING 7864
SWIDTH 606 0
DWIDTH 15 0
BBX 13 21 1 -4
BITMAP
FFF0
3830
3810
3810
3800
3800
3820
3820
3FE0
3820
3820
3800
3800
3808
3808
3818
FFF8
0000
0600
0F00
0600
ENDCHAR
STARTCHAR uni1EB9
ENCODING 7865
SWIDTH 514 0
DWIDTH 13 0
BBX 11 17 1 -4
BITMAP
1F00
71C0
71C0
E0E0
E0E0
FFE0
E000
E000
E000
E000
7060
70C0
1F00
0000
0C00
1E00
0C00
ENDCHAR
STARTCHAR uni1EBC
ENCODING 7868
SWIDTH 606 0
DWIDTH 15 0
BBX 13 21 1 0
BITMAP
0C20
1FC0
2180
0000
FFF0
3830
3810
3810
3800
3800
3820
3820
3FE0
3820
3820
3800
3800
3808
3808
3818
FFF8
ENDCHAR
STARTCHAR uni1EBD
ENCODING 7869
SWIDTH 514 0
DWIDTH 13 0
BBX 11 17 1 0
BITMAP
1840
3F80
4300
0000
1F00
71C0
71C0
E0E0
E0E0
FFE0
E000
E000
E000
E000
7060
70C0
1F00
ENDCHAR
STARTCHAR uni1EBE
ENCODING 7870
SWIDTH 606 0
DWIDTH 15 0
BBX 13 26 1 0
BITMAP
00C0
01C0
0380
0600
0800
0000
0600
0F00
1980
30C0
0000
FFF0
3830
3810
3810
3800
3820
3820
3FE0
3820
3820
3800
3808
3808
3818
FFF8
ENDCHAR
STARTCHAR uni1EBF
ENCODING 7871
SWIDTH 514 0
DWIDTH 13 0
BBX 11 24 1 0
BITMAP
0180
0380
0700
0C00
1000
0000
0C00
1E00
3300
6180
0000
1F00
71C0
71C0
E0E0
E0E0
FFE0
E000
E000
E000
E000
7060
70C0
1F00
ENDCHAR
STARTCHAR uni1EC0
ENCODING 7872
SWIDTH 606 0
DWIDTH 15 0
BBX 13 26 1 0
BITMAP
3000
3800
1C00
0600
0100
0000
0600
0F00
1980
30C0
0000
FFF0
3830
3810
3810
3800
3820
3820
3FE0
3820
3820
3800
3808
3808
3818
FFF8
ENDCHAR
STARTCHAR uni1EC1
ENCODING 7873
SWIDTH 514 0
DWIDTH 13 0
BBX 11 24 1 0
BITMAP
6000
7000
3800
0C00
0200
0000
0C00
1E00
3300
6180
0000
1F00
71C0
71C0
E0E0
E0E0
FFE0
E000
E000
E000
E000
7060
70C0
1F00
ENDCHAR
STARTCHAR uni1EC4
ENCODING 7876
SWIDTH 606 0
DWIDTH 15 0
BBX 13 24 1 0
BITMAP
0C20
1FC0
2180
0000
0600
0F00
1980
30C0
0000
FFF0
3830
3810
3810
3800
3820
3820
3FE0
3820
3820
3800
3808
3808
3818
FFF8
ENDCHAR
STARTCHAR uni1EC5
ENCODING 7877
SWIDTH 514 0
DWIDTH 13 0
BBX 11 22 1 0
BITMAP
1840
3F80
4300
0000
0C00
1E00
3300
6180
0000
1F00
71C0
71C0
E0E0
E0E0
FFE0
E000
E000
E000
E000
7060
70C0
1F00
ENDCHAR
STARTCHAR uni1EC6
ENCODING 7878
SWIDTH 606 0
DWIDTH 15 0
BBX 13 26 1 -4
BITMAP
0600
0F00
1980
30C0
0000
FFF0
3830
3810
3810
3800
3800
3820
3820
3FE0
3820
3820
3800
3800
3808
3808
3818
FFF8
0000
0600
0F00
0600
ENDCHAR
STARTCHAR uni1EC7
ENCODING 7879
SWIDTH 514 0
DWIDTH 13 0
BBX 11 22 1 -4
BITMAP
0600
0F00
1980
30C0
0000
1F00
71C0
71C0
E0E0
E0E0
FFE0
E000
E000
E000
E000
7060
70C0
1F00
0000
0C00
1E00
0C00
ENDCHAR
STARTCHAR uni1ECA
ENCODING 7882
SWIDTH 349 0
DWIDTH 9 0
BBX 7 21 1 -4
BITMAP
FE
38
38
38
38
38
38
38
38
38
38
38
38
38
38
38
FE
00
18
3C
18
ENDCHAR
STARTCHAR uni1ECB
ENCODING 7883
SWIDTH 291 0
DWIDTH 7 0
BBX 7 21 0 -4
BITMAP
30
78
30
00
18
78
38
38
38
38
38
38
38
38
38
38
FE
00
18
3C
18
ENDCHAR
STARTCHAR uni1ECC
ENCODING 7884
SWIDTH 762 0
DWIDTH 19 0
BBX 17 21 1 -4
BITMAP
07F000
1C1C00
380E00
700700
700700
E00380
E00380
E00380
E00380
E00380
E00380
E00380
700700
700700
380E00
1C1C00
07F000
000000
00C000
01E000
00C000
ENDCHAR
STARTCHAR uni1ECD
ENCODING 7885
SWIDTH 577 0
DWIDTH 14 0
BBX 12 17 1 -4
BITMAP
1F80
70E0
70E0
E070
E070
E070
E070
E070
E070
E070
70E0
70E0
1F80
0000
0600
0F00
0600
ENDCHAR
STARTCHAR uni1ED0
ENCODING 7888
SWIDTH 762 0
DWIDTH 19 0
BBX 17 26 1 0
BITMAP
003000
007000
00E000
018000
020000
000000
018000
03C000
066000
0C3000
000000
07F000
1C1C00
380E00
700700
700700
E00380
E00380
E00380
E00380
E00380
700700
700700
380E00
1C1C00
07F000
ENDCHAR
STARTCHAR uni1ED1
ENCODING 7889
SWIDTH 577 0
DWIDTH 14 0
BBX 12 24 1 0
BITMAP
00C0
01C0
0380
0600
0800
0000
0600
0F00
1980
30C0
0000
1F80
70E0
70E0
E070
E070
E070
E070
E070
E070
E070
70E0
70E0
1F80
ENDCHAR
STARTCHAR uni1ED2
ENCODING 7890
SWIDTH 762 0
DWIDTH 19 0
BBX 17 26 1 0
BITMAP
0C0000
0E0000
070000
018000
004000
000000
018000
03C000
066000
0C3000
000000
07F000
1C1C00
380E00
700700
700700
E00380
E00380
E00380
E00380
E00380
700700
700700
380E00
1C1C00
07F000
ENDCHAR
STARTCHAR uni1ED3
ENCODING 7891
SWIDTH 577 0
DWIDTH 14 0
BBX 12 24 1 0
BITMAP
3000
3800
1C00
0600
0100
0000
0600
0F00
1980
30C0
0000
1F80
70E0
70E0
E070
E070
E070
E070
E070
E070
E070
70E0
70E0
1F80
ENDCHAR
STARTCHAR uni1ED6
ENCODING 7894
SWIDTH 762 0
DWIDTH 19 0
BBX 17 24 1 0
BITMAP
030800
07F000
086000
000000
018000
03C000
066000
0C3000
000000
07F000
1C1C00
380E00
700700
700700
E00380
E00380
E00380
E00380
E00380
700700
700700
380E00
1C1C00
07F000
ENDCHAR
STARTCHAR uni1ED7
ENCODING 7895
SWIDTH 577 0
DWIDTH 14 0
BBX 12 22 1 0
BITMAP
0C20
1FC0
2180
0000
0600
0F00
1980
30C0
0000
1F80
70E0
70E0
E070
E070
E070
E070
E070
E070
E070
70E0
70E0
1F80
ENDCHAR
STARTCHAR uni1ED8
ENCODING 7896
SWIDTH 762 0
DWIDTH 19 0
BBX 17 26 1 -4
BITMAP
00C000
01E000
033000
061800
000000
07F000
1C1C00
380E00
700700
700700
E00380
E00380
E00380
E00380
E00380
E00380
E00380
700700
700700
380E00
1C1C00
07F000
000000
00C000
01E000
00C000
ENDCHAR
STARTCHAR uni1ED9
ENCODING 7897
SWIDTH 577 0
DWIDTH 14 0
BBX 12 22 1 -4
BITMAP
0600
0F00
1980
30C0
0000
1F80
70E0
70E0
E070
E070
E070
E070
E070
E070
E070
70E0
70E0
1F80
0000
0600
0F00
0600
ENDCHAR
STARTCHAR uni1EDA
ENCODING 7898
SWIDTH 762 0
DWIDTH 19 0
BBX 19 23 1 0
BITMAP
000C00
001C00
003800
006000
008000
000000
07F0C0
1C1DE0
380EE0
7007C0
700780
E00380
E00380
E00380
E00380
E00380
E00380
E00380
700700
700700
380E00
1C1C00
07F000
ENDCHAR
STARTCHAR uni1EDB
ENCODING 7899
SWIDTH 577 0
DWIDTH 14 0
BBX 15 19 1 0
BITMAP
0030
0070
00E0
0180
0200
0000
1F8C
70FE
70EE
E07C
E078
E070
E070
E070
E070
E070
70E0
70E0
1F80
ENDCHAR
STARTCHAR uni1EDC
ENCODING 7900
SWIDTH 762 0
DWIDTH 19 0
BBX 19 23 1 0
BITMAP
030000
038000
01C000
006000
001000
000000
07F0C0
1C1DE0
380EE0
7007C0
700780
E00380
E00380
E00380
E00380
E00380
E00380
E00380
700700
700700
380E00
1C1C00
07F000
ENDCHAR
STARTCHAR uni1EDD
ENCODING 7901
SWIDTH 577 0
DWIDTH 14 0
BBX 15 19 1 0
BITMAP
0C00
0E00
0700
0180
0040
0000
1F8C
70FE
70EE
E07C
E078
E070
E070
E070
E070
E070
70E0
70E0
1F80
ENDCHAR
STARTCHAR uni1EE0
ENCODING 7904
SWIDTH 762 0
DWIDTH 19 0
BBX 19 21 1 0
BITMAP
00C200
01FC00
021800
000000
07F0C0
1C1DE0
380EE0
7007C0
700780
E00380
E00380
E00380
E00380
E00380
E00380
E00380
700700
700700
380E00
1C1C00
07F000
ENDCHAR
STARTCHAR uni1EE1
ENCODING 7905
SWIDTH 577 0
DWIDTH 14 0
BBX 15 17 1 0
BITMAP
0308
07F0
0860
0000
1F8C
70FE
70EE
E07C
E078
E070
E070
E070
E070
E070
70E0
70E0
1F80
ENDCHAR
STARTCHAR uni1EE2
ENCODING 7906
SWIDTH 762 0
DWIDTH 19 0
BBX 19 21 1 -4
BITMAP
07F0C0
1C1DE0
380EE0
7007C0
700780
E00380
E00380
E00380
E00380
E00380
E00380
E00380
700700
700700
380E00
1C1C00
07F000
000000
00C000
01E000
00C000
ENDCHAR
STARTCHAR uni1EE3
ENCODING 7907
SWIDTH 577 0
DWIDTH 14 0
BBX 15 17 1 -4
BITMAP
1F8C
70FE
70EE
E07C
E078
E070
E070
E070
E070
E070
70E0
70E0
1F80
0000
0300
0780
0300
ENDCHAR
STARTCHAR uni1EE4
ENCODING 7908
SWIDTH 791 0
DWIDTH 20 0
BBX 18 21 1 -4
BITMAP
FE1FC0
380700
380700
380700
380700
380700
380700
380700
380700
380700
380700
380700
380700
380700
180600
0C0C00
03F000
000000
00C000
01E000
00C000
ENDCHAR
STARTCHAR uni1EE5
ENCODING 7909
SWIDTH 606 0
DWIDTH 15 0
BBX 14 17 0 -4
BITMAP
3018
F078
7038
7038
7038
7038
7038
7038
7038
7038
7078
39B8
1E3C
0000
0300
0780
0300
ENDCHAR
STARTCHAR uni1EE8
ENCODING 7912
SWIDTH 791 0
DWIDTH 20 0
BBX 20 23 1 0
BITMAP
000600
000E00
001C00
003000
004000
000000
FE1FE0
3807F0
380770
380760
380740
380780
380700
380700
380700
380700
380700
380700
380700
380700
180600
0C0C00
03F000
ENDCHAR
STARTCHAR uni1EE9
ENCODING 7913
SWIDTH 606 0
DWIDTH 15 0
BBX 17 19 0 0
BITMAP
001800
003800
007000
00C000
010000
000000
301B00
F07F80
703B80
703B00
703A00
703C00
703800
703800
703800
703800
707800
39B800
1E3C00
ENDCHAR
STARTCHAR uni1EEA
ENCODING 7914
SWIDTH 791 0
DWIDTH 20 0
BBX 20 23 1 0
BITMAP
018000
01C000
00E000
003000
000800
000000
FE1FE0
3807F0
380770
380760
380740
380780
380700
380700
380700
380700
380700
380700
380700
380700
180600
0C0C00
03F000
ENDCHAR
STARTCHAR uni1EEB
ENCODING 7915
SWIDTH 606 0
DWIDTH 15 0
BBX 17 19 0 0
BITMAP
060000
070000
038000
00C000
002000
000000
301B00
F07F80
703B80
703B00
703A00
703C00
703800
703800
703800
703800
707800
39B800
1E3C00
ENDCHAR
STARTCHAR uni1EEE
ENCODING 7918
SWIDTH 791 0
DWIDTH 20 0
BBX 20 21 1 0
BITMAP
00C200
01FC00
021800
000000
FE1FE0
3807F0
380770
380760
380740
380780
380700
380700
380700
380700
380700
380700
380700
380700
180600
0C0C00
03F000
ENDCHAR
STARTCHAR uni1EEF
ENCODING 7919
SWIDTH 606 0
DWIDTH 15 0
BBX 17 17 0 0
BITMAP
018400
03F800
043000
000000
301B00
F07F80
703B80
703B00
703A00
703C00
703800
703800
703800
703800
707800
39B800
1E3C00
ENDCHAR
STARTCHAR uni1EF0
ENCODING 7920
SWIDTH 791 0
DWIDTH 20 0
BBX 20 21 1 -4
BITMAP
FE1FE0
3807F0
380770
380760
380740
380780
380700
380700
380700
380700
380700
380700
380700
380700
180600
0C0C00
03F000
000000
00C000
01E000
00C000
ENDCHAR
STARTCHAR uni1EF1
ENCODING 7921
SWIDTH 606 0
DWIDTH 15 0
BBX 17 17 0 -4
BITMAP
301B00
F07F80
703B80
703B00
703A00
703C00
703800
703800
703800
703800
707800
39B800
1E3C00
000000
018000
03C000
018000
ENDCHAR
STARTCHAR Ygrave
ENCODING 7922
SWIDTH 588 0
DWIDTH 16 0
BBX 16 23 0 0
BITMAP
1800
1C00
0E00
0300
0080
0000
FE1F
3804
1C08
1C08
0E10
0E10
0720
0720
03C0
03C0
01C0
01C0
01C0
01C0
01C0
01C0
07F0
ENDCHAR
STARTCHAR ygrave
ENCODING 7923
SWIDTH 506 0
DWIDTH 13 0
BBX 13 24 0 -5
BITMAP
3000
3800
1C00
0600
0100
0000
F838
7010
7010
3820
3820
1C40
1C40
1C40
0E80
0E80
0700
0700
0600
0600
0400
CC00
F800
7000
ENDCHAR
STARTCHAR uni1EF4
ENCODING 7924
SWIDTH 588 0
DWIDTH 16 0
BBX 16 21 0 -4
BITMAP
FE1F
3804
1C08
1C08
0E10
0E10
0720
0720
03C0
03C0
01C0
01C0
01C0
01C0
01C0
01C0
07F0
0000
0180
03C0
0180
ENDCHAR
STARTCHAR uni1EF5
ENCODING 7925
SWIDTH 506 0
DWIDTH 13 0
BBX 13 22 0 -9
BITMAP
F838
7010
7010
3820
3820
1C40
1C40
1C40
0E80
0E80
0700
0700
0600
0600
0400
CC00
F800
7000
0000
1800
3C00
1800
ENDCHAR
STARTCHAR uni1EF8
ENCODING 7928
SWIDTH 588 0
DWIDTH 16 0
BBX 16 21 0 0
BITMAP
0610
0FE0
10C0
0000
FE1F
3804
1C08
1C08
0E10
0E10
0720
0720
03C0
03C0
01C0
01C0
01C0
01C0
01C0
01C0
07F0
ENDCHAR
STARTCHAR uni1EF9
ENCODING 7929
SWIDTH 506 0
DWIDTH 13 0
BBX 13 22 0 -5
BITMAP
1840
3F80
4300
0000
F838
7010
7010
3820
3820
1C40
1C40
1C40
0E80
0E80
0700
0700
0600
0600
0400
CC00
F800
7000
ENDCHAR
STARTCHAR uni2000
ENCODING 8192
SWIDTH 500 0
DWIDTH 13 0
BBX 1 1 0 0
BITMAP
00
ENDCHAR
STARTCHAR uni2001
ENCODING 8193
SWIDTH 1000 0
DWIDTH 25 0
BBX 1 1 0 0
BITMAP
00
ENDCHAR
STARTCHAR uni2002
ENCODING 8194
SWIDTH 500 0
DWIDTH 13 0
BBX 1 1 0 0
BITMAP
00
ENDCHAR
STARTCHAR uni2003
ENCODING 8195
SWIDTH 1000 0
DWIDTH 25 0
BBX 1 1 0 0
BITMAP
00
ENDCHAR
STARTCHAR uni2004
ENCODING 8196
SWIDTH 333 0
DWIDTH 8 0
BBX 1 1 0 0
BITMAP
00
ENDCHAR
STARTCHAR uni2005
ENCODING 8197
SWIDTH 250 0
DWIDTH 6 0
BBX 1 1 0 0
BITMAP
00
ENDCHAR
STARTCHAR uni2006
ENCODING 8198
SWIDTH 167 0
DWIDTH 4 0
BBX 1 1 0 0
BITMAP
00
ENDCHAR
STARTCHAR uni2007
ENCODING 8199
SWIDTH 530 0
DWIDTH 13 0
BBX 1 1 0 0
BITMAP
00
ENDCHAR
STARTCHAR uni2008
ENCODING 8200
SWIDTH 265 0
DWIDTH 6 0
BBX 1 1 0 0
BITMAP
00
ENDCHAR
STARTCHAR uni2009
ENCODING 8201
SWIDTH 200 0
DWIDTH 5 0
BBX 1 1 0 0
BITMAP
00
ENDCHAR
STARTCHAR uni200A
ENCODING 8202
SWIDTH 100 0
DWIDTH 3 0
BBX 1 1 0 0
BITMAP
00
ENDCHAR
STARTCHAR uni200B
ENCODING 8203
SWIDTH 0 0
DWIDTH 0 0
BBX 1 1 0 0
BITMAP
00
ENDCHAR
STARTCHAR uni2010
ENCODING 8208
SWIDTH 392 0
DWIDTH 10 0
BBX 6 2 2 5
BITMAP
FC
FC
ENDCHAR
STARTCHAR uni2011
ENCODING 8209
SWIDTH 392 0
DWIDTH 10 0
BBX 6 2 2 5
BITMAP
FC
FC
ENDCHAR
STARTCHAR figuredash
ENCODING 8210
SWIDTH 500 0
DWIDTH 12 0
BBX 12 2 0 5
BITMAP
FFF0
FFF0
ENDCHAR
STARTCHAR endash
ENCODING 8211
SWIDTH 500 0
DWIDTH 12 0
BBX 12 2 0 5
BITMAP
FFF0
FFF0
ENDCHAR
STARTCHAR emdash
ENCODING 8212
SWIDTH 1000 0
DWIDTH 25 0
BBX 25 2 0 5
BITMAP
FFFFFF80
FFFFFF80
ENDCHAR
STARTCHAR afii00208
ENCODING 8213
SWIDTH 1000 0
DWIDTH 25 0
BBX 25 2 0 5
BITMAP
FFFFFF80
FFFFFF80
ENDCHAR
STARTCHAR quoteleft
ENCODING 8216
SWIDTH 278 0
DWIDTH 7 0
BBX 4 6 2 11
BITMAP
10
20
60
E0
F0
60
ENDCHAR
STARTCHAR quoteright
ENCODING 8217
SWIDTH 278 0
DWIDTH 7 0
BBX 4 6 1 11
BITMAP
60
F0
70
60
40
80
ENDCHAR
STARTCHAR quotesinglbase
ENCODING 8218
SWIDTH 278 0
DWIDTH 7 0
BBX 4 6 1 -3
BITMAP
60
F0
70
60
40
80
ENDCHAR
STARTCHAR quotereversed
ENCODING 8219
SWIDTH 278 0
DWIDTH 7 0
BBX 4 6 1 11
BITMAP
60
F0
E0
60
20
10
ENDCHAR
STARTCHAR quotedblleft
ENCODING 8220
SWIDTH 458 0
DWIDTH 11 0
BBX 9 6 1 11
BITMAP
1080
2100
6300
E700
F780
6300
ENDCHAR
STARTCHAR quotedblright
ENCODING 8221
SWIDTH 458 0
DWIDTH 11 0
BBX 9 6 1 11
BITMAP
6300
F780
7380
6300
4200
8400
ENDCHAR
STARTCHAR quotedblbase
ENCODING 8222
SWIDTH 458 0
DWIDTH 11 0
BBX 9 6 1 -3
BITMAP
6300
F780
7380
6300
4200
8400
ENDCHAR
STARTCHAR uni201F
ENCODING 8223
SWIDTH 458 0
DWIDTH 11 0
BBX 9 6 1 11
BITMAP
6300
F780
E700
6300
2100
1080
ENDCHAR
STARTCHAR dagger
ENCODING 8224
SWIDTH 504 0
DWIDTH 12 0
BBX 10 21 1 -3
BITMAP
0C00
0C00
0C00
0C00
0C00
FFC0
FFC0
0C00
0C00
0C00
0C00
0C00
0C00
0C00
0C00
0C00
0C00
0C00
0C00
0C00
0C00
ENDCHAR
STARTCHAR daggerdbl
ENCODING 8225
SWIDTH 488 0
DWIDTH 12 0
BBX 10 21 1 -3
BITMAP
0C00
0C00
0C00
0C00
0C00
FFC0
FFC0
0C00
0C00
0C00
0C00
0C00
0C00
0C00
FFC0
FFC0
0C00
0C00
0C00
0C00
0C00
ENDCHAR
STARTCHAR bullet
ENCODING 8226
SWIDTH 409 0
DWIDTH 10 0
BBX 9 9 0 4
BITMAP
1C00
7F00
7F00
FF80
FF80
FF80
7F00
7F00
1C00
ENDCHAR
STARTCHAR ellipsis
ENCODING 8230
SWIDTH 1000 0
DWIDTH 24 0
BBX 20 3 1 0
BITMAP
606060
F0F0F0
606060
ENDCHAR
STARTCHAR perthousand
ENCODING 8240
SWIDTH 1208 0
DWIDTH 29 0
BBX 27 17 1 0
BITMAP
3C060000
67FC0000
C3080000
C3180000
C3100000
C3200000
C3600000
66400000
3C8F0780
01998CC0
0130D860
0230D860
0630D860
0430D860
0830D860
18198CC0
100F0780
ENDCHAR
STARTCHAR guilsinglleft
ENCODING 8249
SWIDTH 257 0
DWIDTH 6 0
BBX 5 9 0 2
BITMAP
08
18
30
60
E0
60
30
18
08
ENDCHAR
STARTCHAR guilsinglright
ENCODING 8250
SWIDTH 257 0
DWIDTH 6 0
BBX 5 9 0 2
BITMAP
80
C0
60
30
38
30
60
C0
80
ENDCHAR
STARTCHAR fraction
ENCODING 8260
SWIDTH 150 0
DWIDTH 4 0
BBX 12 17 -4 0
BITMAP
0030
0020
0040
00C0
0080
0100
0300
0200
0400
0C00
0800
1000
3000
2000
4000
C000
8000
ENDCHAR
STARTCHAR oneinferior
ENCODING 8321
SWIDTH 380 0
DWIDTH 9 0
BBX 6 10 1 -5
BITMAP
30
F0
30
30
30
30
30
30
30
FC
ENDCHAR
STARTCHAR twoinferior
ENCODING 8322
SWIDTH 380 0
DWIDTH 10 0
BBX 7 10 1 -5
BITMAP
7C
C6
86
06
0C
18
30
60
C2
FE
ENDCHAR
STARTCHAR threeinferior
ENCODING 8323
SWIDTH 380 0
DWIDTH 10 0
BBX 7 10 1 -5
BITMAP
78
CC
84
0C
38
0C
06
86
CC
78
ENDCHAR
STARTCHAR uni20A5
ENCODING 8357
SWIDTH 923 0
DWIDTH 23 0
BBX 23 17 0 -2
BITMAP
000600
000600
19E7E0
7A7E70
3C3C38
383C38
383838
383838
383838
383838
383838
387838
387838
387838
FEFEFE
00C000
00C000
ENDCHAR
STARTCHAR uni20A6
ENCODING 8358
SWIDTH 780 0
DWIDTH 19 0
BBX 17 17 1 0
BITMAP
F01F80
380600
3C0200
3C0200
3FFE00
3FFE00
278200
238200
21C200
21E200
3FFE00
3FFE00
203A00
203E00
201E00
300E00
FC0600
ENDCHAR
STARTCHAR uni20A9
ENCODING 8361
SWIDTH 940 0
DWIDTH 24 0
BBX 24 17 0 0
BITMAP
FE0C1F
380C04
381E04
381E04
1FFFC8
1FFFC8
1C2708
1C2708
0E2710
0E4390
0FFFD0
0FFFD0
0781E0
0781E0
0781E0
0300C0
0300C0
ENDCHAR
STARTCHAR Euro
ENCODING 8364
SWIDTH 684 0
DWIDTH 17 0
BBX 18 17 -2 0
BITMAP
00FF00
0381C0
0700C0
0E0040
FFF000
FFF000
1C0000
1C0000
1C0000
1C0000
FFF000
FFF000
0E0000
0E0040
0700C0
0381C0
00FF00
ENDCHAR
STARTCHAR uni20AD
ENCODING 8365
SWIDTH 658 0
DWIDTH 17 0
BBX 16 17 1 0
BITMAP
FE3F
381C
3830
3860
38C0
3980
3B00
3F00
FFFF
39C0
39E0
38E0
3870
3878
383C
381E
FE0F
ENDCHAR
STARTCHAR uni2103
ENCODING 8451
SWIDTH 1017 0
DWIDTH 27 0
BBX 24 17 2 0
BITMAP
7803FC
CC0E07
841C03
843801
CC3800
787000
007000
007000
007000
007000
007000
007000
003800
003801
001C03
000E07
0003FC
ENDCHAR
STARTCHAR uni2109
ENCODING 8457
SWIDTH 913 0
DWIDTH 24 0
BBX 21 17 2 0
BITMAP
787FF8
CC1C18
841C08
841C08
CC1C00
781C00
001C10
001C10
001FF0
001C10
001C10
001C00
001C00
001C00
001C00
001C00
007F00
ENDCHAR
STARTCHAR trademark
ENCODING 8482
SWIDTH 1100 0
DWIDTH 27 0
BBX 24 10 1 8
BITMAP
FFFC0F
8C5C0E
8C5616
0C1616
0C1326
0C1326
0C11C6
0C11C6
0C1086
3F388F
ENDCHAR
STARTCHAR uni212A
ENCODING 8490
SWIDTH 658 0
DWIDTH 17 0
BBX 16 17 1 0
BITMAP
FE3F
381C
3830
3860
38C0
3980
3B00
3F00
3B80
39C0
39E0
38E0
3870
3878
383C
381E
FE0F
ENDCHAR
STARTCHAR uni212B
ENCODING 8491
SWIDTH 627 0
DWIDTH 16 0
BBX 16 21 0 0
BITMAP
0380
06C0
0440
06C0
0380
0000
0180
0380
03C0
03C0
04E0
04E0
04E0
0870
0870
1FF8
1038
1038
201C
201C
F87F
ENDCHAR
STARTCHAR uni2132
ENCODING 8498
SWIDTH 580 0
DWIDTH 14 0
BBX 12 17 1 0
BITMAP
07F0
01C0
01C0
01C0
01C0
01C0
41C0
41C0
7FC0
41C0
41C0
01C0
01C0
81C0
81C0
C1C0
FFF0
ENDCHAR
STARTCHAR universal
ENCODING 8704
SWIDTH 635 0
DWIDTH 16 0
BBX 16 17 0 0
BITMAP
F87F
201C
201C
3038
1038
1038
0FF0
0870
0870
04E0
04E0
04E0
03C0
03C0
03C0
0180
0180
ENDCHAR
STARTCHAR existential
ENCODING 8707
SWIDTH 606 0
DWIDTH 15 0
BBX 13 17 1 0
BITMAP
7FF8
60E0
40E0
40E0
00E0
00E0
20E0
20E0
3FE0
20E0
20E0
00E0
00E0
80E0
80E0
C0E0
FFF8
ENDCHAR
STARTCHAR uni2204
ENCODING 8708
SWIDTH 606 0
DWIDTH 15 0
BBX 13 17 1 0
BITMAP
7FF8
60E0
40E0
41E0
01E0
01E0
23E0
23E0
3FE0
26E0
26E0
0CE0
0CE0
8CE0
98E0
D8E0
FFF8
ENDCHAR
STARTCHAR minus
ENCODING 8722
SWIDTH 570 0
DWIDTH 14 0
BBX 12 2 1 5
BITMAP
FFF0
FFF0
ENDCHAR
STARTCHAR fraction
ENCODING 8725
SWIDTH 150 0
DWIDTH 4 0
BBX 12 17 -4 0
BITMAP
0030
0020
0040
00C0
0080
0100
0300
0200
0400
0C00
0800
1000
3000
2000
4000
C000
8000
ENDCHAR
STARTCHAR periodcentered
ENCODING 8729
SWIDTH 265 0
DWIDTH 7 0
BBX 4 3 1 5
BITMAP
60
F0
60
ENDCHAR
STARTCHAR uni2236
ENCODING 8758
SWIDTH 265 0
DWIDTH 6 0
BBX 4 13 1 0
BITMAP
60
F0
60
00
00
00
00
00
00
00
60
F0
60
ENDCHAR
STARTCHAR uni2259
ENCODING 8793
SWIDTH 570 0
DWIDTH 14 0
BBX 12 13 1 2
BITMAP
0600
0F00
1980
30C0
0000
FFF0
FFF0
0000
0000
0000
0000
FFF0
FFF0
ENDCHAR
STARTCHAR uni225A
ENCODING 8794
SWIDTH 570 0
DWIDTH 14 0
BBX 12 13 1 2
BITMAP
30C0
1980
0F00
0600
0000
FFF0
FFF0
0000
0000
0000
0000
FFF0
FFF0
ENDCHAR
STARTCHAR notequal
ENCODING 8800
SWIDTH 570 0
DWIDTH 14 0
BBX 12 17 1 -2
BITMAP
00C0
00C0
00C0
0180
0180
FFF0
FFF0
0300
0600
0600
0600
FFF0
FFF0
0C00
1800
1800
1800
ENDCHAR
STARTCHAR equivalence
ENCODING 8801
SWIDTH 570 0
DWIDTH 14 0
BBX 12 5 0 3
BITMAP
FFF0
0000
FFF0
0000
FFF0
ENDCHAR
STARTCHAR uni2262
ENCODING 8802
SWIDTH 570 0
DWIDTH 14 0
BBX 12 17 0 -3
BITMAP
00C0
00C0
00C0
0180
0180
0180
FFF0
0300
FFF0
0600
FFF0
0C00
0C00
0C00
1800
1800
1800
ENDCHAR
STARTCHAR lessequal
ENCODING 8804
SWIDTH 570 0
DWIDTH 14 0
BBX 12 14 1 -2
BITMAP
0030
00F0
03C0
0F00
3C00
F000
F000
3C00
0F00
03C0
00F0
0030
0000
FFF0
ENDCHAR
STARTCHAR greaterequal
ENCODING 8805
SWIDTH 570 0
DWIDTH 14 0
BBX 12 14 1 -2
BITMAP
C000
F000
3C00
0F00
03C0
00F0
00F0
03C0
0F00
3C00
F000
C000
0000
FFF0
ENDCHAR
STARTCHAR uni226E
ENCODING 8814
SWIDTH 570 0
DWIDTH 14 0
BBX 12 17 1 -2
BITMAP
00C0
00C0
00C0
01B0
01F0
03C0
0F00
3F00
F600
F600
3E00
0F00
0FC0
0CF0
1830
1800
1800
ENDCHAR
STARTCHAR uni226F
ENCODING 8815
SWIDTH 570 0
DWIDTH 14 0
BBX 12 17 1 -2
BITMAP
00C0
00C0
00C0
C180
F180
3D80
0F00
03C0
06F0
06F0
07C0
0F00
3C00
FC00
D800
1800
1800
ENDCHAR
STARTCHAR uni2270
ENCODING 8816
SWIDTH 570 0
DWIDTH 14 0
BBX 12 17 1 -3
BITMAP
00C0
00C0
00F0
01F0
03C0
0F80
3F00
F300
F600
3E00
0F00
0FC0
0CF0
0C30
1800
FFF0
1800
ENDCHAR
STARTCHAR uni2271
ENCODING 8817
SWIDTH 570 0
DWIDTH 14 0
BBX 12 17 1 -3
BITMAP
00C0
00C0
C0C0
F180
3D80
0F80
03C0
03F0
06F0
07C0
0F00
3C00
FC00
CC00
1800
FFF0
1800
ENDCHAR
STARTCHAR fi
ENCODING -1
SWIDTH 610 0
DWIDTH 15 0
BBX 15 19 0 0
BITMAP
0FE0
1870
3820
3800
3800
3800
FFF8
3838
3838
3838
3838
3838
3838
3838
3838
3838
3838
3838
FEFE
ENDCHAR
STARTCHAR fl
ENCODING -1
SWIDTH 610 0
DWIDTH 15 0
BBX 15 19 0 0
BITMAP
0FD8
18F8
3878
3838
3838
3838
FF38
3838
3838
3838
3838
3838
3838
3838
3838
3838
3838
3838
FEFE
ENDCHAR
ENDFONT
